<svg viewBox="0 0 1401 297" fill="none" xmlns="http://www.w3.org/2000/svg">
<path d="M141.057 129.417C130.411 133.833 125.349 146.047 129.76 156.703C134.172 167.359 146.385 172.422 157.036 168.01C167.698 163.589 172.76 151.38 168.344 140.729C163.927 130.068 151.713 125.005 141.057 129.417Z" fill="#231F20"/>
<path d="M191.495 196.604C187.078 185.943 174.865 180.896 164.203 185.302C153.552 189.714 148.495 201.932 152.906 212.594C157.323 223.245 169.536 228.307 180.187 223.891C190.849 219.479 195.906 207.26 191.495 196.604Z" fill="#231F20"/>
<path d="M106.615 100.823C111.021 111.474 123.24 116.531 133.896 112.125C144.552 107.714 149.615 95.4896 145.198 84.8333C140.781 74.1823 128.562 69.1198 117.911 73.5364C107.255 77.9479 102.193 90.1719 106.615 100.823Z" fill="#231F20"/>
<path d="M101.151 106.26C90.4844 101.854 78.276 106.911 73.8698 117.568C69.4531 128.229 74.5104 140.443 85.1562 144.859C95.8177 149.271 108.036 144.208 112.453 133.547C116.859 122.906 111.807 110.682 101.151 106.26Z" fill="#231F20"/>
<path d="M212.917 152.562C202.26 148.146 190.042 153.208 185.63 163.87C181.224 174.521 186.276 186.75 196.927 191.146C207.588 195.562 219.807 190.505 224.214 179.849C228.63 169.193 223.573 156.984 212.917 152.562Z" fill="#231F20"/>
<path d="M145.193 212.594C149.609 201.943 144.542 189.719 133.885 185.297C123.234 180.896 111.016 185.953 106.604 196.604C102.193 207.26 107.255 219.484 117.906 223.891C128.557 228.307 140.771 223.245 145.193 212.594Z" fill="#231F20"/>
<path d="M152.901 84.8437C148.49 95.4948 153.547 107.714 164.203 112.125C174.859 116.531 187.073 111.479 191.49 100.823C195.906 90.1719 190.844 77.9479 180.187 73.5365C169.531 69.125 157.318 74.1875 152.901 84.8437Z" fill="#231F20"/>
<path d="M140.505 40.1875C151.161 44.5937 163.37 39.5417 167.792 28.8854C172.208 18.2292 167.146 6.01041 156.49 1.59895C145.833 -2.81251 133.62 2.24478 129.203 12.901C124.792 23.5573 129.849 35.776 140.505 40.1875Z" fill="#231F20"/>
<path d="M156.49 256.807C145.833 252.396 133.62 257.453 129.203 268.109C124.792 278.766 129.849 290.984 140.505 295.396C151.161 299.802 163.37 294.75 167.792 284.094C172.208 273.438 167.146 261.219 156.49 256.807Z" fill="#231F20"/>
<path d="M84.8958 251.615C76.7396 259.766 76.7396 272.995 84.8958 281.141C93.0521 289.302 106.271 289.297 114.432 281.141C122.583 272.99 122.589 259.766 114.432 251.615C106.271 243.464 93.0573 243.458 84.8958 251.615Z" fill="#231F20"/>
<path d="M212.099 45.3645C220.25 37.2083 220.255 23.9791 212.094 15.8333C203.937 7.68225 190.719 7.67183 182.562 15.8281C174.406 23.9791 174.406 37.2083 182.562 45.3645C190.713 53.5208 203.937 53.5156 212.099 45.3645Z" fill="#231F20"/>
<path d="M51.4896 197.333C51.4844 185.797 42.1458 176.453 30.6094 176.448C19.0729 176.443 9.72394 185.797 9.72394 197.333C9.72394 208.859 19.0729 218.214 30.6094 218.219C42.1406 218.214 51.4948 208.865 51.4896 197.333Z" fill="#231F20"/>
<path d="M245.505 99.6719C245.505 111.198 254.859 120.547 266.391 120.552C277.922 120.552 287.271 111.203 287.271 99.6719C287.266 88.1354 277.927 78.7865 266.391 78.7812C254.859 78.7812 245.5 88.1354 245.505 99.6719Z" fill="#231F20"/>
<path d="M45.3749 114.432C53.5208 106.271 53.5312 93.0573 45.3749 84.901C37.2187 76.7448 23.9895 76.7448 15.8437 84.901C7.68223 93.052 7.68744 106.271 15.8437 114.437C23.9947 122.589 37.2187 122.594 45.3749 114.432Z" fill="#231F20"/>
<path d="M251.62 182.562C243.469 190.719 243.469 203.938 251.625 212.099C259.776 220.25 273.005 220.255 281.151 212.099C289.302 203.938 289.312 190.724 281.156 182.562C273.005 174.406 259.776 174.406 251.62 182.562Z" fill="#231F20"/>
<path d="M99.6666 51.4896C111.193 51.4791 120.547 42.1406 120.552 30.6041C120.552 19.0729 111.198 9.71873 99.6666 9.72394C88.1301 9.71873 78.7864 19.0729 78.7812 30.6041C78.7812 42.1406 88.1301 51.4948 99.6666 51.4896Z" fill="#231F20"/>
<path d="M197.328 245.505C185.797 245.505 176.453 254.854 176.448 266.391C176.448 277.922 185.797 287.271 197.328 287.271C208.859 287.26 218.208 277.927 218.214 266.391C218.214 254.854 208.859 245.5 197.328 245.505Z" fill="#231F20"/>
<path d="M230.724 219.438C220.073 223.859 215.01 236.057 219.417 246.719C223.833 257.375 236.052 262.438 246.708 258.021C257.365 253.609 262.422 241.396 258.01 230.734C253.594 220.083 241.38 215.021 230.724 219.438Z" fill="#231F20"/>
<path d="M66.2499 77.5625C76.901 73.151 81.9583 60.9323 77.5468 50.2708C73.1353 39.625 60.9166 34.5573 50.2656 38.9791C39.6145 43.3958 34.552 55.5989 38.9635 66.2604C43.3749 76.9166 55.5937 81.9791 66.2499 77.5625Z" fill="#231F20"/>
<path d="M284.083 129.203C273.432 124.792 261.208 129.854 256.802 140.505C252.396 151.167 257.443 163.375 268.099 167.792C278.755 172.214 290.974 167.151 295.385 156.49C299.802 145.839 294.74 133.625 284.083 129.203Z" fill="#231F20"/>
<path d="M40.177 156.49C44.5937 145.839 39.5312 133.625 28.875 129.203C18.2239 124.792 5.99996 129.854 1.59371 140.505C-2.81254 151.167 2.23433 163.375 12.8906 167.792C23.5468 172.214 35.7708 167.151 40.177 156.49Z" fill="#231F20"/>
<path d="M219.432 66.2656C223.849 76.9114 236.057 81.9791 246.713 77.5677C257.375 73.151 262.432 60.9323 258.016 50.2812C253.604 39.625 241.391 34.5677 230.729 38.9791C220.078 43.3906 215.016 55.6041 219.432 66.2656Z" fill="#231F20"/>
<path d="M77.5573 230.734C73.1458 220.083 60.9323 215.026 50.2708 219.438C39.6198 223.849 34.5573 236.068 38.9687 246.719C43.3906 257.375 55.5937 262.438 66.2552 258.026C76.9114 253.615 81.9739 241.396 77.5573 230.734Z" fill="#231F20"/>
<path d="M85.1666 152.573C74.5104 156.984 69.4531 169.193 73.8697 179.854C78.276 190.505 90.4895 195.562 101.151 191.156C111.807 186.75 116.859 174.526 112.453 163.87C108.042 153.214 95.8229 148.146 85.1666 152.573Z" fill="#231F20"/>
<path d="M224.213 117.568C219.807 106.917 207.588 101.854 196.932 106.271C186.276 110.687 181.224 122.906 185.63 133.552C190.042 144.214 202.26 149.276 212.917 144.859C223.573 140.443 228.635 128.229 224.213 117.568Z" fill="#231F20"/>
<path d="M557.578 68.7604C567.354 68.7604 575.286 60.8281 575.286 51.0416V28.9062C575.281 19.125 567.354 11.1927 557.578 11.1927C547.786 11.1927 539.844 19.125 539.844 28.9062V51.0416C539.844 60.8281 547.786 68.75 557.578 68.7604Z" fill="#231F20"/>
<path d="M558.057 86.0312C548.276 86.0312 540.339 93.9635 540.344 103.75V279.271C540.344 289.047 548.276 296.984 558.057 296.984C567.839 296.984 575.776 289.052 575.776 279.271V103.75C575.766 93.9635 567.839 86.0312 558.057 86.0312Z" fill="#231F20"/>
<path d="M956.245 68.7604C966.021 68.7604 973.953 60.8281 973.953 51.0416V28.9062C973.948 19.125 966.021 11.1927 956.245 11.1927C946.453 11.1927 938.51 19.125 938.51 28.9062V51.0416C938.51 60.8281 946.453 68.75 956.245 68.7604Z" fill="#231F20"/>
<path d="M956.724 86.0312C946.943 86.0312 939.005 93.9635 939.011 103.75V279.271C939.011 289.047 946.943 296.984 956.724 296.984C966.505 296.984 974.443 289.052 974.443 279.271V103.75C974.432 93.9635 966.505 86.0312 956.724 86.0312Z" fill="#231F20"/>
<path d="M1198.76 279.495L1198.45 184.792C1198.4 129.167 1153.38 84.0729 1097.76 84.0781C1042.15 84.0781 997.062 129.182 997.062 184.792L997.13 279.24L997.104 279.271C997.104 289.047 1005.04 296.984 1014.82 296.984C1024.6 296.984 1032.54 289.052 1032.54 279.271V249.401L1032.56 249.38V184.646C1032.56 148.609 1061.78 119.38 1097.81 119.38C1133.86 119.375 1163.03 148.599 1163.07 184.646L1163.23 238.714H1163.27V242.438L1163.27 242.448L1163.32 279.271C1163.32 289.047 1171.26 296.984 1181.04 296.984C1190.75 296.984 1198.64 289.161 1198.75 279.479L1198.76 279.495Z" fill="#231F20"/>
<path d="M910.5 279.271C910.5 289.052 902.562 296.984 892.781 296.984C883 296.984 875.068 289.047 875.068 279.271V26.8281C875.062 17.0365 883 9.10938 892.781 9.10938C902.562 9.10938 910.49 17.0365 910.5 26.8281V279.271Z" fill="#231F20"/>
<path d="M505.38 261.552H442.344C415.042 261.552 393.885 241.839 393.87 217.276V28.2396C393.865 18.8489 386.911 11.2396 377.13 11.2396C367.349 11.2396 358.438 18.8489 358.438 28.2396V217.25C358.438 217.255 358.438 217.266 358.438 217.271V217.323C358.484 259.25 395.583 296.87 442.135 296.979V296.984H442.292C442.307 296.984 442.323 296.984 442.344 296.984H505.38C515.161 296.984 523.094 289.182 523.094 279.401C523.089 269.615 515.161 261.552 505.38 261.552Z" fill="#231F20"/>
<path d="M768.458 128.443C780.385 128.443 791.568 131.599 801.245 137.099L710.62 227.724C705.12 218.042 701.963 206.865 701.963 194.943C701.953 158.208 731.745 128.443 768.458 128.443ZM849.458 224.078C841.099 218.932 830.172 221.521 825.036 229.849L825.031 229.844C813.318 248.797 792.37 261.437 768.458 261.437C756.536 261.432 745.354 258.276 735.677 252.771L831.411 157V156.995C843.073 145.312 842.974 126.307 831.187 114.521L826.974 111.37C810.406 99.7448 790.24 92.8958 768.463 92.8958C712.115 92.8958 666.396 138.568 666.411 194.943C666.411 251.255 712.115 296.969 768.463 296.984C805.156 296.984 837.323 277.589 855.302 248.495L855.307 248.5C860.432 240.161 857.818 229.229 849.458 224.078Z" fill="#231F20"/>
<path d="M1311.12 128.443C1323.05 128.443 1334.23 131.599 1343.91 137.099L1253.29 227.724C1247.79 218.042 1244.63 206.865 1244.63 194.943C1244.62 158.208 1274.41 128.443 1311.12 128.443ZM1392.12 224.078C1383.77 218.932 1372.84 221.521 1367.71 229.849L1367.69 229.844C1355.98 248.797 1335.04 261.437 1311.12 261.437C1299.2 261.432 1288.02 258.276 1278.34 252.771L1374.08 157V156.995C1385.73 145.312 1385.64 126.307 1373.85 114.521L1369.64 111.37C1353.07 99.7448 1332.91 92.8958 1311.13 92.8958C1254.78 92.8958 1209.06 138.568 1209.08 194.943C1209.08 251.255 1254.78 296.969 1311.13 296.984C1347.83 296.984 1379.98 277.589 1397.97 248.495V248.5C1403.09 240.161 1400.48 229.229 1392.12 224.078Z" fill="#231F20"/>
<path d="M707.714 11.0312H681.016C639.021 11.0417 601.318 48.25 601.302 94.9062H601.281V278.458C601.281 288.682 609.214 296.984 618.995 296.984C628.776 296.984 636.714 288.682 636.714 278.458V131.365H669.693C679.479 131.365 687.411 123.427 687.411 113.646C687.401 103.859 679.479 95.9271 669.693 95.9271H636.714V94.9375H636.734C636.734 67.6302 656.458 46.4688 681.036 46.4688H707.714C717.5 46.4688 725.432 38.5312 725.432 28.75C725.422 18.9635 717.5 11.0312 707.714 11.0312Z" fill="#231F20"/>
</svg>
