<svg viewBox="0 0 743 225" fill="none" xmlns="http://www.w3.org/2000/svg">
<path d="M449.879 84.6557C449.879 94.3439 440.719 102.666 426.187 102.666C411.655 102.666 403.861 96.2378 400.929 93.1966L410.398 85.5116C412.929 88.8806 417.664 92.2496 425.55 92.2496C433.125 92.2496 435.875 88.3525 435.875 86.0397C435.875 82.9803 432.925 81.833 428.081 80.9953L421.561 79.8299C417.464 79.1014 403.241 76.4609 403.241 64.0411C403.241 53.6245 413.239 46.8866 425.877 46.8866C429.975 46.8866 440.61 47.5239 448.513 56.684L439.572 65.0063C436.731 59.4338 431.359 57.0117 425.258 57.0117C422.836 57.0117 416.517 57.7402 416.517 62.4932C416.517 65.9715 419.667 67.0277 427.261 68.3935L435.784 69.9778C443.76 71.3801 449.879 76.1149 449.879 84.6557ZM600.282 26.7454H587.443V101.064H600.282V26.7454ZM707.489 101.064V78.2273C707.489 69.1766 708.654 64.7513 712.442 61.6009C715.083 59.3974 717.705 59.1788 719.071 59.1788C726.865 59.1788 728.34 65.6983 728.34 71.4893V101.064H741.179V64.4417C741.179 54.1162 735.279 46.8683 724.115 46.8683C722.003 46.8683 712.224 47.5057 707.489 54.6626V48.4527H694.65V101.082H707.489V101.064ZM392.588 48.4345H379.859V71.289C379.859 80.3398 378.693 84.765 374.905 87.9155C372.265 90.119 369.642 90.3375 368.277 90.3375C360.482 90.3375 359.007 83.818 359.007 78.027V48.4345H346.169V85.0746C346.169 95.4001 352.069 102.648 363.232 102.648C365.345 102.648 375.124 102.011 379.859 94.8538V101.064H392.697V48.4345H392.588ZM380.842 182.174L391.586 188.384C387.38 194.066 379.695 201.751 365.891 201.751C350.212 201.751 338.83 191.007 338.83 173.543C338.83 154.694 351.577 145.953 365.254 145.953C385.358 145.953 391.149 162.07 391.149 176.383H352.197C352.415 179.024 354.837 189.441 367.038 189.441C375.998 189.441 379.786 183.959 380.842 182.174ZM352.615 167.114H377.255C377.036 164.492 375.361 156.06 365.472 156.06C355.037 156.06 353.034 165.02 352.615 167.114ZM675.584 169.008L667.061 167.424C659.485 166.058 656.317 165.002 656.317 161.523C656.317 156.789 662.636 156.042 665.058 156.042C671.158 156.042 676.531 158.464 679.371 164.037L688.313 155.714C680.409 146.554 669.793 145.917 665.677 145.917C653.039 145.917 643.041 152.655 643.041 163.071C643.041 175.491 657.245 178.132 661.361 178.86L667.88 180.026C672.725 180.863 675.675 182.029 675.675 185.07C675.675 187.383 672.943 191.28 665.349 191.28C657.446 191.28 652.711 187.911 650.198 184.542L640.728 192.227C643.678 195.286 651.473 201.696 665.987 201.696C680.519 201.696 689.679 193.374 689.679 183.686C689.697 175.218 683.596 170.483 675.584 169.008ZM730.016 169.008L721.493 167.424C713.917 166.058 710.749 165.002 710.749 161.523C710.749 156.789 717.068 156.042 719.49 156.042C725.59 156.042 730.963 158.464 733.804 164.037L742.745 155.714C734.841 146.554 724.225 145.917 720.109 145.917C707.471 145.917 697.473 152.655 697.473 163.071C697.473 175.491 711.677 178.132 715.793 178.86L722.313 180.026C727.157 180.863 730.107 182.029 730.107 185.07C730.107 187.383 727.375 191.28 719.781 191.28C711.878 191.28 707.143 187.911 704.63 184.542L695.16 192.227C698.11 195.286 705.905 201.696 720.419 201.696C734.951 201.696 744.111 193.374 744.111 183.686C744.111 175.218 738.01 170.483 730.016 169.008ZM506.569 78.5369C506.569 75.4775 506.569 72.8551 507.516 69.905C510.576 60.2168 520.683 60.2168 523.305 60.2168V47.269H522.249C519.718 47.269 510.558 47.5786 506.569 55.9009V48.4345H493.731V101.064H506.569V78.5369ZM561.693 155.004V147.538H548.855V200.167H561.693V177.64C561.693 174.581 561.693 171.958 562.64 169.008C565.7 159.32 575.807 159.32 578.429 159.32V146.372H577.373C574.86 146.372 565.7 146.7 561.693 155.004ZM636.012 173.852C635.757 187.947 626.815 201.751 608.95 201.751C591.086 201.751 582.162 187.947 581.889 173.852C582.144 159.757 591.086 145.953 608.95 145.953C626.815 145.953 635.738 159.757 636.012 173.852ZM622.699 173.852C622.699 165.73 618.329 157.717 608.95 157.717C599.572 157.717 595.201 165.73 595.201 173.852C595.201 181.974 599.572 189.987 608.95 189.987C618.329 189.987 622.699 181.974 622.699 173.852ZM435.911 125.849H448.75V200.167H435.911V195.122C434.855 196.379 430.649 201.751 421.27 201.751C410.216 201.751 397.906 194.066 397.906 174.908C397.906 156.06 409.378 145.953 421.798 145.953C426.114 145.953 432.433 147.538 435.911 151.854V125.849ZM436.239 173.852C436.239 165.73 432.233 157.717 423.656 157.717C415.06 157.717 411.072 165.73 411.072 173.852C411.072 181.974 415.078 189.987 423.656 189.987C432.251 189.987 436.239 181.974 436.239 173.852ZM485.845 101.064V90.4285C484.261 90.8474 482.367 91.0659 480.583 91.0659C480.054 91.0659 477.323 91.0659 475.848 89.4816C474.682 88.225 474.591 85.8941 474.591 83.9091V57.376H485.864V48.4345H474.591V29.6956H461.753V48.4345H454.068V57.376H461.753V88.7531C461.753 97.3851 465.34 102.648 476.594 102.648C480.892 102.648 484.188 101.501 485.845 101.064ZM562.13 97.0391C558.652 99.7707 553.08 102.648 546.651 102.648C534.65 102.648 527.494 95.1451 527.494 86.2947C527.494 74.8219 536.235 70.2874 546.232 68.5027C554.136 67.0277 559.071 65.7711 562.44 64.6056C562.44 60.5993 561.275 56.7022 553.389 56.7022C543.81 56.7022 542.754 61.8558 542.754 64.6056L529.916 63.8772C530.134 60.399 530.862 46.8501 552.97 46.8501C568.45 46.8501 575.078 52.6229 575.078 61.874V92.6138C575.078 96.5838 575.297 97.7493 577.355 101.064H562.44L562.13 97.0391ZM562.458 81.9969V74.9494C560.346 76.0056 557.305 77.1529 552.461 77.8995C546.669 78.7372 540.878 79.9027 540.878 85.1656C540.878 88.6439 543.191 91.594 549.51 91.594C555.301 91.5758 562.458 88.6257 562.458 81.9969ZM654.404 102.648C642.404 102.648 635.247 95.1451 635.247 86.2947C635.247 74.8219 643.988 70.2874 653.986 68.5027C661.889 67.0277 666.824 65.7711 670.193 64.6056C670.193 60.5993 669.028 56.7022 661.142 56.7022C651.564 56.7022 650.507 61.8558 650.507 64.6056L637.669 63.8772C637.887 60.399 638.616 46.8501 660.724 46.8501C676.203 46.8501 682.831 52.6229 682.831 61.874V92.6138C682.831 96.5838 683.05 97.7493 685.108 101.064H670.193L669.884 97.0391C666.405 99.7889 660.833 102.648 654.404 102.648ZM657.245 91.5758C663.036 91.5758 670.193 88.6257 670.193 81.9969V74.9494C668.081 76.0056 665.04 77.1529 660.195 77.8995C654.404 78.7372 648.613 79.9027 648.613 85.1656C648.613 88.6257 650.926 91.5758 657.245 91.5758ZM626.014 26.7454H613.175V39.1652H626.014V26.7454ZM626.014 48.4345H613.175V101.064H626.014V48.4345ZM313.444 26.7454L338.611 101.064H323.66L319.344 86.5314H291.555L287.239 101.064H272.288L297.455 26.7454H313.444ZM315.647 74.3302L305.431 40.4581L295.215 74.3302H315.647ZM320.492 169.846L337.027 200.167H321.129L306.487 172.577H293.958V200.167H280.173V125.849H310.603C325.245 125.849 335.133 135.427 335.133 149.431C335.133 156.588 332.274 165.967 320.492 169.846ZM321.02 149.541C321.02 141.692 315.538 138.268 306.597 138.268H293.958V161.014H304.703C314.701 161.014 321.02 158.118 321.02 149.541ZM511.049 188.694C494.514 188.694 490.416 172.505 490.416 162.489C490.416 146.099 499.048 136.902 511.158 136.902C519.372 136.902 526.219 142.548 527.056 150.579L540.842 147.028C537.692 136.484 529.788 124.264 510.63 124.264C484.735 124.264 475.356 145.88 475.356 162.27C475.356 189.841 492.511 201.751 510.102 201.751C531.482 201.751 539.786 185.562 542.208 179.297L529.041 173.87C526.856 181.391 520.646 188.694 511.049 188.694Z" fill="black"/>
<path d="M224.43 76.297H150.13V1.97876H75.7933V76.297H1.4751V150.615H75.7933V224.933H150.13V150.615H224.43V76.297Z" fill="#E42313"/>
</svg>
