<svg viewBox="0 0 487 487" fill="none" xmlns="http://www.w3.org/2000/svg">
<path fill-rule="evenodd" clip-rule="evenodd" d="M0 0H487V487H0V0Z" />
<path d="M243.5 465.515L235.435 456.669C227.09 448.046 216.423 441.331 204.544 435.548C192.369 429.62 178.922 424.676 165.385 419.701C138.117 409.674 110.505 399.52 89.2515 380.993C67.6878 362.195 53.173 335.278 53.0997 292.279L53.0972 292.176C52.4403 263.669 56.7151 235.327 61.0153 206.85H61.0178L61.0254 206.802V206.78C64.0572 186.694 67.1041 166.532 68.3143 146.305C69.5069 126.394 68.8929 106.558 64.661 86.9524C64.2524 85.0685 63.7975 83.1949 63.2967 81.3334C62.8032 79.4936 62.275 77.6632 61.7126 75.8433C61.1411 74.0112 60.5473 72.186 59.9314 70.3684C59.7571 69.8454 58.8576 67.2557 57.8596 64.3704C57.1169 62.2305 56.5358 60.2648 56.2831 58.2613C55.9774 55.8232 56.182 53.509 57.1674 51.1593C58.6858 47.5338 61.0683 45.1058 64.6408 43.9587C67.6196 43.0037 71.1567 43.1528 75.4795 44.4843C78.7084 45.4772 81.7529 46.6217 84.7998 47.7637L84.8049 47.7485C84.8024 47.746 84.7998 47.746 84.8049 47.7485L84.9135 47.7915L84.9186 47.794L84.916 47.8016L84.911 47.799L84.916 47.8016L84.9135 47.8091L85.1131 47.8875L84.9236 47.8066C88.1576 49.0193 91.3965 50.2346 94.8705 51.1795L94.8781 51.182H94.8806L94.8882 51.1846C97.1719 51.8089 99.4654 52.3968 101.768 52.9481C107.371 54.3102 113.027 55.4406 118.723 56.3361C118.531 56.3058 118.238 56.2578 118.749 56.3311H118.814C120.477 56.5862 121.53 56.7454 121.972 56.806C122.614 56.8945 123.683 57.0259 125.143 57.2002C130.492 57.8369 135.848 58.2335 141.207 58.3902H141.262C146.391 58.5392 151.487 58.4407 156.545 58.1021C161.445 57.7853 166.327 57.2246 171.171 56.422C193.945 52.5969 214.374 43.4863 232.416 29.8078C236.123 26.9983 239.829 24.3682 243.49 21.4829C247.148 24.3682 250.855 26.9983 254.561 29.8078C272.603 43.4863 293.037 52.5969 315.809 56.422C320.422 57.1951 325.298 57.7585 330.435 58.1021C335.493 58.4407 340.586 58.5367 345.718 58.3902H345.771C351.139 58.2342 356.499 57.8372 361.832 57.2002C363.297 57.0259 364.363 56.8919 365.005 56.806C365.45 56.7454 366.506 56.5862 368.168 56.3311H368.231C368.744 56.2578 368.449 56.3058 368.257 56.3361C373.952 55.4396 379.609 54.3093 385.212 52.9481C387.515 52.3969 389.81 51.8089 392.094 51.1846L392.099 51.182H392.104L392.114 51.1795C395.583 50.2346 398.825 49.0193 402.059 47.8066C401.996 47.8333 401.934 47.8602 401.872 47.8875L402.069 47.8091V47.8016L402.074 47.799L402.069 47.8016L402.064 47.794L402.069 47.7915L402.183 47.7485C402.188 47.746 402.188 47.7485 402.183 47.7485L402.188 47.7637C405.232 46.6192 408.277 45.4772 411.508 44.4843C415.831 43.1528 419.368 43.0063 422.344 43.9587C425.917 45.1033 428.299 47.5338 429.82 51.1593C430.803 53.509 431.01 55.8232 430.704 58.2613C430.452 60.2623 429.871 62.2305 429.125 64.3704C428.127 67.2557 427.23 69.8454 427.054 70.3684C426.417 72.2582 425.816 74.0975 425.272 75.8433C424.754 77.5209 424.226 79.3299 423.688 81.3334C423.189 83.195 422.734 85.0686 422.326 86.9524C418.092 106.558 417.481 126.394 418.676 146.305C419.886 166.532 422.93 186.691 425.965 206.78V206.802L425.97 206.85H425.975C430.272 235.327 434.552 263.669 433.89 292.176V292.279C433.817 335.281 419.305 362.195 397.738 380.993C376.485 399.52 348.871 409.676 321.602 419.701C308.068 424.679 294.619 429.623 282.446 435.548C270.569 441.331 259.9 448.046 251.555 456.669L243.5 465.515V465.515Z" fill="#CC2229"/>
<path d="M243.5 456.644L247.535 452.746C265.273 434.413 292.292 424.479 319.674 414.408C373.269 394.702 428.211 374.495 428.261 292.06C428.913 263.97 424.663 235.86 420.401 207.611C414.272 167.043 408.105 126.184 416.834 85.7599C417.698 81.7554 418.754 77.9302 419.914 74.1859C421.005 70.6615 422.39 66.6393 423.812 62.5387C425.075 58.8955 425.765 56.0178 424.636 53.317C422.913 49.2038 419.532 47.9001 413.178 49.8582C410.01 50.8334 407.049 51.9451 404.093 53.0567C400.659 54.3453 397.228 55.6363 393.608 56.6191L393.597 56.6216C385.536 58.8365 377.357 60.5969 369.098 61.8945C361.43 63.0837 353.696 63.7967 345.94 64.0294C308.032 65.136 275.379 53.6454 248.141 31.9301L243.505 28.4384L238.866 31.9301C211.628 53.6454 178.978 65.1385 141.07 64.0294C133.315 63.7981 125.582 63.0851 117.915 61.8945C110.075 60.6843 101.909 58.9309 93.4127 56.6216L93.4051 56.6191C89.7846 55.6338 86.3511 54.3453 82.9226 53.0567C79.964 51.9451 77.0055 50.8359 73.8373 49.8582C67.4806 47.9001 64.1001 49.2038 62.377 53.317C61.2451 56.0203 61.9399 58.8955 63.2032 62.5387C64.6231 66.6418 66.0101 70.664 67.1016 74.1859C68.2981 77.9967 69.3257 81.8584 70.1814 85.7599C78.9105 126.187 72.7408 167.045 66.6114 207.611C62.3467 235.86 58.0996 263.97 58.7489 292.06C58.7995 374.495 113.743 394.702 167.336 414.408C194.721 424.479 221.734 434.413 239.478 452.746L243.5 456.644ZM243.5 448.824C190.367 393.926 64.3805 413.029 64.3805 291.948C62.804 223.73 90.7244 154.254 75.6791 84.5674C73.9131 76.384 71.2653 68.6099 68.524 60.7045C66.8262 55.8106 66.4523 53.4686 72.1748 55.2295C78.8296 57.2811 85.151 60.2169 91.9195 62.0587C153.215 78.7337 203.887 67.5589 243.497 35.4141C283.111 67.5614 333.777 78.7337 395.075 62.0587C401.846 60.2169 408.168 57.2811 414.823 55.2295C420.543 53.4686 420.166 55.8106 418.468 60.7045C415.73 68.6099 413.079 76.384 411.313 84.5674C396.268 154.254 424.188 223.73 422.614 291.948C422.617 413.031 296.632 393.926 243.5 448.824V448.824Z" fill="#E5E5E5"/>
<path fill-rule="evenodd" clip-rule="evenodd" d="M326.299 464.923C317.875 464.923 310.766 458.372 310.766 449.395C310.766 440.411 317.875 433.865 326.299 433.865C334.53 433.865 341.64 440.414 341.64 449.395C341.642 458.372 334.53 464.923 326.299 464.923ZM313.762 449.393C313.762 456.876 319.189 462.301 326.301 462.301C333.224 462.301 338.648 456.876 338.648 449.393C338.648 442.094 333.227 436.482 326.301 436.482C319.189 436.482 313.762 442.094 313.762 449.393V449.393ZM322.928 450.702V458.372H320.308V440.411H327.044C331.16 440.411 333.221 442.096 333.221 445.651C333.221 448.832 331.347 450.141 328.732 450.517L333.78 458.372H330.788L326.109 450.702H322.928V450.702ZM322.928 448.269H326.112C328.545 448.269 330.415 448.082 330.415 445.464C330.415 443.218 328.545 442.844 326.67 442.844H322.931V448.269H322.928V448.269Z" fill="#CC2229"/>
<path fill-rule="evenodd" clip-rule="evenodd" d="M183.751 110.848L170.024 118.799C172.983 123.084 173.147 122.834 173.147 128.357C173.288 142.98 173.005 158.314 173.147 172.937C173.094 176.57 173.536 180.38 172.065 185.072L186.939 176.457C183.627 173.983 183.748 171.598 183.748 168.49C183.518 162.106 183.978 151.126 183.748 144.741L198.058 136.247L198.412 157.892C198.589 161.692 198.809 165.908 196.732 170.785C201.277 168.081 206.636 165.161 211.181 162.457C208.222 160.262 208.483 156.613 208.483 151.78C208.445 133.68 208.523 114.618 208.483 96.5177L195.479 104.049C198.084 108.365 198.058 110.686 198.058 115.52C198 119.716 198.116 124.264 198.058 128.46C193.447 131.179 188.359 133.897 183.748 136.619C183.786 127.988 183.715 119.476 183.751 110.848V110.848ZM308.249 144.784L294.541 152.725C297.269 156.975 297.901 160.145 297.646 164.968C297.646 180.496 297.641 196.022 297.636 211.545C297.671 217.378 297.729 223.207 296.713 229.569L312.256 220.729C309.03 217.912 307.593 212.533 307.979 207.699L307.398 157.283C307.426 152.604 307.711 148.438 308.249 144.784V144.784ZM321.996 165.537C322.405 147.394 325.94 139.895 330.829 139.895C336.332 139.895 339.929 149.84 339.194 182.46C338.893 195.719 335.359 203.217 331.541 203.217C325.579 203.215 321.43 190.656 321.996 165.537V165.537ZM349.985 173.427C350.68 139.221 341.092 131.679 332.029 131.679C318.76 131.679 311.766 145.009 311.294 168.341C310.725 196.057 316.425 213.073 329.187 213.073C342.456 213.071 349.522 196.057 349.985 173.427V173.427ZM257.547 174.16C257.464 182.027 257.765 185.572 257.681 193.437C258.768 194.107 260.167 192.01 260.839 188.03C263.899 177.316 263.538 177.98 268.502 175.188L269.604 232.199C269.5 239.751 268.854 242.628 267.57 246.14C272.573 243.151 278.05 240.324 283.055 237.335C280.109 236.236 278.477 235.852 278.477 228.313L277.684 170.312C283.058 166.762 284.917 168.415 289.002 178.084C290.503 180.656 292.037 182.429 292.471 180.532C290.758 166.858 291.036 163.076 289.816 155.466L257.547 174.16V174.16ZM357.635 116.171L347.271 122.174C352.274 124.59 354.924 126.351 354.924 138.481C354.692 157.351 354.406 178.015 354.179 196.886C357.688 194.986 362.448 192.083 365.957 190.183C362.852 185.178 362.307 185.782 362.307 177.669C362.478 165.704 362.13 153.086 362.302 141.121C368.115 152.912 377.307 172.642 383.115 184.433C383.918 184.205 385.508 183.973 386.314 183.743C384.275 166.767 383.294 144.612 384.517 125.888C385.207 115.381 389.057 97.9654 377.931 93.5567L370.806 98.7562C377.506 102.523 378.059 108.193 377.423 115.115L374.694 144.721C372.221 140.78 368.999 132.874 365.793 126.717C363.295 121.927 360.877 117.849 357.635 116.171V116.171ZM96.9043 325.124C97.3591 320.657 94.5193 316.021 88.822 316.021C82.6093 316.021 77.2961 321.018 76.8767 328.828C76.4649 336.46 83.6326 347.281 95.5426 347.281C111.46 347.281 120.393 333.133 121.081 320.354C122.561 291.701 88.9307 289.083 89.8958 271.155C90.2015 265.476 95.3101 262.507 100.141 262.507C104.55 262.378 109.158 265.589 109.767 270.455C110.325 274.321 105.232 276.673 108.579 278.083C110.052 278.313 111.485 278.29 112.897 278.823C115.072 279.642 118.061 283.646 117.776 279.01C117.518 274.834 117.498 270.769 117.819 266.767C118.023 264.2 118.372 261.661 118.888 259.126C119.337 256.913 119.815 253.806 118.286 253.131C117.591 252.825 116.487 252.747 114.784 253.998C113.665 254.821 112.354 255.349 111.012 255.397C107.066 255.539 103.835 253.525 99.537 253.525C87.1091 253.525 79.0571 263.444 78.5114 273.565C77.3062 295.933 111.338 302.888 110.108 322.893C109.696 330.526 104.249 337.678 97.5183 337.678C87.7508 337.676 85.717 323.075 96.9043 325.124V325.124ZM181.267 218.351L165.186 227.669C167.604 232.502 169.011 237.282 169.011 244.013L170.062 301.595L197.272 286.12C196.583 281.117 196.565 280.281 196.565 278.384C196.365 275.968 196.365 269.965 197.055 264.96L192.338 269.647C189.751 283.28 188.541 284.778 181.032 287.307L181.267 218.351ZM202.002 206.338L190.158 213.2C192.745 216.825 194.405 218.462 196.302 225.365L204.933 260.054C206.143 263.851 207.404 269.301 207.318 280.402L213.232 276.777L229.501 190.403L217.525 197.343C218.215 200.969 218.768 204.645 218.164 207.747L211.835 247.11L202.002 206.338V206.338ZM137.366 310.384L139.266 295.165L150.259 290.228L152.414 303.138C152.932 306.509 152.424 308.879 151.909 311.918L167.768 302.901C164.097 299.162 162.594 298.121 160.767 290.132C156.762 270.89 152.028 252.378 148.023 233.136C144.863 236.691 143.554 239.637 142.432 244.968L125.762 326.789L140.772 318.252C137.609 315.538 137.245 313.406 137.366 310.384V310.384ZM139.994 287.049L145.148 261.365L148.905 282.661L139.994 287.049ZM234.799 254.718L236.888 239.263L247.74 234.832L249.728 248.328C250.203 251.752 250.079 253.316 249.521 256.4L265.006 247.595C261.378 243.798 259.591 242.846 257.866 234.736C254.101 215.198 250.178 195.82 246.413 176.282C243.204 179.893 241.863 182.884 240.673 188.296L222.853 271.57L238.083 262.909C234.955 260.157 234.64 257.787 234.799 254.718V254.718ZM237.702 231.997L242.987 205.724L246.671 227.54L237.702 231.997ZM254.788 329.272L254.276 298.836C256.337 297.226 258.525 296.473 260.354 296.435C265.857 296.309 269.414 302.155 269.414 309.551C269.414 323.972 262.209 328.755 254.788 329.272ZM206.765 382.486L208.905 368.113L219.978 363.037L221.926 375.035C222.437 378.502 222.136 381.089 221.605 384.211L237.689 375.065C234.008 371.223 232.181 369.879 230.37 361.667C226.398 341.89 221.689 322.863 217.717 303.083C214.526 306.733 212.838 309.401 211.691 314.881L194.915 399.388L210.117 390.742C206.941 387.953 206.633 385.591 206.765 382.486V382.486ZM209.66 359.77L214.741 332.102L218.639 355.26L209.66 359.77ZM348.146 237.783L334.679 245.688C336.092 246.951 337.65 248.197 338.636 249.829C343.636 258.093 348.156 266.514 352.698 275.041L353.398 296.531C353.398 302.744 353.216 303.954 352.011 312.062L366.203 304.412C363.618 298.196 363.277 298.176 363.277 292.656L362.878 271.345C365.566 266.954 374.118 254.586 378.193 242.424C382.304 230.178 381.9 219.412 372.478 215.496L364.189 217.952C371.814 222.596 371.971 228.669 370.452 235.83C368.62 244.47 363.671 255.152 358.911 263.303L352.817 251.673C350.144 246.577 348.575 244.895 348.146 237.783V237.783ZM291.739 271.193L282.176 275.506C285.281 281.203 286.256 283.151 286.256 289.364L286.37 344.679C286.37 346.579 286.302 347.572 286.302 349.469L298.997 342.314C296.228 338.787 295.933 336.743 295.933 329.149L295.819 297.383L307.494 311.706L316.632 290.377L316.054 332.256L328.843 325.273C328.123 320.377 328.04 319.31 328.04 314.998L326.026 266.931C326.026 258.303 324.737 256.87 326.637 250.14L315.94 255.665L305.88 291.319L291.739 271.193V271.193ZM238.348 298.659C242.343 302.155 243.97 304.899 243.97 313.699L243.99 371.478L257.32 366.736C254.627 362.577 254.202 360.394 254.202 352.974L254.369 338.133C254.602 338.578 255.006 339.662 255.607 341.185C258.626 348.886 266.277 367.433 280.195 370.642C285.243 371.804 288.09 370.637 291.782 366.455C275.556 364.04 271.234 353.898 265.574 332.762C275.188 327.069 282.292 311.675 278.621 300.427C275.592 291.147 267.734 288.121 259.523 288.639C251.63 289.136 242.929 293.032 238.348 298.659V298.659ZM125.737 136.378C125.646 144.122 125.532 151.611 125.441 159.352C126.588 160.011 128.064 157.947 128.776 154.031C129.984 141.606 132.058 140.244 138.498 135.239L139.66 191.348C139.552 197.651 139.347 200.484 137.993 204.817C143.271 201.873 148.225 198.773 153.503 195.832C150.396 194.751 148.872 194.372 148.872 186.952L149.044 130.618C152.495 130.509 155.375 129.456 160.489 138.784C162.073 141.315 163.693 142.682 164.15 140.818C161.588 128.064 161.434 124.054 160.489 116.242L125.737 136.378V136.378ZM251.853 71.3916L216.931 91.6214C221.247 96.6264 223.149 99.6456 223.149 104.651C223.149 116.558 223.68 128.465 223.68 140.373C223.68 148.483 223.634 150.085 221.734 156.298L258.472 135.704L259.725 120.424C250.893 133.759 244.662 136.53 233.397 143.316V116.227C238.293 110.588 247.947 111.384 254.92 109.405C260.013 107.96 263.689 104.774 263.689 97.1165C253.904 103.574 245.989 101.336 239.152 105.876C237.191 107.177 235.094 109.095 233.399 110.929V94.6153C233.399 87.8746 236.777 87.6674 240.145 85.5173C244.874 83.251 249.278 85.8988 252.762 89.7846L251.853 71.3916Z" fill="#E5E5E5"/>
</svg>
