<svg viewBox="0 0 1059 642" fill="none" xmlns="http://www.w3.org/2000/svg">
<path d="M400.725 554.934C388.446 554.934 374.76 561.995 372.074 575.991L367.47 599.744C364.784 613.74 375.783 620.802 387.806 620.802C399.829 620.802 413.515 613.74 416.073 599.744L420.678 575.991C423.748 561.995 412.748 554.934 400.725 554.934ZM411.085 575.991L406.481 599.744C404.818 607.833 396.504 611.172 389.853 611.172C382.818 611.172 375.911 607.448 377.19 599.744L381.795 575.991C383.458 567.902 391.772 564.563 398.806 564.563C405.713 564.692 412.748 568.287 411.085 575.991ZM462.119 556.603C453.421 556.988 444.852 558.914 436.41 561.995L425.027 620.16H434.747L444.724 568.929C449.712 567.26 455.084 566.233 460.072 566.233C467.107 566.233 473.374 569.956 472.095 577.66L463.781 620.16H473.502L481.816 577.66C484.374 563.279 473.758 556.988 462.119 556.603ZM303.134 556.603C299.425 555.961 295.844 555.961 292.134 556.603C281.135 558.272 272.437 566.361 270.135 577.403L261.821 620.16H271.542L279.856 577.403C281.518 571.754 286.251 567.645 291.879 566.361C294.82 565.719 298.274 565.719 301.599 566.746L303.134 556.603ZM123.173 555.319C110.894 555.319 97.2087 562.381 94.5227 576.376L89.9181 600.515C87.2322 614.51 98.2319 621.572 110.255 621.572C120.615 621.572 130.208 616.179 136.219 607.577L128.161 603.211C124.452 608.604 118.441 611.942 112.173 611.942C104.883 611.942 98.2319 608.219 99.8947 600.515L101.174 593.453H140.184L143.51 576.376C146.196 562.252 135.196 555.319 123.173 555.319ZM134.173 575.991L132.51 584.979H102.836L104.499 576.248C105.778 568.544 113.836 564.82 121.51 564.82C128.545 564.949 135.452 568.672 134.173 575.991ZM343.424 607.833C338.436 609.888 332.808 610.786 327.436 610.786C320.145 610.786 313.494 607.063 314.773 599.359L323.087 556.603H313.111L304.797 599.102C302.111 613.098 313.111 621.187 325.517 620.802C331.145 621.187 336.517 619.774 341.505 616.821L340.866 620.545C339.203 628.634 330.889 632.614 322.831 632.614C317.204 632.999 312.215 630.56 308.506 626.194L300.448 632.229C305.436 638.649 313.494 642.244 321.424 641.987C334.087 641.987 347.389 635.31 350.075 620.545L362.354 556.346H352.633L343.424 607.833ZM198.125 556.603L170.498 607.448L162.44 556.603H152.079L162.056 620.16H173.695L208.357 556.603H198.125ZM238.798 555.319C226.52 555.319 212.834 562.381 210.148 576.376L205.543 600.386C202.857 614.382 213.857 621.443 225.88 621.443C236.24 621.443 245.833 616.051 251.845 607.448L243.787 603.083C240.077 608.475 234.066 611.814 227.799 611.814C220.508 611.814 213.857 608.09 215.52 600.386L216.799 593.324H255.426L258.751 576.248C261.437 562.252 250.438 555.319 238.798 555.319ZM249.414 575.991L247.752 584.979H218.206L219.869 576.248C221.148 568.544 229.206 564.82 236.88 564.82C244.17 564.949 250.821 568.672 249.414 575.991ZM599.999 565.334C604.604 564.949 608.952 567.388 611.638 570.983L619.313 563.665C614.964 558.657 608.313 555.961 601.662 555.961C591.302 555.961 577.616 560.968 575.058 574.322C572.372 588.06 583.755 591.013 593.732 593.068C599.36 594.095 605.755 595.764 604.348 602.826C603.325 609.246 596.674 612.199 590.662 612.199C584.011 612.841 577.36 609.246 574.29 603.468L565.977 608.09C570.325 617.848 579.023 621.443 588.616 621.443C599.615 621.058 610.999 615.794 613.557 603.083C615.859 590.371 606.522 585.749 596.929 583.951C591.558 582.924 583.244 581.255 584.267 574.578C586.441 567.003 594.371 565.334 599.999 565.334ZM855.935 620.16H865.656L877.935 556.218H868.214L855.935 620.16ZM877.295 533.491C873.33 533.491 870.004 536.444 868.981 540.553C868.342 543.506 870.004 546.588 872.946 547.23C873.586 547.23 873.969 547.615 874.609 547.615C878.574 547.615 881.9 544.662 882.667 540.938C883.307 537.985 882.027 535.289 878.958 534.262C878.702 533.491 877.935 533.491 877.295 533.491ZM906.585 534.518H896.864L884.202 600.13C881.516 613.226 887.911 620.93 901.469 620.93L903.515 611.172C895.457 611.172 892.516 607.191 893.795 600.13L906.585 534.518ZM523.001 555.319C510.722 555.319 497.036 562.381 494.35 576.376L489.746 600.515C487.06 614.51 498.06 621.572 510.083 621.572C520.443 621.572 530.036 616.179 536.047 607.577L527.989 603.211C524.28 608.604 518.269 611.942 512.001 611.942C504.711 611.942 498.06 608.219 499.722 600.515L501.001 593.453H539.629L542.954 576.376C545.768 562.252 535.024 555.319 523.001 555.319ZM533.745 575.991L532.082 584.979H502.408L504.071 576.248C505.35 568.544 513.408 564.82 521.082 564.82C528.373 564.949 535.408 568.672 533.745 575.991ZM953.654 607.833C948.665 609.888 943.038 610.786 937.666 610.786C930.375 610.786 923.724 607.063 925.003 599.359L933.317 556.603H923.34L915.027 599.102C912.341 613.098 923.34 621.187 935.747 620.802C941.375 621.187 946.747 619.774 951.735 616.821L951.096 620.545C949.433 628.634 941.119 632.614 933.061 632.614C927.433 632.999 922.445 630.56 918.736 626.194L910.678 632.229C915.666 638.649 923.724 642.244 931.654 641.987C944.317 641.987 957.619 635.31 960.305 620.545L972.583 556.346H962.863L953.654 607.833ZM829.331 556.988C822.68 557.373 816.029 559.684 810.657 564.05C806.308 559.042 799.657 556.346 793.006 556.731C784.948 557.116 777.402 559.042 770.367 562.381L758.984 620.288H768.704L778.681 569.057C786.355 564.435 805.669 565.077 803.367 576.119L794.669 620.673H804.39L813.087 576.119C814.366 570.085 822.04 567.131 827.796 566.746C835.087 566.746 841.482 569.443 839.435 578.174L831.377 620.288H841.098L849.412 578.174C852.354 563.279 842.377 556.603 829.331 556.988ZM567.384 536.573L553.442 566.361H563.419L579.023 536.573H567.384ZM734.298 555.576C725.345 555.961 716.648 559.299 709.997 565.591L715.369 572.01C719.717 567.645 725.729 565.334 731.74 564.949C739.415 564.949 746.066 568.672 744.403 575.991L743.124 582.667C739.159 580.356 734.81 578.944 730.078 578.944C717.415 578.944 704.113 584.337 701.043 599.359C698.357 613.098 706.671 621.058 719.334 621.443C728.287 621.443 737.624 620.159 746.321 617.078L754.379 575.991C757.065 562.252 746.321 555.576 734.298 555.576ZM737.624 611.429C732.252 612.456 726.624 612.712 721.252 612.712C715.624 613.098 710.636 608.989 710.252 603.339C710.252 602.056 710.252 600.643 710.636 599.359C712.683 590.371 719.973 588.317 727.903 588.317C732.508 588.317 737.24 589.344 741.589 591.013L737.624 611.429ZM687.358 553.906C688.637 546.588 694.648 542.222 703.346 542.222L705.392 532.464C692.09 532.464 680.451 539.526 677.765 553.521L665.102 619.774H674.823L683.52 575.22H696.567L698.613 565.462H685.567L687.358 553.906ZM360.819 425.766V301.734C359.796 273.615 346.877 252.173 326.157 236.508C301.215 217.762 270.519 211.727 243.531 211.727C204.904 212.113 167.172 222.384 133.533 241.516C121.255 246.908 109.232 232.143 123.557 221.742C154.51 199.273 186.23 192.339 204.904 186.947C210.276 185.277 208.229 180.27 204.264 180.527C164.87 183.608 126.882 196.32 93.1157 216.992C80.0695 225.081 66.7675 208.646 80.0695 198.246C103.732 179.885 142.998 160.112 197.357 148.427C199.02 148.427 200.299 146.758 200.299 145.089C200.299 143.42 198.637 142.136 196.974 142.136C196.59 142.136 196.59 142.136 196.334 142.136C146.068 144.19 96.6971 166.275 70.3488 179.243C56.0236 186.305 46.3029 169.87 59.7328 159.855C87.7438 138.798 139.033 117.098 195.695 109.395C197.357 109.395 198.381 108.111 198.381 106.441C198.381 105.157 197.102 103.745 195.695 103.745C159.37 101.049 106.674 116.071 81.0928 127.499C67.407 133.533 58.4538 118.511 71.7558 109.138C96.6971 91.0338 153.742 72.6729 211.043 71.389C212.706 71.0038 213.729 69.7198 213.345 68.4358C213.345 67.4086 212.322 66.3815 211.299 66.1247C205.927 63.4283 194.288 65.0975 178.3 60.732C153.103 53.7985 153.87 23.3683 165.126 27.9906C194.799 40.06 238.415 48.4058 258.112 55.4677C293.413 68.5642 333.064 91.2906 360.435 132.121V0H93.8832C58.8375 0 30.5707 28.3758 30.5707 63.9419V145.859V182.966C30.5707 212.755 43.8727 234.839 65.2327 251.274C90.174 270.02 120.871 276.054 147.859 276.054C186.486 275.669 224.217 265.397 257.856 246.266C270.135 240.874 282.158 255.639 267.833 266.039C236.88 288.509 205.16 295.442 186.486 300.835C181.114 302.504 183.16 307.512 187.125 307.255C226.392 304.302 264.379 291.591 298.146 270.79C311.192 262.444 324.494 279.136 311.192 289.536C287.53 307.897 248.263 327.67 193.904 339.354C192.241 339.354 190.962 341.024 190.962 342.693C190.962 344.362 192.625 345.646 194.288 345.646C194.671 345.646 194.671 345.646 194.927 345.646C245.577 342.95 294.564 321.25 320.913 307.897C335.238 300.835 344.959 317.27 331.529 327.285C303.518 348.342 252.228 370.041 195.567 377.745C193.904 377.745 192.881 379.029 192.881 380.442C192.881 382.111 194.16 383.138 195.567 383.138C231.892 385.834 284.588 370.812 310.169 358.999C323.855 352.965 332.808 367.987 319.506 377.36C294.564 395.464 237.519 414.21 180.218 415.109C178.556 415.494 177.532 416.778 177.916 418.447C177.916 419.474 178.939 420.502 179.963 420.758C185.335 423.455 196.974 421.785 212.962 426.151C238.287 432.828 237.647 463.258 226.264 458.636C196.59 446.566 152.975 438.22 133.278 431.159C97.9761 418.062 58.3259 395.336 30.9544 354.248V487.782H297.89C331.401 487.397 359.412 460.305 360.819 425.766ZM381.411 0V127.113C387.039 136.486 392.027 145.859 396.376 155.874C406.353 179.628 411.725 205.051 412.364 230.859V231.501C414.027 272.588 403.411 313.161 381.411 347.957V425.894V426.279C380.772 449.648 370.412 471.475 352.761 486.883H995.222C1029.24 486.883 1057.51 459.791 1058.53 425.637V0H381.411Z" fill="#003767"/>
<path d="M393.364 234.709C392.721 210.938 387.965 187.809 378.967 166.094C374.339 155.429 368.94 145.021 362.256 135.255C334.747 94.1375 294.898 71.6512 259.42 58.5449C239.624 51.2208 195.79 43.1257 165.967 31.0473C154.27 26.4216 153.884 56.8745 179.336 63.5561C195.018 67.5394 207.102 66.2545 212.501 68.9528C213.786 69.3383 214.814 71.0087 214.172 72.6791C213.786 73.7071 212.886 74.3496 211.858 74.735C154.527 75.763 96.9384 94.523 71.8721 112.512C58.7604 121.892 67.8872 136.926 81.2559 130.887C107.093 119.451 159.926 104.417 196.432 107.115C198.103 107.115 199.132 108.4 199.132 109.814C199.132 111.099 197.846 112.512 196.432 112.512C139.487 118.937 87.9402 140.909 59.7888 162.11C46.4201 172.133 56.4466 188.58 70.4581 181.513C96.9384 168.15 146.171 146.306 197.075 144.378C198.746 143.993 200.417 145.021 200.803 146.691C201.189 148.362 200.16 150.032 198.489 150.418C198.103 150.418 198.103 150.418 197.846 150.418C143.215 162.11 103.751 181.898 79.9704 200.273C66.6017 210.681 79.9704 227.385 93.082 219.033C126.889 197.96 165.067 185.496 204.659 182.541C209.03 182.155 210.701 187.552 205.302 188.966C186.534 194.619 154.784 201.301 123.547 223.787C109.15 234.195 121.233 248.844 133.574 243.575C167.381 224.43 205.302 214.407 244.123 213.765C271.631 213.379 302.097 219.419 327.163 238.564C347.987 254.24 360.97 275.442 361.999 303.839C361.999 304.867 361.999 305.895 361.999 306.794V343.929C384.366 311.677 395.42 273.514 393.364 234.709Z" fill="#E31837"/>
<path d="M132.559 430.609C152.362 437.931 195.394 446.022 225.224 458.096C236.775 462.72 237.156 432.279 212.023 425.6C196.536 421.619 184.604 422.903 179.273 420.206C178.003 419.82 176.988 418.151 177.622 416.481C178.003 415.453 178.892 414.811 179.907 414.426C236.522 413.398 293.009 394.646 318.143 376.664C331.09 367.288 322.078 352.261 308.876 358.297C283.362 369.729 231.19 384.756 195.14 382.444C193.49 382.444 192.474 381.16 192.474 379.747C192.474 378.077 193.743 377.05 195.14 377.05C251.754 369.343 302.276 347.637 330.075 326.573C343.276 316.554 333.375 300.114 319.539 307.178C293.39 320.279 244.773 342.371 194.505 344.297C192.855 344.683 191.205 343.655 190.824 341.985C190.443 340.316 191.459 338.646 193.109 338.261C193.49 338.261 193.49 338.261 193.744 338.261C247.692 326.573 286.662 306.793 310.146 288.426C323.347 278.022 310.146 261.325 297.198 269.673C263.813 290.481 226.113 303.196 187.016 306.15C182.7 306.536 181.05 301.141 186.381 299.728C204.914 294.077 236.268 287.398 267.114 264.921C281.331 254.517 269.399 239.875 257.213 245.141C223.828 264.279 186.381 274.297 148.046 274.939C120.881 275.325 90.7968 269.416 66.0439 250.279C44.2105 234.224 31.009 212.132 31.009 182.334V145.214C9.42953 176.939 -1.48713 215.471 0.163062 254.004C0.797752 277.765 5.49445 300.884 14.3801 322.591C18.696 333.251 24.2813 343.655 30.6282 353.417C58.0468 394.903 97.7784 417.637 132.559 430.609Z" fill="#E31837"/>
<path d="M738.193 287.706C737.554 287.706 737.17 287.706 736.531 287.706C728.861 287.706 721.574 290.637 715.566 295.735C709.174 290.127 700.864 287.451 692.299 287.451C682.966 287.833 673.634 290.127 665.325 294.715L664.685 295.097V367.1H679.643V304.273C683.35 302.234 687.697 301.342 691.915 301.597C699.586 301.597 708.534 304.273 708.534 311.919V367.1H723.236V311.919C723.236 305.547 731.545 302.616 737.17 302.234H737.81C742.156 301.852 746.503 303.253 749.827 306.184C751.872 308.478 753.15 311.537 752.767 314.85V367.355H767.852V314.595C767.852 298.411 756.218 287.706 738.193 287.706ZM536.718 274.452H591.689V259.16H521.377V367.1H536.718V323.898H581.973V308.351H536.718V274.452ZM619.686 286.049C609.075 286.049 598.72 290.637 591.433 298.666L590.411 299.685L600.766 309.625L601.788 308.351C606.135 303.381 612.399 300.322 618.791 300.705C627.101 300.705 635.41 304.4 635.41 312.302V317.654C630.808 315.36 625.439 314.341 620.069 314.341C600.126 314.341 588.11 324.026 588.11 340.593C588.11 356.905 600.127 368.502 617.129 368.502H618.408C629.018 368.502 639.373 366.845 649.345 363.149L650.367 362.767V312.302C650.24 294.333 634.26 286.049 619.686 286.049ZM635.282 353.846C630.297 354.866 625.311 355.121 620.325 355.121C619.302 355.121 618.28 355.121 617.385 355.121C609.714 355.503 603.067 349.514 602.683 341.867C602.683 341.485 602.683 341.23 602.683 340.593C602.683 332.309 608.053 328.614 619.686 328.614C625.055 328.614 630.297 329.633 635.282 331.29V353.846ZM783.193 366.463H798.15V286.432H783.193V366.463ZM898.376 349.514C893.007 351.553 886.998 352.827 881.118 352.827C873.064 352.827 864.498 348.876 864.754 340.593V286.814H849.413V339.956C849.413 347.984 853.121 355.503 859.385 360.601C865.777 365.188 873.319 367.865 880.99 367.865H881.373C886.998 368.247 893.007 366.845 898.376 364.551V366.208C898.376 375.129 889.683 379.207 881.118 379.207C874.47 379.589 868.078 376.913 863.476 371.943L862.453 370.668L852.098 380.354L853.121 381.373C860.791 389.402 871.146 393.607 882.14 393.607C897.737 393.607 913.844 384.941 913.844 366.081V287.069H898.887L898.376 349.514ZM827.809 340.465V259.797H812.851V340.465C812.851 357.032 823.206 366.973 840.465 366.973H841.743V352.062H840.465C831.772 352.19 827.809 348.494 827.809 340.465ZM790.479 256.866C785.11 256.866 780.764 261.199 780.508 266.551C780.508 266.551 780.508 266.551 780.508 266.933C780.508 272.286 784.854 276.874 790.479 276.874C795.849 276.874 800.195 272.541 800.195 267.188C800.195 267.188 800.195 267.188 800.195 266.806C800.195 261.454 796.232 257.121 790.863 257.121C790.863 256.866 790.479 256.866 790.479 256.866ZM412.842 129.045H446.463V221.693H462.06V129.045H495.682V113.498H412.714V129.045H412.842ZM548.352 168.806V221.565H563.053V168.806C563.053 151.219 547.457 141.916 532.755 141.916H532.116C526.491 141.916 521.122 143.191 515.752 145.23V113.625H500.795V221.565H515.752V159.503C521.122 157.464 526.363 156.572 532.116 156.827C540.425 156.954 548.352 160.522 548.352 168.806ZM604.345 223.35C616.618 223.732 628.379 216.723 634.004 205.763L634.643 204.489L621.348 197.862L620.709 199.136C617.768 205.126 611.376 209.076 604.345 208.822C599.359 209.204 594.629 207.547 591.05 204.234C589.004 202.195 588.11 199.646 588.11 196.587V189.578H635.41V167.277C635.41 148.671 619.43 140.387 604.473 140.387C589.516 140.387 573.152 148.671 573.152 167.277V196.46C573.025 215.066 589.388 223.35 604.345 223.35ZM587.982 167.149C587.982 164.218 589.004 161.542 590.922 159.503C594.629 156.19 599.232 154.533 604.217 154.915C612.527 154.915 620.836 158.866 620.836 166.894V176.197H587.854V167.149H587.982ZM720.935 208.057C710.963 208.057 698.946 203.469 694.344 193.402L693.705 192.127L679.387 198.499L680.026 199.773C686.418 214.047 702.015 222.967 720.296 222.967C738.577 222.967 758.903 213.664 759.926 192.764C761.204 165.493 739.216 161.16 721.574 157.846C705.978 154.915 696.262 152.239 697.284 141.534C698.307 130.957 709.301 126.242 720.296 126.242C730.011 126.242 741.9 130.574 746.247 140.132L746.886 141.407L760.821 135.035L760.181 133.76C754.173 119.87 738.577 110.821 720.168 110.821C701.887 110.821 682.839 121.144 681.56 140.387C681.56 162.307 700.225 168.296 717.867 171.61C732.568 174.541 745.48 177.217 744.202 191.235C744.202 203.087 732.568 208.057 720.935 208.057ZM827.169 221.948V166.767C827.169 160.395 835.479 157.082 841.104 157.082H841.743C846.09 156.699 850.436 158.101 853.76 161.032C855.805 163.326 857.084 166.385 856.7 169.698V222.203H871.657V169.188C871.657 152.876 860.024 142.299 842.382 142.299C841.743 142.299 841.36 142.299 840.72 142.299C833.05 142.299 825.763 145.23 819.755 150.327C813.363 144.975 805.053 142.044 796.488 142.299C787.156 142.681 777.823 144.975 769.514 149.563L768.875 149.945V221.948H783.832V159.248C787.539 157.209 791.886 156.572 795.849 156.572C803.519 156.572 812.468 159.248 812.468 166.894V222.075H827.169V221.948ZM883.802 221.693H898.759V141.279H883.802V221.693ZM890.833 131.339C896.203 131.339 900.805 127.006 900.805 121.654C900.805 116.301 896.458 111.714 891.089 111.714C885.72 111.714 881.118 116.046 881.118 121.399C881.118 127.006 885.464 131.339 890.833 131.339ZM939.412 208.694C932.126 209.076 925.734 203.087 925.478 195.695C925.478 195.313 925.478 195.313 925.478 195.058V156.572H941.074V141.662H925.478V113.498H910.776V195.186C910.776 211.115 922.154 221.693 938.773 221.693C940.435 221.693 942.481 221.693 944.142 221.311L945.421 220.928V207.675L943.759 208.057C942.097 208.694 940.691 208.694 939.412 208.694ZM985.69 141.916H985.051C979.426 141.916 974.057 143.191 969.071 145.23V113.37H954.114V221.311H969.071V159.503C974.44 157.464 979.682 156.572 985.435 156.827C993.488 156.827 1001.8 160.777 1001.8 168.806V221.565H1016.5V168.806C1015.99 151.219 1000.39 141.916 985.69 141.916Z" fill="white"/>
</svg>
