<?xml version="1.0" standalone="no"?>
<!DOCTYPE svg PUBLIC "-//W3C//DTD SVG 20010904//EN"
 "http://www.w3.org/TR/2001/REC-SVG-20010904/DTD/svg10.dtd">
<svg version="1.0" xmlns="http://www.w3.org/2000/svg"
 width="200.000000pt" height="200.000000pt" viewBox="0 0 200.000000 200.000000"
 preserveAspectRatio="xMidYMid meet">

<g transform="translate(0.000000,200.000000) scale(0.100000,-0.100000)"
fill="#ff6961" stroke="none">
<path d="M472 1794 c-129 -34 -242 -116 -314 -228 -54 -84 -80 -172 -80 -277
-1 -130 33 -228 115 -338 l40 -54 13 43 c11 37 48 79 236 267 l223 223 -65 65
c-61 61 -63 66 -47 82 16 16 28 6 220 -184 226 -225 236 -231 322 -198 77 29
119 109 97 183 -17 57 -294 328 -379 371 -120 60 -263 77 -381 45z"/>
<path d="M1262 1794 c-67 -18 -147 -57 -192 -94 l-35 -29 117 -118 c122 -124
138 -149 138 -214 0 -167 -212 -275 -328 -166 l-23 21 -210 -209 c-203 -202
-239 -245 -239 -280 0 -63 68 -121 128 -111 31 5 70 39 267 236 l231 231 24
-26 24 -25 -232 -233 c-218 -219 -232 -235 -232 -270 0 -75 42 -117 117 -117
35 0 49 12 270 232 l233 232 22 -22 22 -22 -232 -233 -232 -233 0 -44 c1 -87
81 -136 158 -96 15 8 194 182 398 388 394 397 410 417 449 552 24 83 22 213
-4 297 -54 172 -199 307 -377 354 -72 19 -192 18 -262 -1z"/>
<path d="M518 1173 c-235 -237 -244 -251 -212 -318 19 -41 58 -65 106 -65 29
0 56 24 258 225 l225 225 -75 75 c-41 41 -77 75 -80 75 -3 0 -103 -98 -222
-217z"/>
</g>
</svg>
