<?xml version="1.0" encoding="UTF-8"?>
<svg xmlns="http://www.w3.org/2000/svg" xmlns:xlink="http://www.w3.org/1999/xlink" width="150px" height="150px" viewBox="0 0 150 150" version="1.1">
<g id="surface1">
<path style=" stroke:none;fill-rule:nonzero;fill:rgb(253,254,255);fill-opacity:0.7;" d="M 11.933594 48.792969 L 27.792969 64.652344 C 29.382812 66.242188 31.960938 66.242188 33.550781 64.652344 C 35.140625 63.0625 35.140625 60.484375 33.550781 58.894531 L 43.085938 68.429688 C 44.675781 70.019531 47.253906 70.019531 48.84375 68.429688 C 50.433594 66.839844 50.433594 64.261719 48.84375 62.671875 L 51.722656 65.550781 C 53.316406 67.140625 55.894531 67.140625 57.484375 65.550781 C 59.074219 63.960938 59.074219 61.382812 57.484375 59.792969 L 52.808594 55.117188 C 54.398438 56.707031 56.976562 56.707031 58.570312 55.117188 C 60.160156 53.527344 60.160156 50.949219 58.570312 49.359375 L 41.304688 32.09375 L 41.285156 32.035156 L 48.46875 33.214844 C 52.179688 33.78125 53.914062 31.71875 53.914062 29.46875 C 53.914062 27.21875 52.75 25.535156 49.570312 24.75 L 30.542969 18.730469 L 30.539062 18.734375 L 28.496094 18.359375 C 27.519531 18.179688 25.992188 17.574219 24.199219 16.804688 C 14.574219 21.273438 7.21875 29.796875 4.328125 40.183594 C 7.964844 45.144531 11.933594 48.792969 11.933594 48.792969 Z M 11.933594 48.792969 "/>
<path style=" stroke:none;fill-rule:nonzero;fill:rgb(100%,18.039216%,23.921569%);fill-opacity:0.7;" d="M 147.011719 50.027344 C 147.011719 29.804688 130.621094 13.414062 110.398438 13.414062 C 93.414062 13.414062 79.136719 24.980469 75 40.664062 C 70.863281 24.980469 56.585938 13.414062 39.601562 13.414062 C 34.097656 13.414062 28.882812 14.628906 24.199219 16.804688 C 25.992188 17.574219 27.519531 18.179688 28.496094 18.359375 L 30.539062 18.738281 L 30.542969 18.730469 L 49.570312 24.75 C 52.75 25.535156 53.914062 27.21875 53.914062 29.46875 C 53.914062 31.71875 52.179688 33.78125 48.46875 33.21875 L 41.285156 32.035156 L 41.304688 32.09375 L 58.570312 49.359375 C 60.160156 50.949219 60.160156 53.527344 58.570312 55.117188 C 56.976562 56.707031 54.398438 56.707031 52.808594 55.117188 L 57.484375 59.792969 C 59.074219 61.382812 59.074219 63.960938 57.484375 65.550781 C 55.894531 67.140625 53.316406 67.140625 51.722656 65.550781 L 48.84375 62.671875 C 50.433594 64.261719 50.433594 66.839844 48.84375 68.429688 C 47.253906 70.019531 44.675781 70.019531 43.085938 68.429688 L 33.550781 58.894531 C 35.140625 60.484375 35.140625 63.0625 33.550781 64.652344 C 31.960938 66.242188 29.382812 66.242188 27.792969 64.652344 L 11.933594 48.792969 C 11.933594 48.792969 7.964844 45.144531 4.328125 40.1875 C 3.457031 43.316406 2.988281 46.617188 2.988281 50.027344 C 2.988281 70.246094 25.300781 88.34375 39.601562 102.640625 C 57.421875 120.460938 75 136.585938 75 136.585938 C 75 136.585938 91.453125 121.421875 107.445312 105.582031 C 98.851562 108.75 90.75 100.714844 90.75 100.714844 L 74.890625 84.855469 C 73.296875 83.265625 73.296875 80.6875 74.890625 79.097656 C 76.480469 77.507812 79.058594 77.507812 80.648438 79.097656 L 71.113281 69.5625 C 69.523438 67.972656 69.523438 65.394531 71.113281 63.804688 C 72.703125 62.214844 75.28125 62.214844 76.871094 63.804688 L 73.992188 60.925781 C 72.402344 59.335938 72.402344 56.757812 73.992188 55.167969 C 75.582031 53.578125 78.160156 53.578125 79.75 55.167969 L 84.421875 59.839844 C 82.832031 58.25 82.832031 55.671875 84.421875 54.082031 C 86.015625 52.492188 88.59375 52.492188 90.183594 54.082031 L 107.449219 71.347656 L 107.507812 71.367188 L 106.324219 64.183594 C 105.757812 60.46875 107.824219 58.734375 110.074219 58.734375 C 112.320312 58.734375 114.007812 59.898438 114.792969 63.078125 L 120.808594 82.109375 L 120.804688 82.109375 L 121.183594 84.152344 C 121.675781 86.835938 122.0625 89.5625 121.421875 91.945312 C 133.957031 79.714844 147.011719 65.492188 147.011719 50.027344 Z M 147.011719 50.027344 "/>
<path style=" stroke:none;fill-rule:nonzero;fill:rgb(253,254,255);fill-opacity:0.7;" d="M 121.183594 84.152344 L 120.804688 82.109375 L 120.808594 82.109375 L 114.792969 63.078125 C 114.007812 59.898438 112.320312 58.734375 110.074219 58.734375 C 107.824219 58.734375 105.757812 60.46875 106.324219 64.183594 L 107.507812 71.367188 L 107.449219 71.347656 L 90.183594 54.082031 C 88.59375 52.492188 86.015625 52.492188 84.421875 54.082031 C 82.832031 55.671875 82.832031 58.25 84.421875 59.839844 L 79.75 55.167969 C 78.160156 53.578125 75.582031 53.578125 73.992188 55.167969 C 72.402344 56.757812 72.402344 59.335938 73.992188 60.925781 L 76.871094 63.804688 C 75.28125 62.214844 72.703125 62.214844 71.113281 63.804688 C 69.523438 65.394531 69.523438 67.972656 71.113281 69.5625 L 80.648438 79.097656 C 79.058594 77.507812 76.480469 77.507812 74.890625 79.097656 C 73.296875 80.6875 73.296875 83.265625 74.890625 84.855469 L 90.75 100.714844 C 90.75 100.714844 98.851562 108.75 107.445312 105.582031 C 108.433594 104.601562 109.417969 103.621094 110.398438 102.640625 C 113.761719 99.277344 117.566406 95.707031 121.421875 91.945312 C 122.0625 89.5625 121.675781 86.835938 121.183594 84.152344 Z M 121.183594 84.152344 "/>
<path style=" stroke:none;fill-rule:nonzero;fill:rgb(0%,0%,0%);fill-opacity:0.7;" d="M 72.980469 138.789062 C 73.550781 139.3125 74.277344 139.574219 75 139.574219 C 75.726562 139.574219 76.453125 139.3125 77.023438 138.785156 L 118.964844 98.472656 C 132.792969 85.183594 150 68.644531 150 50.027344 C 150 28.191406 132.234375 10.425781 110.398438 10.425781 C 95.210938 10.425781 81.609375 19.089844 75 32.257812 C 68.390625 19.089844 54.789062 10.425781 39.601562 10.425781 C 17.765625 10.425781 0 28.191406 0 50.027344 C 0 68.644531 17.207031 85.183594 31.03125 98.472656 Z M 38.433594 32.933594 L 38.453125 32.996094 C 38.597656 33.453125 38.851562 33.867188 39.191406 34.207031 L 56.457031 51.472656 C 56.878906 51.894531 56.878906 52.582031 56.457031 53.003906 C 56.03125 53.429688 55.34375 53.429688 54.921875 53.003906 C 54.921875 53.003906 54.917969 53.003906 54.917969 53.003906 C 54.917969 53 54.917969 53 54.914062 53 L 42.742188 40.90625 C 41.574219 39.746094 39.679688 39.75 38.515625 40.921875 C 37.355469 42.09375 37.359375 43.984375 38.53125 45.148438 L 50.695312 57.230469 L 55.371094 61.902344 C 55.644531 62.179688 55.6875 62.503906 55.6875 62.671875 C 55.6875 62.835938 55.644531 63.160156 55.371094 63.4375 C 55.09375 63.710938 54.773438 63.753906 54.605469 63.753906 C 54.4375 63.753906 54.113281 63.710938 53.835938 63.4375 L 50.957031 60.558594 L 36.136719 45.734375 C 34.96875 44.570312 33.078125 44.570312 31.910156 45.734375 C 30.746094 46.902344 30.746094 48.792969 31.910156 49.960938 L 46.734375 64.78125 L 46.734375 64.785156 C 47.15625 65.207031 47.152344 65.894531 46.734375 66.316406 C 46.308594 66.738281 45.621094 66.738281 45.199219 66.316406 L 28.867188 49.984375 C 27.699219 48.816406 25.808594 48.816406 24.640625 49.984375 C 23.476562 51.152344 23.476562 53.042969 24.640625 54.210938 L 31.4375 61.003906 C 31.4375 61.007812 31.4375 61.007812 31.4375 61.007812 L 31.441406 61.011719 C 31.714844 61.285156 31.757812 61.605469 31.757812 61.773438 C 31.757812 61.941406 31.714844 62.265625 31.4375 62.539062 C 31.164062 62.816406 30.839844 62.859375 30.671875 62.859375 C 30.503906 62.859375 30.183594 62.816406 29.90625 62.539062 L 14.046875 46.679688 C 13.992188 46.625 13.933594 46.570312 13.875 46.519531 C 13.832031 46.484375 9.507812 42.664062 9.320312 37.972656 C 9.222656 35.472656 10.304688 33.125 12.632812 30.796875 L 19.5 23.929688 C 21.714844 21.714844 24.875 20.730469 27.957031 21.296875 L 29.851562 21.648438 L 48.671875 27.597656 C 48.730469 27.617188 48.792969 27.632812 48.855469 27.648438 C 50.925781 28.164062 50.925781 28.828125 50.925781 29.46875 C 50.925781 29.625 50.898438 29.910156 50.714844 30.066406 C 50.492188 30.257812 49.90625 30.410156 48.933594 30.265625 L 41.769531 29.085938 C 40.746094 28.917969 39.707031 29.292969 39.027344 30.078125 C 38.34375 30.863281 38.121094 31.945312 38.433594 32.933594 Z M 77.769531 80.894531 C 77.9375 80.894531 78.257812 80.933594 78.535156 81.210938 L 85.332031 88.007812 C 85.914062 88.589844 86.679688 88.882812 87.445312 88.882812 C 88.207031 88.882812 88.972656 88.589844 89.558594 88.007812 C 90.722656 86.839844 90.722656 84.949219 89.558594 83.78125 L 73.226562 67.449219 C 72.804688 67.027344 72.804688 66.339844 73.226562 65.917969 C 73.648438 65.496094 74.335938 65.492188 74.757812 65.917969 L 89.578125 80.738281 C 90.164062 81.320312 90.929688 81.613281 91.691406 81.613281 C 92.457031 81.613281 93.222656 81.320312 93.804688 80.738281 C 94.972656 79.570312 94.972656 77.679688 93.804688 76.511719 L 78.984375 61.691406 C 78.984375 61.691406 78.984375 61.691406 78.984375 61.6875 L 76.105469 58.8125 C 75.683594 58.390625 75.683594 57.703125 76.105469 57.277344 C 76.527344 56.855469 77.214844 56.855469 77.636719 57.277344 L 82.300781 61.941406 C 82.304688 61.945312 82.304688 61.945312 82.304688 61.945312 L 94.09375 73.816406 C 94.679688 74.40625 95.445312 74.699219 96.214844 74.699219 C 96.976562 74.699219 97.738281 74.410156 98.320312 73.832031 C 99.492188 72.667969 99.496094 70.777344 98.335938 69.605469 L 86.542969 57.734375 C 86.542969 57.730469 86.542969 57.730469 86.539062 57.730469 C 86.539062 57.730469 86.539062 57.726562 86.535156 57.726562 L 86.53125 57.722656 C 86.257812 57.445312 86.21875 57.125 86.21875 56.960938 C 86.21875 56.792969 86.261719 56.46875 86.535156 56.191406 C 86.8125 55.917969 87.132812 55.875 87.300781 55.875 C 87.46875 55.875 87.792969 55.917969 88.066406 56.191406 L 105.332031 73.457031 C 105.675781 73.796875 106.089844 74.050781 106.550781 74.195312 L 106.609375 74.214844 C 107.597656 74.527344 108.679688 74.300781 109.464844 73.621094 C 110.25 72.941406 110.625 71.902344 110.453125 70.878906 L 109.273438 63.714844 C 109.128906 62.742188 109.28125 62.15625 109.472656 61.933594 C 109.632812 61.75 109.917969 61.722656 110.070312 61.722656 C 110.714844 61.722656 111.378906 61.722656 111.890625 63.796875 C 111.90625 63.855469 111.921875 63.917969 111.941406 63.976562 L 117.890625 82.796875 L 118.242188 84.691406 C 118.808594 87.773438 117.828125 90.933594 115.613281 93.148438 L 108.742188 100.019531 C 106.511719 102.246094 104.265625 103.335938 101.878906 103.335938 C 101.785156 103.335938 101.691406 103.332031 101.597656 103.328125 C 96.875 103.160156 93.050781 98.8125 93.019531 98.773438 C 92.96875 98.714844 92.914062 98.65625 92.859375 98.601562 L 77 82.742188 C 76.726562 82.46875 76.683594 82.144531 76.683594 81.976562 C 76.683594 81.808594 76.726562 81.488281 77 81.210938 C 77.277344 80.933594 77.601562 80.894531 77.769531 80.894531 Z M 124.292969 84.855469 C 124.25 84.441406 124.195312 84.023438 124.121094 83.609375 L 123.773438 81.738281 C 123.753906 81.5625 123.714844 81.382812 123.660156 81.207031 L 117.667969 62.261719 C 116.222656 56.597656 112.292969 55.746094 110.070312 55.746094 C 108.0625 55.746094 106.195312 56.582031 104.941406 58.039062 C 104.128906 58.988281 103.257812 60.554688 103.242188 62.914062 L 92.292969 51.96875 C 90.960938 50.636719 89.1875 49.902344 87.300781 49.902344 C 85.417969 49.902344 83.644531 50.636719 82.3125 51.96875 C 82.050781 52.230469 81.8125 52.507812 81.597656 52.800781 C 78.828125 50.304688 74.542969 50.390625 71.878906 53.054688 C 69.828125 55.105469 69.304688 58.117188 70.3125 60.660156 C 69.84375 60.945312 69.402344 61.289062 69 61.691406 C 66.246094 64.445312 66.246094 68.921875 69 71.675781 L 73.601562 76.277344 C 73.308594 76.488281 73.035156 76.726562 72.777344 76.984375 C 71.441406 78.316406 70.707031 80.089844 70.707031 81.976562 C 70.707031 83.863281 71.441406 85.636719 72.777344 86.96875 L 88.566406 102.761719 C 89.265625 103.542969 93.570312 108.125 99.582031 109.117188 C 89.03125 119.40625 79.125 128.675781 74.996094 132.515625 C 69.871094 127.765625 55.792969 114.609375 41.710938 100.527344 C 39.660156 98.476562 37.480469 96.382812 35.171875 94.164062 C 22.164062 81.660156 5.976562 66.097656 5.976562 50.027344 C 5.976562 48.84375 6.039062 47.675781 6.15625 46.527344 C 7.71875 48.964844 9.4375 50.570312 9.886719 50.972656 L 25.679688 66.765625 C 27.011719 68.097656 28.785156 68.832031 30.671875 68.832031 C 32.558594 68.832031 34.332031 68.097656 35.664062 66.765625 C 35.921875 66.507812 36.160156 66.230469 36.371094 65.941406 L 40.972656 70.542969 C 42.347656 71.917969 44.15625 72.605469 45.964844 72.605469 C 47.773438 72.605469 49.582031 71.917969 50.957031 70.542969 C 51.359375 70.140625 51.703125 69.699219 51.988281 69.234375 C 52.808594 69.558594 53.695312 69.730469 54.601562 69.730469 C 56.488281 69.730469 58.261719 68.996094 59.59375 67.664062 C 60.929688 66.328125 61.664062 64.554688 61.664062 62.671875 C 61.664062 60.90625 61.019531 59.242188 59.847656 57.945312 C 60.140625 57.730469 60.417969 57.496094 60.679688 57.230469 C 63.433594 54.480469 63.433594 50 60.679688 47.246094 L 49.734375 36.300781 C 52.09375 36.285156 53.660156 35.414062 54.609375 34.601562 C 56.066406 33.347656 56.902344 31.476562 56.902344 29.46875 C 56.902344 27.246094 56.050781 23.316406 50.386719 21.875 L 34.371094 16.808594 C 36.074219 16.542969 37.820312 16.402344 39.601562 16.402344 C 54.855469 16.402344 68.222656 26.695312 72.109375 41.429688 C 72.457031 42.742188 73.644531 43.65625 75 43.65625 C 76.355469 43.65625 77.542969 42.742188 77.890625 41.429688 C 81.777344 26.695312 95.144531 16.402344 110.398438 16.402344 C 128.941406 16.402344 144.023438 31.484375 144.023438 50.027344 C 144.023438 62.316406 134.5625 74.304688 124.292969 84.855469 Z M 124.292969 84.855469 "/>
<path style=" stroke:none;fill-rule:nonzero;fill:rgb(253,254,255);fill-opacity:0.7;" d="M 137.152344 46.613281 C 135.5 46.613281 134.164062 47.953125 134.164062 49.601562 C 134.164062 52.335938 133.707031 55.019531 132.804688 57.570312 C 132.253906 59.125 133.070312 60.832031 134.625 61.382812 C 134.953125 61.5 135.289062 61.554688 135.621094 61.554688 C 136.851562 61.554688 138.003906 60.789062 138.4375 59.5625 C 139.566406 56.367188 140.140625 53.015625 140.140625 49.601562 C 140.140625 47.953125 138.800781 46.613281 137.152344 46.613281 Z M 137.152344 46.613281 "/>
<path style=" stroke:none;fill-rule:nonzero;fill:rgb(253,254,255);fill-opacity:0.7;" d="M 135.621094 43.625 C 135.953125 43.625 136.289062 43.570312 136.617188 43.453125 C 138.171875 42.90625 138.988281 41.199219 138.4375 39.640625 C 134.226562 27.726562 122.902344 19.722656 110.257812 19.722656 C 103.535156 19.722656 97.183594 21.902344 91.894531 26.03125 C 90.589844 27.046875 90.359375 28.921875 91.375 30.222656 C 92.390625 31.527344 94.269531 31.757812 95.570312 30.742188 C 99.800781 27.441406 104.878906 25.695312 110.257812 25.695312 C 120.375 25.695312 129.433594 32.101562 132.804688 41.632812 C 133.238281 42.859375 134.390625 43.625 135.621094 43.625 Z M 135.621094 43.625 "/>
<path style=" stroke:none;fill-rule:nonzero;fill:rgb(253,254,255);fill-opacity:0.7;" d="M 45.117188 87.652344 C 43.933594 86.5 42.042969 86.523438 40.890625 87.703125 C 39.738281 88.882812 39.757812 90.773438 40.941406 91.929688 L 45.71875 96.597656 C 46.300781 97.167969 47.054688 97.449219 47.808594 97.449219 C 48.585938 97.449219 49.359375 97.148438 49.945312 96.550781 C 51.097656 95.371094 51.078125 93.476562 49.894531 92.324219 Z M 45.117188 87.652344 "/>
<path style=" stroke:none;fill-rule:nonzero;fill:rgb(253,254,255);fill-opacity:0.7;" d="M 53.140625 99.671875 C 51.988281 100.851562 52.011719 102.746094 53.191406 103.898438 L 73.507812 123.75 C 74.089844 124.320312 74.84375 124.601562 75.597656 124.601562 C 76.375 124.601562 77.148438 124.300781 77.734375 123.703125 C 78.886719 122.519531 78.867188 120.628906 77.6875 119.476562 L 57.367188 99.625 C 56.1875 98.46875 54.292969 98.492188 53.140625 99.671875 Z M 53.140625 99.671875 "/>
</g>
</svg>
