<svg viewBox="0 0 600 600" fill="none" xmlns="http://www.w3.org/2000/svg">
<g clip-path="url(#clip0_411_1281)">
<circle cx="300" cy="300" r="300" fill="#C1E6C5"/>
<circle cx="299.5" cy="300.5" r="195.5" fill="white" stroke="black" stroke-width="2"/>
<path d="M476.828 309.413L467.559 303.971L467.122 303.714L466.871 304.155L457.958 319.818L457.533 320.565H458.393H485.958V351.661H463.702H463.683L463.664 351.663C457.979 352.098 452.347 349.243 449.282 343.953C449.281 343.952 449.281 343.952 449.281 343.951L433.48 316.159L476.828 309.413ZM476.828 309.413L461.202 282.944L430.89 282.465L440.189 287.923L440.614 288.173L440.37 288.601L434.049 299.707L434.041 299.72L434.033 299.733C430.906 304.527 430.48 310.874 433.48 316.159L476.828 309.413ZM554.419 316.091L554.417 316.095L538.615 343.89L538.613 343.893C535.612 349.241 530.045 352.035 524.417 351.663L524.401 351.661H524.384H511.742H511.242V352.161V363.044L496.51 336.113L511.242 309.182V320.065V320.565H511.742H529.568H530.427L530.002 319.818L516.213 295.533L542.721 279.991L553.848 299.578L553.857 299.593L553.867 299.608C557.053 304.4 557.48 310.808 554.419 316.091ZM520.459 246.144L520.466 246.157L520.473 246.169L526.794 257.339L527.044 257.781L527.482 257.523L536.754 252.081L521.188 278.487L490.82 279.026L500.112 273.572L500.537 273.322L500.294 272.894L491.381 257.167L490.946 256.398L490.511 257.167L476.791 281.44L450.222 265.897L461.356 246.298L461.364 246.284L461.371 246.27C463.885 241.101 469.092 237.5 475.144 237.5H506.749C512.741 237.5 517.946 241.04 520.459 246.144Z" fill="#0AC05E" stroke="black"/>
<path d="M364 434.111H332L322.857 427H277.143L268 434.111H236V448.333H364M245.143 540.778C245.143 544.55 247.069 548.167 250.499 550.834C253.928 553.502 258.579 555 263.429 555H336.571C341.421 555 346.072 553.502 349.501 550.834C352.931 548.167 354.857 544.55 354.857 540.778V455.444H245.143V540.778Z" fill="black"/>
<path d="M344.8 45.6327L306.4 85.4291L319.2 98.6945L364 52.2655V45.6327M300 108.644C299.151 108.644 298.337 108.294 297.737 107.672C297.137 107.05 296.8 106.207 296.8 105.327C296.8 104.448 297.137 103.604 297.737 102.982C298.337 102.36 299.151 102.011 300 102.011C300.849 102.011 301.663 102.36 302.263 102.982C302.863 103.604 303.2 104.448 303.2 105.327C303.2 106.207 302.863 107.05 302.263 107.672C301.663 108.294 300.849 108.644 300 108.644ZM261.6 158.389C258.205 158.389 254.949 156.991 252.549 154.504C250.149 152.016 248.8 148.642 248.8 145.124C248.8 137.761 254.56 131.858 261.6 131.858C264.995 131.858 268.251 133.256 270.651 135.744C273.051 138.231 274.4 141.605 274.4 145.124C274.4 152.486 268.64 158.389 261.6 158.389ZM261.6 78.7964C258.205 78.7964 254.949 77.3988 252.549 74.911C250.149 72.4232 248.8 69.0491 248.8 65.5309C248.8 58.1686 254.56 52.2655 261.6 52.2655C264.995 52.2655 268.251 53.6631 270.651 56.1508C273.051 58.6386 274.4 62.0127 274.4 65.5309C274.4 72.8932 268.64 78.7964 261.6 78.7964ZM284.896 76.4086C286.368 73.0922 287.2 69.4442 287.2 65.5309C287.2 58.4945 284.503 51.7462 279.702 46.7707C274.901 41.7952 268.39 39 261.6 39C254.81 39 248.299 41.7952 243.498 46.7707C238.697 51.7462 236 58.4945 236 65.5309C236 72.5673 238.697 79.3156 243.498 84.2911C248.299 89.2666 254.81 92.0618 261.6 92.0618C265.376 92.0618 268.896 91.1996 272.096 89.674L287.2 105.327L272.096 120.981C268.896 119.455 265.376 118.593 261.6 118.593C254.81 118.593 248.299 121.388 243.498 126.363C238.697 131.339 236 138.087 236 145.124C236 152.16 238.697 158.908 243.498 163.884C248.299 168.859 254.81 171.655 261.6 171.655C268.39 171.655 274.901 168.859 279.702 163.884C284.503 158.908 287.2 152.16 287.2 145.124C287.2 141.21 286.368 137.562 284.896 134.246L300 118.593L344.8 165.022H364V158.389L284.896 76.4086Z" fill="black"/>
<path d="M142.4 339.229C145.795 339.229 149.05 340.601 151.451 343.045C153.851 345.488 155.2 348.802 155.2 352.257C155.2 355.713 153.851 359.026 151.451 361.47C149.05 363.913 145.795 365.286 142.4 365.286C135.296 365.286 129.6 359.423 129.6 352.257C129.6 345.026 135.296 339.229 142.4 339.229ZM40 235H60.928L66.944 248.029H161.6C163.297 248.029 164.925 248.715 166.125 249.937C167.326 251.158 168 252.815 168 254.543C168 255.65 167.68 256.758 167.232 257.8L144.32 299.947C142.144 303.921 137.92 306.657 133.12 306.657H85.44L79.68 317.275L79.488 318.057C79.488 318.489 79.6566 318.903 79.9566 319.209C80.2567 319.514 80.6637 319.686 81.088 319.686H155.2V332.714H78.4C71.296 332.714 65.6 326.851 65.6 319.686C65.6 317.406 66.176 315.256 67.136 313.432L75.84 297.472L52.8 248.029H40V235ZM78.4 339.229C81.7948 339.229 85.0505 340.601 87.451 343.045C89.8514 345.488 91.2 348.802 91.2 352.257C91.2 355.713 89.8514 359.026 87.451 361.47C85.0505 363.913 81.7948 365.286 78.4 365.286C71.296 365.286 65.6 359.423 65.6 352.257C65.6 345.026 71.296 339.229 78.4 339.229ZM136 293.629L153.792 261.057H72.896L88 293.629H136Z" fill="black"/>
<g clip-path="url(#clip1_411_1281)">
<path d="M162.79 188.235L158.795 188.2L158.795 163.946L134.541 163.946L134.506 159.951L162.79 159.951L162.79 188.235Z" fill="black"/>
</g>
<g clip-path="url(#clip2_411_1281)">
<path d="M422.647 175.79L422.682 171.795L446.936 171.795L446.936 147.541L450.931 147.506L450.931 175.79L422.647 175.79Z" fill="black"/>
</g>
<g clip-path="url(#clip3_411_1281)">
<path d="M437.092 412.647L441.087 412.683L441.087 436.936L465.341 436.936L465.376 440.931L437.092 440.931L437.092 412.647Z" fill="black"/>
</g>
<g clip-path="url(#clip4_411_1281)">
<path d="M175.754 426.594L175.427 430.576L151.238 428.806L149.468 452.995L145.481 452.739L147.545 424.53L175.754 426.594Z" fill="black"/>
</g>
</g>
<defs>
<clipPath id="clip0_411_1281">
<rect width="600" height="600" fill="white"/>
</clipPath>
<clipPath id="clip1_411_1281">
<rect width="48" height="48" fill="white" transform="translate(121 167.941) rotate(-45)"/>
</clipPath>
<clipPath id="clip2_411_1281">
<rect width="48" height="48" fill="white" transform="translate(442.941 134) rotate(45)"/>
</clipPath>
<clipPath id="clip3_411_1281">
<rect width="48" height="48" fill="white" transform="translate(478.882 432.941) rotate(135)"/>
</clipPath>
<clipPath id="clip4_411_1281">
<rect width="48" height="48" fill="white" transform="translate(152.465 466.792) rotate(-130.816)"/>
</clipPath>
</defs>
</svg>
