<svg viewBox="0 0 600 600" fill="none" xmlns="http://www.w3.org/2000/svg">
<g clip-path="url(#clip0_412_1361)">
<circle cx="300" cy="300" r="300" fill="#C1E6C5"/>
<circle cx="299.5" cy="300.5" r="195.5" fill="white" stroke="black" stroke-width="2"/>
<path d="M554.852 316.342L539.049 344.137C535.952 349.658 530.2 352.547 524.384 352.161H511.742V365L495.94 336.113L511.742 307.227V320.065H529.568L515.535 295.351L542.905 279.303L554.283 299.331C557.57 304.274 558.012 310.886 554.852 316.342ZM475.144 237H506.749C512.943 237 518.316 240.659 520.908 245.923L527.229 257.092L538.164 250.673L521.477 278.982L488.923 279.56L499.859 273.14L490.946 257.413L476.977 282.127L449.543 266.079L460.921 246.051C463.513 240.723 468.886 237 475.144 237ZM448.848 344.202L433.045 316.406C429.948 310.95 430.391 304.402 433.614 299.459L439.935 288.354L429 281.935L461.49 282.448L478.241 310.821L467.305 304.402L458.393 320.065H486.458V352.161H463.702C457.824 352.611 452.009 349.658 448.848 344.202Z" fill="black"/>
<path d="M344.8 45.6327L306.4 85.4291L319.2 98.6945L364 52.2655V45.6327M300 108.644C299.151 108.644 298.337 108.294 297.737 107.672C297.137 107.05 296.8 106.207 296.8 105.327C296.8 104.448 297.137 103.604 297.737 102.982C298.337 102.36 299.151 102.011 300 102.011C300.849 102.011 301.663 102.36 302.263 102.982C302.863 103.604 303.2 104.448 303.2 105.327C303.2 106.207 302.863 107.05 302.263 107.672C301.663 108.294 300.849 108.644 300 108.644ZM261.6 158.389C258.205 158.389 254.949 156.991 252.549 154.504C250.149 152.016 248.8 148.642 248.8 145.124C248.8 137.761 254.56 131.858 261.6 131.858C264.995 131.858 268.251 133.256 270.651 135.744C273.051 138.231 274.4 141.605 274.4 145.124C274.4 152.486 268.64 158.389 261.6 158.389ZM261.6 78.7964C258.205 78.7964 254.949 77.3988 252.549 74.911C250.149 72.4232 248.8 69.0491 248.8 65.5309C248.8 58.1686 254.56 52.2655 261.6 52.2655C264.995 52.2655 268.251 53.6631 270.651 56.1508C273.051 58.6386 274.4 62.0127 274.4 65.5309C274.4 72.8932 268.64 78.7964 261.6 78.7964ZM284.896 76.4086C286.368 73.0922 287.2 69.4442 287.2 65.5309C287.2 58.4945 284.503 51.7462 279.702 46.7707C274.901 41.7952 268.39 39 261.6 39C254.81 39 248.299 41.7952 243.498 46.7707C238.697 51.7462 236 58.4945 236 65.5309C236 72.5673 238.697 79.3156 243.498 84.2911C248.299 89.2666 254.81 92.0618 261.6 92.0618C265.376 92.0618 268.896 91.1996 272.096 89.674L287.2 105.327L272.096 120.981C268.896 119.455 265.376 118.593 261.6 118.593C254.81 118.593 248.299 121.388 243.498 126.363C238.697 131.339 236 138.087 236 145.124C236 152.16 238.697 158.908 243.498 163.884C248.299 168.859 254.81 171.655 261.6 171.655C268.39 171.655 274.901 168.859 279.702 163.884C284.503 158.908 287.2 152.16 287.2 145.124C287.2 141.21 286.368 137.562 284.896 134.246L300 118.593L344.8 165.022H364V158.389L284.896 76.4086Z" fill="black"/>
<path d="M338.4 536.229C341.795 536.229 345.051 537.601 347.451 540.045C349.851 542.488 351.2 545.802 351.2 549.257C351.2 552.713 349.851 556.026 347.451 558.47C345.051 560.913 341.795 562.286 338.4 562.286C331.296 562.286 325.6 556.423 325.6 549.257C325.6 542.026 331.296 536.229 338.4 536.229ZM236 432H256.928L262.944 445.029H357.6C359.297 445.029 360.925 445.715 362.125 446.937C363.326 448.158 364 449.815 364 451.543C364 452.65 363.68 453.758 363.232 454.8L340.32 496.947C338.144 500.921 333.92 503.657 329.12 503.657H281.44L275.68 514.275L275.488 515.057C275.488 515.489 275.657 515.903 275.957 516.209C276.257 516.514 276.664 516.686 277.088 516.686H351.2V529.714H274.4C267.296 529.714 261.6 523.851 261.6 516.686C261.6 514.406 262.176 512.256 263.136 510.432L271.84 494.472L248.8 445.029H236V432ZM274.4 536.229C277.795 536.229 281.05 537.601 283.451 540.045C285.851 542.488 287.2 545.802 287.2 549.257C287.2 552.713 285.851 556.026 283.451 558.47C281.05 560.913 277.795 562.286 274.4 562.286C267.296 562.286 261.6 556.423 261.6 549.257C261.6 542.026 267.296 536.229 274.4 536.229ZM332 490.629L349.792 458.057H268.896L284 490.629H332Z" fill="#0AC05E"/>
<g clip-path="url(#clip1_412_1361)">
<path d="M162.79 188.235L158.795 188.2L158.795 163.946L134.541 163.946L134.506 159.951L162.79 159.951L162.79 188.235Z" fill="black"/>
</g>
<g clip-path="url(#clip2_412_1361)">
<path d="M422.647 175.79L422.682 171.795L446.936 171.795L446.936 147.541L450.931 147.506L450.931 175.79L422.647 175.79Z" fill="black"/>
</g>
<g clip-path="url(#clip3_412_1361)">
<path d="M437.092 412.647L441.087 412.683L441.087 436.936L465.341 436.936L465.376 440.931L437.092 440.931L437.092 412.647Z" fill="black"/>
</g>
<g clip-path="url(#clip4_412_1361)">
<path d="M175.754 426.594L175.427 430.576L151.238 428.806L149.468 452.995L145.481 452.739L147.545 424.53L175.754 426.594Z" fill="black"/>
</g>
<path d="M154.624 364H53V351.244C53 337.212 75.8655 325.732 103.812 325.732C131.759 325.732 154.624 337.212 154.624 351.244M78.4061 281.085H129.218V287.463C129.218 301.495 117.785 312.975 103.812 312.975C89.8388 312.975 78.4061 301.495 78.4061 287.463M148.273 249.195C144.462 249.195 141.921 251.746 141.921 255.573V261.951H132.394L123.502 242.817C122.867 241.541 122.232 240.265 120.961 239.628C117.785 236.438 112.704 235.801 108.258 237.714L103.812 238.99L99.3661 237.076C94.92 235.163 89.8388 235.801 86.663 238.99C85.3927 240.265 84.7576 241.541 84.1224 242.817L75.2303 261.951H65.703V255.573C65.703 251.746 63.1624 249.195 59.3515 249.195C55.5406 249.195 53 251.746 53 255.573V261.951C53 268.967 58.7164 274.707 65.703 274.707H141.921C148.908 274.707 154.624 268.967 154.624 261.951V255.573C154.624 252.384 152.084 249.195 148.273 249.195Z" fill="black"/>
</g>
<defs>
<clipPath id="clip0_412_1361">
<rect width="600" height="600" fill="white"/>
</clipPath>
<clipPath id="clip1_412_1361">
<rect width="48" height="48" fill="white" transform="translate(121 167.941) rotate(-45)"/>
</clipPath>
<clipPath id="clip2_412_1361">
<rect width="48" height="48" fill="white" transform="translate(442.941 134) rotate(45)"/>
</clipPath>
<clipPath id="clip3_412_1361">
<rect width="48" height="48" fill="white" transform="translate(478.882 432.941) rotate(135)"/>
</clipPath>
<clipPath id="clip4_412_1361">
<rect width="48" height="48" fill="white" transform="translate(152.465 466.792) rotate(-130.816)"/>
</clipPath>
</defs>
</svg>
