<svg viewBox="0 0 600 600" fill="none" xmlns="http://www.w3.org/2000/svg">
<g clip-path="url(#clip0_412_1361)">
<circle cx="300" cy="300" r="300" fill="#C1E6C5"/>
<circle cx="299.5" cy="300.5" r="195.5" fill="white" stroke="black" stroke-width="2"/>
<path d="M554.852 316.342L539.049 344.137C535.952 349.658 530.2 352.547 524.384 352.161H511.742V365L495.94 336.113L511.742 307.227V320.065H529.568L515.535 295.351L542.905 279.303L554.283 299.331C557.57 304.274 558.012 310.886 554.852 316.342ZM475.144 237H506.749C512.943 237 518.316 240.659 520.908 245.923L527.229 257.092L538.164 250.673L521.477 278.982L488.923 279.56L499.859 273.14L490.946 257.413L476.977 282.127L449.543 266.079L460.921 246.051C463.513 240.723 468.886 237 475.144 237ZM448.848 344.202L433.045 316.406C429.948 310.95 430.391 304.402 433.614 299.459L439.935 288.354L429 281.935L461.49 282.448L478.241 310.821L467.305 304.402L458.393 320.065H486.458V352.161H463.702C457.824 352.611 452.009 349.658 448.848 344.202Z" fill="black"/>
<path d="M364 434.111H332L322.857 427H277.143L268 434.111H236V448.333H364M245.143 540.778C245.143 544.55 247.069 548.167 250.499 550.834C253.928 553.502 258.579 555 263.429 555H336.571C341.421 555 346.072 553.502 349.501 550.834C352.931 548.167 354.857 544.55 354.857 540.778V455.444H245.143V540.778Z" fill="black"/>
<path d="M344.8 45.6327L306.4 85.4291L319.2 98.6945L364 52.2655V45.6327M300 108.644C299.151 108.644 298.337 108.294 297.737 107.672C297.137 107.05 296.8 106.207 296.8 105.327C296.8 104.448 297.137 103.604 297.737 102.982C298.337 102.36 299.151 102.011 300 102.011C300.849 102.011 301.663 102.36 302.263 102.982C302.863 103.604 303.2 104.448 303.2 105.327C303.2 106.207 302.863 107.05 302.263 107.672C301.663 108.294 300.849 108.644 300 108.644ZM261.6 158.389C258.205 158.389 254.949 156.991 252.549 154.504C250.149 152.016 248.8 148.642 248.8 145.124C248.8 137.761 254.56 131.858 261.6 131.858C264.995 131.858 268.251 133.256 270.651 135.744C273.051 138.231 274.4 141.605 274.4 145.124C274.4 152.486 268.64 158.389 261.6 158.389ZM261.6 78.7964C258.205 78.7964 254.949 77.3988 252.549 74.911C250.149 72.4232 248.8 69.0491 248.8 65.5309C248.8 58.1686 254.56 52.2655 261.6 52.2655C264.995 52.2655 268.251 53.6631 270.651 56.1508C273.051 58.6386 274.4 62.0127 274.4 65.5309C274.4 72.8932 268.64 78.7964 261.6 78.7964ZM284.896 76.4086C286.368 73.0922 287.2 69.4442 287.2 65.5309C287.2 58.4945 284.503 51.7462 279.702 46.7707C274.901 41.7952 268.39 39 261.6 39C254.81 39 248.299 41.7952 243.498 46.7707C238.697 51.7462 236 58.4945 236 65.5309C236 72.5673 238.697 79.3156 243.498 84.2911C248.299 89.2666 254.81 92.0618 261.6 92.0618C265.376 92.0618 268.896 91.1996 272.096 89.674L287.2 105.327L272.096 120.981C268.896 119.455 265.376 118.593 261.6 118.593C254.81 118.593 248.299 121.388 243.498 126.363C238.697 131.339 236 138.087 236 145.124C236 152.16 238.697 158.908 243.498 163.884C248.299 168.859 254.81 171.655 261.6 171.655C268.39 171.655 274.901 168.859 279.702 163.884C284.503 158.908 287.2 152.16 287.2 145.124C287.2 141.21 286.368 137.562 284.896 134.246L300 118.593L344.8 165.022H364V158.389L284.896 76.4086Z" fill="black"/>
<path d="M66.4901 248.238L66.6241 248.529H66.944H161.6C163.162 248.529 164.662 249.16 165.769 250.287C166.876 251.414 167.5 252.945 167.5 254.543C167.5 255.55 167.21 256.58 166.782 257.582L143.881 299.707C141.788 303.531 137.726 306.157 133.12 306.157H85.44H85.1424L85.0005 306.419L79.2405 317.037L79.2098 317.094L79.1944 317.156L79.0024 317.938L78.988 317.997V318.057C78.988 318.619 79.2071 319.159 79.6 319.559C79.9931 319.959 80.5282 320.186 81.088 320.186H154.7V332.214H78.4C71.5821 332.214 66.1 326.585 66.1 319.686C66.1 317.491 66.6543 315.422 67.5767 313.668C67.5773 313.667 67.5779 313.666 67.5785 313.665L76.279 297.711L76.3999 297.49L76.2932 297.261L53.2532 247.817L53.1186 247.529H52.8H40.5V235.5H60.6081L66.4901 248.238ZM136 294.129H136.297L136.439 293.868L154.231 261.297L154.635 260.557H153.792H72.896H72.113L72.4424 261.267L87.5464 293.839L87.6807 294.129H88H136ZM142.4 339.729C145.659 339.729 148.787 341.046 151.094 343.395C153.402 345.744 154.7 348.932 154.7 352.257C154.7 355.583 153.402 358.77 151.094 361.119C148.787 363.468 145.659 364.786 142.4 364.786C135.582 364.786 130.1 359.157 130.1 352.257C130.1 345.294 135.58 339.729 142.4 339.729ZM78.4 339.729C81.6593 339.729 84.7869 341.046 87.0943 343.395C89.402 345.744 90.7 348.932 90.7 352.257C90.7 355.583 89.402 358.77 87.0943 361.119C84.7869 363.468 81.6593 364.786 78.4 364.786C71.5821 364.786 66.1 359.157 66.1 352.257C66.1 345.294 71.5804 339.729 78.4 339.729Z" fill="#0AC05E" stroke="black"/>
<g clip-path="url(#clip1_412_1361)">
<path d="M162.79 188.235L158.795 188.2L158.795 163.946L134.541 163.946L134.506 159.951L162.79 159.951L162.79 188.235Z" fill="black"/>
</g>
<g clip-path="url(#clip2_412_1361)">
<path d="M422.647 175.79L422.682 171.795L446.936 171.795L446.936 147.541L450.931 147.506L450.931 175.79L422.647 175.79Z" fill="black"/>
</g>
<g clip-path="url(#clip3_412_1361)">
<path d="M437.092 412.647L441.087 412.683L441.087 436.936L465.341 436.936L465.376 440.931L437.092 440.931L437.092 412.647Z" fill="black"/>
</g>
<g clip-path="url(#clip4_412_1361)">
<path d="M175.754 426.594L175.427 430.576L151.238 428.806L149.468 452.995L145.481 452.739L147.545 424.53L175.754 426.594Z" fill="black"/>
</g>
</g>
<defs>
<clipPath id="clip0_412_1361">
<rect width="600" height="600" fill="white"/>
</clipPath>
<clipPath id="clip1_412_1361">
<rect width="48" height="48" fill="white" transform="translate(121 167.941) rotate(-45)"/>
</clipPath>
<clipPath id="clip2_412_1361">
<rect width="48" height="48" fill="white" transform="translate(442.941 134) rotate(45)"/>
</clipPath>
<clipPath id="clip3_412_1361">
<rect width="48" height="48" fill="white" transform="translate(478.882 432.941) rotate(135)"/>
</clipPath>
<clipPath id="clip4_412_1361">
<rect width="48" height="48" fill="white" transform="translate(152.465 466.792) rotate(-130.816)"/>
</clipPath>
</defs>
</svg>
