<svg viewBox="0 0 600 600" fill="none" xmlns="http://www.w3.org/2000/svg">
<g clip-path="url(#clip0_412_1345)">
<circle cx="300" cy="300" r="300" fill="#C1E6C5"/>
<circle cx="299.5" cy="300.5" r="195.5" fill="white" stroke="black" stroke-width="2"/>
<path d="M554.852 316.342L539.049 344.137C535.952 349.658 530.2 352.547 524.384 352.161H511.742V365L495.94 336.113L511.742 307.227V320.065H529.568L515.535 295.351L542.905 279.303L554.283 299.331C557.57 304.274 558.012 310.886 554.852 316.342ZM475.144 237H506.749C512.943 237 518.316 240.659 520.908 245.923L527.229 257.092L538.164 250.673L521.477 278.982L488.923 279.56L499.859 273.14L490.946 257.413L476.977 282.127L449.543 266.079L460.921 246.051C463.513 240.723 468.886 237 475.144 237ZM448.848 344.202L433.045 316.406C429.948 310.95 430.391 304.402 433.614 299.459L439.935 288.354L429 281.935L461.49 282.448L478.241 310.821L467.305 304.402L458.393 320.065H486.458V352.161H463.702C457.824 352.611 452.009 349.658 448.848 344.202Z" fill="black"/>
<mask id="path-4-inside-1_412_1345" fill="white">
<path d="M364 434.111H332L322.857 427H277.143L268 434.111H236V448.333H364M245.143 540.778C245.143 544.55 247.069 548.167 250.499 550.834C253.928 553.502 258.579 555 263.429 555H336.571C341.421 555 346.072 553.502 349.501 550.834C352.931 548.167 354.857 544.55 354.857 540.778V455.444H245.143V540.778Z"/>
</mask>
<path d="M364 434.111H332L322.857 427H277.143L268 434.111H236V448.333H364M245.143 540.778C245.143 544.55 247.069 548.167 250.499 550.834C253.928 553.502 258.579 555 263.429 555H336.571C341.421 555 346.072 553.502 349.501 550.834C352.931 548.167 354.857 544.55 354.857 540.778V455.444H245.143V540.778Z" fill="#0AC05E"/>
<path d="M332 434.111L331.386 434.9L331.657 435.111H332V434.111ZM322.857 427L323.471 426.211L323.2 426H322.857V427ZM277.143 427V426H276.8L276.529 426.211L277.143 427ZM268 434.111V435.111H268.343L268.614 434.9L268 434.111ZM236 434.111V433.111H235V434.111H236ZM236 448.333H235V449.333H236V448.333ZM245.143 540.778H244.143H245.143ZM354.857 455.444H355.857V454.444H354.857V455.444ZM245.143 455.444V454.444H244.143V455.444H245.143ZM364 433.111H332V435.111H364V433.111ZM332.614 433.322L323.471 426.211L322.243 427.789L331.386 434.9L332.614 433.322ZM322.857 426H277.143V428H322.857V426ZM276.529 426.211L267.386 433.322L268.614 434.9L277.757 427.789L276.529 426.211ZM268 433.111H236V435.111H268V433.111ZM235 434.111V448.333H237V434.111H235ZM236 449.333H364V447.333H236V449.333ZM244.143 540.778C244.143 544.908 246.254 548.8 249.885 551.624L251.113 550.045C247.885 547.535 246.143 544.192 246.143 540.778H244.143ZM249.885 551.624C253.51 554.443 258.384 556 263.429 556V554C258.774 554 254.346 552.56 251.113 550.045L249.885 551.624ZM263.429 556H336.571V554H263.429V556ZM336.571 556C341.616 556 346.49 554.443 350.115 551.624L348.887 550.045C345.654 552.56 341.226 554 336.571 554V556ZM350.115 551.624C353.746 548.8 355.857 544.908 355.857 540.778H353.857C353.857 544.192 352.115 547.535 348.887 550.045L350.115 551.624ZM355.857 540.778V455.444H353.857V540.778H355.857ZM354.857 454.444H245.143V456.444H354.857V454.444ZM244.143 455.444V540.778H246.143V455.444H244.143Z" fill="black" mask="url(#path-4-inside-1_412_1345)"/>
<path d="M344.8 45.6327L306.4 85.4291L319.2 98.6945L364 52.2655V45.6327M300 108.644C299.151 108.644 298.337 108.294 297.737 107.672C297.137 107.05 296.8 106.207 296.8 105.327C296.8 104.448 297.137 103.604 297.737 102.982C298.337 102.36 299.151 102.011 300 102.011C300.849 102.011 301.663 102.36 302.263 102.982C302.863 103.604 303.2 104.448 303.2 105.327C303.2 106.207 302.863 107.05 302.263 107.672C301.663 108.294 300.849 108.644 300 108.644ZM261.6 158.389C258.205 158.389 254.949 156.991 252.549 154.504C250.149 152.016 248.8 148.642 248.8 145.124C248.8 137.761 254.56 131.858 261.6 131.858C264.995 131.858 268.251 133.256 270.651 135.744C273.051 138.231 274.4 141.605 274.4 145.124C274.4 152.486 268.64 158.389 261.6 158.389ZM261.6 78.7964C258.205 78.7964 254.949 77.3988 252.549 74.911C250.149 72.4232 248.8 69.0491 248.8 65.5309C248.8 58.1686 254.56 52.2655 261.6 52.2655C264.995 52.2655 268.251 53.6631 270.651 56.1508C273.051 58.6386 274.4 62.0127 274.4 65.5309C274.4 72.8932 268.64 78.7964 261.6 78.7964ZM284.896 76.4086C286.368 73.0922 287.2 69.4442 287.2 65.5309C287.2 58.4945 284.503 51.7462 279.702 46.7707C274.901 41.7952 268.39 39 261.6 39C254.81 39 248.299 41.7952 243.498 46.7707C238.697 51.7462 236 58.4945 236 65.5309C236 72.5673 238.697 79.3156 243.498 84.2911C248.299 89.2666 254.81 92.0618 261.6 92.0618C265.376 92.0618 268.896 91.1996 272.096 89.674L287.2 105.327L272.096 120.981C268.896 119.455 265.376 118.593 261.6 118.593C254.81 118.593 248.299 121.388 243.498 126.363C238.697 131.339 236 138.087 236 145.124C236 152.16 238.697 158.908 243.498 163.884C248.299 168.859 254.81 171.655 261.6 171.655C268.39 171.655 274.901 168.859 279.702 163.884C284.503 158.908 287.2 152.16 287.2 145.124C287.2 141.21 286.368 137.562 284.896 134.246L300 118.593L344.8 165.022H364V158.389L284.896 76.4086Z" fill="black"/>
<path d="M142.4 339.229C145.795 339.229 149.05 340.601 151.451 343.045C153.851 345.488 155.2 348.802 155.2 352.257C155.2 355.713 153.851 359.026 151.451 361.47C149.05 363.913 145.795 365.286 142.4 365.286C135.296 365.286 129.6 359.423 129.6 352.257C129.6 345.026 135.296 339.229 142.4 339.229ZM40 235H60.928L66.944 248.029H161.6C163.297 248.029 164.925 248.715 166.125 249.937C167.326 251.158 168 252.815 168 254.543C168 255.65 167.68 256.758 167.232 257.8L144.32 299.947C142.144 303.921 137.92 306.657 133.12 306.657H85.44L79.68 317.275L79.488 318.057C79.488 318.489 79.6566 318.903 79.9566 319.209C80.2567 319.514 80.6637 319.686 81.088 319.686H155.2V332.714H78.4C71.296 332.714 65.6 326.851 65.6 319.686C65.6 317.406 66.176 315.256 67.136 313.432L75.84 297.472L52.8 248.029H40V235ZM78.4 339.229C81.7948 339.229 85.0505 340.601 87.451 343.045C89.8514 345.488 91.2 348.802 91.2 352.257C91.2 355.713 89.8514 359.026 87.451 361.47C85.0505 363.913 81.7948 365.286 78.4 365.286C71.296 365.286 65.6 359.423 65.6 352.257C65.6 345.026 71.296 339.229 78.4 339.229ZM136 293.629L153.792 261.057H72.896L88 293.629H136Z" fill="black"/>
<g clip-path="url(#clip1_412_1345)">
<path d="M162.79 188.235L158.795 188.2L158.795 163.946L134.541 163.946L134.506 159.951L162.79 159.951L162.79 188.235Z" fill="black"/>
</g>
<g clip-path="url(#clip2_412_1345)">
<path d="M422.647 175.79L422.682 171.795L446.936 171.795L446.936 147.541L450.931 147.506L450.931 175.79L422.647 175.79Z" fill="black"/>
</g>
<g clip-path="url(#clip3_412_1345)">
<path d="M437.092 412.647L441.087 412.683L441.087 436.936L465.341 436.936L465.376 440.931L437.092 440.931L437.092 412.647Z" fill="black"/>
</g>
<g clip-path="url(#clip4_412_1345)">
<path d="M175.754 426.594L175.427 430.576L151.238 428.806L149.468 452.995L145.481 452.739L147.545 424.53L175.754 426.594Z" fill="black"/>
</g>
</g>
<defs>
<clipPath id="clip0_412_1345">
<rect width="600" height="600" fill="white"/>
</clipPath>
<clipPath id="clip1_412_1345">
<rect width="48" height="48" fill="white" transform="translate(121 167.941) rotate(-45)"/>
</clipPath>
<clipPath id="clip2_412_1345">
<rect width="48" height="48" fill="white" transform="translate(442.941 134) rotate(45)"/>
</clipPath>
<clipPath id="clip3_412_1345">
<rect width="48" height="48" fill="white" transform="translate(478.882 432.941) rotate(135)"/>
</clipPath>
<clipPath id="clip4_412_1345">
<rect width="48" height="48" fill="white" transform="translate(152.465 466.792) rotate(-130.816)"/>
</clipPath>
</defs>
</svg>
