<svg viewBox="0 0 600 600" fill="none" xmlns="http://www.w3.org/2000/svg">
<g clip-path="url(#clip0_412_1329)">
<circle cx="300" cy="300" r="300" fill="#C1E6C5"/>
<circle cx="299.5" cy="300.5" r="195.5" fill="white" stroke="black" stroke-width="2"/>
<path d="M554.852 316.342L539.049 344.137C535.952 349.658 530.2 352.547 524.384 352.161H511.742V365L495.94 336.113L511.742 307.227V320.065H529.568L515.535 295.351L542.905 279.303L554.283 299.331C557.57 304.274 558.012 310.886 554.852 316.342ZM475.144 237H506.749C512.943 237 518.316 240.659 520.908 245.923L527.229 257.092L538.164 250.673L521.477 278.982L488.923 279.56L499.859 273.14L490.946 257.413L476.977 282.127L449.543 266.079L460.921 246.051C463.513 240.723 468.886 237 475.144 237ZM448.848 344.202L433.045 316.406C429.948 310.95 430.391 304.402 433.614 299.459L439.935 288.354L429 281.935L461.49 282.448L478.241 310.821L467.305 304.402L458.393 320.065H486.458V352.161H463.702C457.824 352.611 452.009 349.658 448.848 344.202Z" fill="black"/>
<path d="M364 434.111H332L322.857 427H277.143L268 434.111H236V448.333H364M245.143 540.778C245.143 544.55 247.069 548.167 250.499 550.834C253.928 553.502 258.579 555 263.429 555H336.571C341.421 555 346.072 553.502 349.501 550.834C352.931 548.167 354.857 544.55 354.857 540.778V455.444H245.143V540.778Z" fill="black"/>
<mask id="path-5-inside-1_412_1329" fill="white">
<path d="M344.8 45.6327L306.4 85.4291L319.2 98.6945L364 52.2655V45.6327M300 108.644C299.151 108.644 298.337 108.294 297.737 107.672C297.137 107.05 296.8 106.207 296.8 105.327C296.8 104.448 297.137 103.604 297.737 102.982C298.337 102.36 299.151 102.011 300 102.011C300.849 102.011 301.663 102.36 302.263 102.982C302.863 103.604 303.2 104.448 303.2 105.327C303.2 106.207 302.863 107.05 302.263 107.672C301.663 108.294 300.849 108.644 300 108.644ZM261.6 158.389C258.205 158.389 254.949 156.991 252.549 154.504C250.149 152.016 248.8 148.642 248.8 145.124C248.8 137.761 254.56 131.858 261.6 131.858C264.995 131.858 268.251 133.256 270.651 135.744C273.051 138.231 274.4 141.605 274.4 145.124C274.4 152.486 268.64 158.389 261.6 158.389ZM261.6 78.7964C258.205 78.7964 254.949 77.3988 252.549 74.911C250.149 72.4232 248.8 69.0491 248.8 65.5309C248.8 58.1686 254.56 52.2655 261.6 52.2655C264.995 52.2655 268.251 53.6631 270.651 56.1508C273.051 58.6386 274.4 62.0127 274.4 65.5309C274.4 72.8932 268.64 78.7964 261.6 78.7964ZM284.896 76.4086C286.368 73.0922 287.2 69.4442 287.2 65.5309C287.2 58.4945 284.503 51.7462 279.702 46.7707C274.901 41.7952 268.39 39 261.6 39C254.81 39 248.299 41.7952 243.498 46.7707C238.697 51.7462 236 58.4945 236 65.5309C236 72.5673 238.697 79.3156 243.498 84.2911C248.299 89.2666 254.81 92.0618 261.6 92.0618C265.376 92.0618 268.896 91.1996 272.096 89.674L287.2 105.327L272.096 120.981C268.896 119.455 265.376 118.593 261.6 118.593C254.81 118.593 248.299 121.388 243.498 126.363C238.697 131.339 236 138.087 236 145.124C236 152.16 238.697 158.908 243.498 163.884C248.299 168.859 254.81 171.655 261.6 171.655C268.39 171.655 274.901 168.859 279.702 163.884C284.503 158.908 287.2 152.16 287.2 145.124C287.2 141.21 286.368 137.562 284.896 134.246L300 118.593L344.8 165.022H364V158.389L284.896 76.4086Z"/>
</mask>
<path d="M344.8 45.6327L306.4 85.4291L319.2 98.6945L364 52.2655V45.6327M300 108.644C299.151 108.644 298.337 108.294 297.737 107.672C297.137 107.05 296.8 106.207 296.8 105.327C296.8 104.448 297.137 103.604 297.737 102.982C298.337 102.36 299.151 102.011 300 102.011C300.849 102.011 301.663 102.36 302.263 102.982C302.863 103.604 303.2 104.448 303.2 105.327C303.2 106.207 302.863 107.05 302.263 107.672C301.663 108.294 300.849 108.644 300 108.644ZM261.6 158.389C258.205 158.389 254.949 156.991 252.549 154.504C250.149 152.016 248.8 148.642 248.8 145.124C248.8 137.761 254.56 131.858 261.6 131.858C264.995 131.858 268.251 133.256 270.651 135.744C273.051 138.231 274.4 141.605 274.4 145.124C274.4 152.486 268.64 158.389 261.6 158.389ZM261.6 78.7964C258.205 78.7964 254.949 77.3988 252.549 74.911C250.149 72.4232 248.8 69.0491 248.8 65.5309C248.8 58.1686 254.56 52.2655 261.6 52.2655C264.995 52.2655 268.251 53.6631 270.651 56.1508C273.051 58.6386 274.4 62.0127 274.4 65.5309C274.4 72.8932 268.64 78.7964 261.6 78.7964ZM284.896 76.4086C286.368 73.0922 287.2 69.4442 287.2 65.5309C287.2 58.4945 284.503 51.7462 279.702 46.7707C274.901 41.7952 268.39 39 261.6 39C254.81 39 248.299 41.7952 243.498 46.7707C238.697 51.7462 236 58.4945 236 65.5309C236 72.5673 238.697 79.3156 243.498 84.2911C248.299 89.2666 254.81 92.0618 261.6 92.0618C265.376 92.0618 268.896 91.1996 272.096 89.674L287.2 105.327L272.096 120.981C268.896 119.455 265.376 118.593 261.6 118.593C254.81 118.593 248.299 121.388 243.498 126.363C238.697 131.339 236 138.087 236 145.124C236 152.16 238.697 158.908 243.498 163.884C248.299 168.859 254.81 171.655 261.6 171.655C268.39 171.655 274.901 168.859 279.702 163.884C284.503 158.908 287.2 152.16 287.2 145.124C287.2 141.21 286.368 137.562 284.896 134.246L300 118.593L344.8 165.022H364V158.389L284.896 76.4086Z" fill="#0AC05E"/>
<path d="M306.4 85.4291L305.68 84.7347L305.01 85.4291L305.68 86.1235L306.4 85.4291ZM319.2 98.6945L318.48 99.3889L319.2 100.135L319.92 99.3889L319.2 98.6945ZM364 52.2655L364.72 52.9598L365 52.6692V52.2655H364ZM248.8 145.124H247.8H248.8ZM261.6 131.858V132.858V131.858ZM274.4 145.124H275.4H274.4ZM261.6 78.7964V79.7964V78.7964ZM248.8 65.5309H247.8H248.8ZM261.6 52.2655V51.2655V52.2655ZM274.4 65.5309H275.4H274.4ZM284.896 76.4086L283.982 76.0029L283.709 76.6184L284.176 77.103L284.896 76.4086ZM287.2 65.5309H288.2H287.2ZM261.6 39V38V39ZM236 65.5309H235H236ZM261.6 92.0618V93.0618V92.0618ZM272.096 89.674L272.816 88.9797L272.316 88.4615L271.666 88.7714L272.096 89.674ZM287.2 105.327L287.92 106.022L288.59 105.327L287.92 104.633L287.2 105.327ZM272.096 120.981L271.666 121.883L272.316 122.193L272.816 121.675L272.096 120.981ZM261.6 118.593V117.593V118.593ZM236 145.124H235H236ZM287.2 145.124H288.2H287.2ZM284.896 134.246L284.176 133.552L283.709 134.036L283.982 134.652L284.896 134.246ZM300 118.593L300.72 117.898L300 117.153L299.28 117.898L300 118.593ZM344.8 165.022L344.08 165.716L344.375 166.022H344.8V165.022ZM364 165.022V166.022H365V165.022H364ZM364 158.389H365V157.985L364.72 157.695L364 158.389ZM344.08 44.9384L305.68 84.7347L307.12 86.1235L345.52 46.3271L344.08 44.9384ZM305.68 86.1235L318.48 99.3889L319.92 98.0002L307.12 84.7347L305.68 86.1235ZM319.92 99.3889L364.72 52.9598L363.28 51.5711L318.48 98.0002L319.92 99.3889ZM365 52.2655V45.6327H363V52.2655H365ZM300 107.644C299.428 107.644 298.872 107.409 298.457 106.978L297.018 108.367C297.802 109.18 298.874 109.644 300 109.644V107.644ZM298.457 106.978C298.04 106.546 297.8 105.953 297.8 105.327H295.8C295.8 106.461 296.234 107.555 297.018 108.367L298.457 106.978ZM297.8 105.327C297.8 104.702 298.04 104.108 298.457 103.677L297.018 102.288C296.234 103.1 295.8 104.194 295.8 105.327H297.8ZM298.457 103.677C298.872 103.246 299.428 103.011 300 103.011V101.011C298.874 101.011 297.802 101.475 297.018 102.288L298.457 103.677ZM300 103.011C300.572 103.011 301.128 103.246 301.543 103.677L302.982 102.288C302.198 101.475 301.126 101.011 300 101.011V103.011ZM301.543 103.677C301.96 104.108 302.2 104.702 302.2 105.327H304.2C304.2 104.194 303.766 103.1 302.982 102.288L301.543 103.677ZM302.2 105.327C302.2 105.953 301.96 106.546 301.543 106.978L302.982 108.367C303.766 107.555 304.2 106.461 304.2 105.327H302.2ZM301.543 106.978C301.128 107.409 300.572 107.644 300 107.644V109.644C301.126 109.644 302.198 109.18 302.982 108.367L301.543 106.978ZM261.6 157.389C258.482 157.389 255.485 156.106 253.269 153.809L251.829 155.198C254.414 157.877 257.928 159.389 261.6 159.389V157.389ZM253.269 153.809C251.052 151.512 249.8 148.388 249.8 145.124H247.8C247.8 148.896 249.246 152.52 251.829 155.198L253.269 153.809ZM249.8 145.124C249.8 138.283 255.142 132.858 261.6 132.858V130.858C253.978 130.858 247.8 137.24 247.8 145.124H249.8ZM261.6 132.858C264.718 132.858 267.715 134.141 269.931 136.438L271.371 135.049C268.786 132.37 265.272 130.858 261.6 130.858V132.858ZM269.931 136.438C272.148 138.736 273.4 141.859 273.4 145.124H275.4C275.4 141.351 273.954 137.727 271.371 135.049L269.931 136.438ZM273.4 145.124C273.4 151.964 268.058 157.389 261.6 157.389V159.389C269.222 159.389 275.4 153.008 275.4 145.124H273.4ZM261.6 77.7964C258.482 77.7964 255.485 76.5131 253.269 74.2166L251.829 75.6054C254.414 78.2844 257.928 79.7964 261.6 79.7964V77.7964ZM253.269 74.2166C251.052 71.9189 249.8 68.7952 249.8 65.5309H247.8C247.8 69.303 249.246 72.9276 251.829 75.6054L253.269 74.2166ZM249.8 65.5309C249.8 58.6902 255.142 53.2655 261.6 53.2655V51.2655C253.978 51.2655 247.8 57.647 247.8 65.5309H249.8ZM261.6 53.2655C264.718 53.2655 267.715 54.5487 269.931 56.8452L271.371 55.4564C268.786 52.7774 265.272 51.2655 261.6 51.2655V53.2655ZM269.931 56.8452C272.148 59.1429 273.4 62.2666 273.4 65.5309H275.4C275.4 61.7588 273.954 58.1343 271.371 55.4564L269.931 56.8452ZM273.4 65.5309C273.4 72.3716 268.058 77.7964 261.6 77.7964V79.7964C269.222 79.7964 275.4 73.4149 275.4 65.5309H273.4ZM285.81 76.8143C287.337 73.3749 288.2 69.5891 288.2 65.5309H286.2C286.2 69.2994 285.399 72.8095 283.982 76.0029L285.81 76.8143ZM288.2 65.5309C288.2 58.2406 285.406 51.2419 280.422 46.0764L278.982 47.4651C283.6 52.2505 286.2 58.7484 286.2 65.5309H288.2ZM280.422 46.0764C275.436 40.9096 268.667 38 261.6 38V40C268.113 40 274.366 42.6809 278.982 47.4651L280.422 46.0764ZM261.6 38C254.533 38 247.764 40.9096 242.778 46.0764L244.218 47.4651C248.834 42.6809 255.087 40 261.6 40V38ZM242.778 46.0764C237.794 51.2419 235 58.2406 235 65.5309H237C237 58.7484 239.6 52.2505 244.218 47.4651L242.778 46.0764ZM235 65.5309C235 72.8213 237.794 79.8199 242.778 84.9855L244.218 83.5967C239.6 78.8113 237 72.3134 237 65.5309H235ZM242.778 84.9855C247.764 90.1522 254.533 93.0618 261.6 93.0618V91.0618C255.087 91.0618 248.834 88.381 244.218 83.5967L242.778 84.9855ZM261.6 93.0618C265.532 93.0618 269.199 92.1631 272.526 90.5767L271.666 88.7714C268.593 90.236 265.22 91.0618 261.6 91.0618V93.0618ZM271.376 90.3684L286.48 106.022L287.92 104.633L272.816 88.9797L271.376 90.3684ZM286.48 104.633L271.376 120.286L272.816 121.675L287.92 106.022L286.48 104.633ZM272.526 120.078C269.199 118.491 265.532 117.593 261.6 117.593V119.593C265.22 119.593 268.593 120.418 271.666 121.883L272.526 120.078ZM261.6 117.593C254.533 117.593 247.764 120.502 242.778 125.669L244.218 127.058C248.834 122.274 255.087 119.593 261.6 119.593V117.593ZM242.778 125.669C237.794 130.835 235 137.833 235 145.124H237C237 138.341 239.6 131.843 244.218 127.058L242.778 125.669ZM235 145.124C235 152.414 237.794 159.413 242.778 164.578L244.218 163.189C239.6 158.404 237 151.906 237 145.124H235ZM242.778 164.578C247.764 169.745 254.533 172.655 261.6 172.655V170.655C255.087 170.655 248.834 167.974 244.218 163.189L242.778 164.578ZM261.6 172.655C268.667 172.655 275.436 169.745 280.422 164.578L278.982 163.189C274.366 167.974 268.113 170.655 261.6 170.655V172.655ZM280.422 164.578C285.406 159.413 288.2 152.414 288.2 145.124H286.2C286.2 151.906 283.6 158.404 278.982 163.189L280.422 164.578ZM288.2 145.124C288.2 141.065 287.337 137.28 285.81 133.84L283.982 134.652C285.399 137.845 286.2 141.355 286.2 145.124H288.2ZM285.616 134.94L300.72 119.287L299.28 117.898L284.176 133.552L285.616 134.94ZM299.28 119.287L344.08 165.716L345.52 164.327L300.72 117.898L299.28 119.287ZM344.8 166.022H364V164.022H344.8V166.022ZM365 165.022V158.389H363V165.022H365ZM364.72 157.695L285.616 75.7142L284.176 77.103L363.28 159.083L364.72 157.695Z" fill="black" mask="url(#path-5-inside-1_412_1329)"/>
<path d="M142.4 339.229C145.795 339.229 149.05 340.601 151.451 343.045C153.851 345.488 155.2 348.802 155.2 352.257C155.2 355.713 153.851 359.026 151.451 361.47C149.05 363.913 145.795 365.286 142.4 365.286C135.296 365.286 129.6 359.423 129.6 352.257C129.6 345.026 135.296 339.229 142.4 339.229ZM40 235H60.928L66.944 248.029H161.6C163.297 248.029 164.925 248.715 166.125 249.937C167.326 251.158 168 252.815 168 254.543C168 255.65 167.68 256.758 167.232 257.8L144.32 299.947C142.144 303.921 137.92 306.657 133.12 306.657H85.44L79.68 317.275L79.488 318.057C79.488 318.489 79.6566 318.903 79.9566 319.209C80.2567 319.514 80.6637 319.686 81.088 319.686H155.2V332.714H78.4C71.296 332.714 65.6 326.851 65.6 319.686C65.6 317.406 66.176 315.256 67.136 313.432L75.84 297.472L52.8 248.029H40V235ZM78.4 339.229C81.7948 339.229 85.0505 340.601 87.451 343.045C89.8514 345.488 91.2 348.802 91.2 352.257C91.2 355.713 89.8514 359.026 87.451 361.47C85.0505 363.913 81.7948 365.286 78.4 365.286C71.296 365.286 65.6 359.423 65.6 352.257C65.6 345.026 71.296 339.229 78.4 339.229ZM136 293.629L153.792 261.057H72.896L88 293.629H136Z" fill="black"/>
<g clip-path="url(#clip1_412_1329)">
<path d="M162.79 188.235L158.795 188.2L158.795 163.946L134.541 163.946L134.506 159.951L162.79 159.951L162.79 188.235Z" fill="black"/>
</g>
<g clip-path="url(#clip2_412_1329)">
<path d="M422.647 175.79L422.682 171.795L446.936 171.795L446.936 147.541L450.931 147.506L450.931 175.79L422.647 175.79Z" fill="black"/>
</g>
<g clip-path="url(#clip3_412_1329)">
<path d="M437.092 412.647L441.087 412.683L441.087 436.936L465.341 436.936L465.376 440.931L437.092 440.931L437.092 412.647Z" fill="black"/>
</g>
<g clip-path="url(#clip4_412_1329)">
<path d="M175.754 426.594L175.427 430.576L151.238 428.806L149.468 452.995L145.481 452.739L147.545 424.53L175.754 426.594Z" fill="black"/>
</g>
</g>
<defs>
<clipPath id="clip0_412_1329">
<rect width="600" height="600" fill="white"/>
</clipPath>
<clipPath id="clip1_412_1329">
<rect width="48" height="48" fill="white" transform="translate(121 167.941) rotate(-45)"/>
</clipPath>
<clipPath id="clip2_412_1329">
<rect width="48" height="48" fill="white" transform="translate(442.941 134) rotate(45)"/>
</clipPath>
<clipPath id="clip3_412_1329">
<rect width="48" height="48" fill="white" transform="translate(478.882 432.941) rotate(135)"/>
</clipPath>
<clipPath id="clip4_412_1329">
<rect width="48" height="48" fill="white" transform="translate(152.465 466.792) rotate(-130.816)"/>
</clipPath>
</defs>
</svg>
