<svg viewBox="0 0 600 600" fill="none" xmlns="http://www.w3.org/2000/svg">
<circle cx="300" cy="300" r="300" fill="#ACFFD1"/>
<circle cx="299.5" cy="300.5" r="195.5" fill="#CCFFE3" stroke="black" stroke-width="2"/>
<path d="M361.852 119.342L346.049 147.137C342.952 152.658 337.2 155.547 331.384 155.161H318.742V168L302.94 139.113L318.742 110.227V123.065H336.568L322.535 98.3511L349.905 82.3029L361.283 102.331C364.57 107.274 365.012 113.886 361.852 119.342ZM282.144 40H313.749C319.943 40 325.316 43.659 327.908 48.9228L334.229 60.0923L345.164 53.673L328.477 81.9819L295.923 82.5597L306.859 76.1404L297.946 60.4132L283.977 85.1274L256.543 69.0792L267.921 49.0512C270.513 43.7232 275.886 40 282.144 40ZM255.848 147.202L240.045 119.406C236.948 113.95 237.391 107.402 240.614 102.459L246.935 91.3541L236 84.9348L268.49 85.4483L285.241 113.821L274.305 107.402L265.393 123.065H293.458V155.161H270.702C264.824 155.611 259.009 152.658 255.848 147.202Z" fill="black"/>
<path d="M364 439.111H332L322.857 432H277.143L268 439.111H236V453.333H364M245.143 545.778C245.143 549.55 247.069 553.167 250.499 555.834C253.928 558.502 258.579 560 263.429 560H336.571C341.421 560 346.072 558.502 349.501 555.834C352.931 553.167 354.857 549.55 354.857 545.778V460.444H245.143V545.778Z" fill="black"/>
<path d="M540.8 240.633L502.4 280.429L515.2 293.695L560 247.265V240.633M496 303.644C495.151 303.644 494.337 303.294 493.737 302.672C493.137 302.05 492.8 301.207 492.8 300.327C492.8 299.448 493.137 298.604 493.737 297.982C494.337 297.36 495.151 297.011 496 297.011C496.849 297.011 497.663 297.36 498.263 297.982C498.863 298.604 499.2 299.448 499.2 300.327C499.2 301.207 498.863 302.05 498.263 302.672C497.663 303.294 496.849 303.644 496 303.644ZM457.6 353.389C454.205 353.389 450.949 351.991 448.549 349.504C446.149 347.016 444.8 343.642 444.8 340.124C444.8 332.761 450.56 326.858 457.6 326.858C460.995 326.858 464.251 328.256 466.651 330.744C469.051 333.231 470.4 336.605 470.4 340.124C470.4 347.486 464.64 353.389 457.6 353.389ZM457.6 273.796C454.205 273.796 450.949 272.399 448.549 269.911C446.149 267.423 444.8 264.049 444.8 260.531C444.8 253.169 450.56 247.265 457.6 247.265C460.995 247.265 464.251 248.663 466.651 251.151C469.051 253.639 470.4 257.013 470.4 260.531C470.4 267.893 464.64 273.796 457.6 273.796ZM480.896 271.409C482.368 268.092 483.2 264.444 483.2 260.531C483.2 253.494 480.503 246.746 475.702 241.771C470.901 236.795 464.39 234 457.6 234C450.81 234 444.299 236.795 439.498 241.771C434.697 246.746 432 253.494 432 260.531C432 267.567 434.697 274.316 439.498 279.291C444.299 284.267 450.81 287.062 457.6 287.062C461.376 287.062 464.896 286.2 468.096 284.674L483.2 300.327L468.096 315.981C464.896 314.455 461.376 313.593 457.6 313.593C450.81 313.593 444.299 316.388 439.498 321.363C434.697 326.339 432 333.087 432 340.124C432 347.16 434.697 353.908 439.498 358.884C444.299 363.859 450.81 366.655 457.6 366.655C464.39 366.655 470.901 363.859 475.702 358.884C480.503 353.908 483.2 347.16 483.2 340.124C483.2 336.21 482.368 332.562 480.896 329.246L496 313.593L540.8 360.022H560V353.389L480.896 271.409Z" fill="black"/>
<path d="M142.4 339.229C145.795 339.229 149.05 340.601 151.451 343.045C153.851 345.488 155.2 348.802 155.2 352.257C155.2 355.713 153.851 359.026 151.451 361.47C149.05 363.913 145.795 365.286 142.4 365.286C135.296 365.286 129.6 359.423 129.6 352.257C129.6 345.026 135.296 339.229 142.4 339.229ZM40 235H60.928L66.944 248.029H161.6C163.297 248.029 164.925 248.715 166.125 249.937C167.326 251.158 168 252.815 168 254.543C168 255.65 167.68 256.758 167.232 257.8L144.32 299.947C142.144 303.921 137.92 306.657 133.12 306.657H85.44L79.68 317.275L79.488 318.057C79.488 318.489 79.6566 318.903 79.9566 319.209C80.2567 319.514 80.6637 319.686 81.088 319.686H155.2V332.714H78.4C71.296 332.714 65.6 326.851 65.6 319.686C65.6 317.406 66.176 315.256 67.136 313.432L75.84 297.472L52.8 248.029H40V235ZM78.4 339.229C81.7948 339.229 85.0505 340.601 87.451 343.045C89.8514 345.488 91.2 348.802 91.2 352.257C91.2 355.713 89.8514 359.026 87.451 361.47C85.0505 363.913 81.7948 365.286 78.4 365.286C71.296 365.286 65.6 359.423 65.6 352.257C65.6 345.026 71.296 339.229 78.4 339.229ZM136 293.629L153.792 261.057H72.896L88 293.629H136Z" fill="black"/>
<g clip-path="url(#clip0_375_1309)">
<path d="M162.79 188.235L158.795 188.2L158.795 163.946L134.541 163.946L134.506 159.951L162.79 159.951L162.79 188.235Z" fill="black"/>
</g>
<g clip-path="url(#clip1_375_1309)">
<path d="M422.647 175.79L422.682 171.795L446.936 171.795L446.936 147.541L450.931 147.506L450.931 175.79L422.647 175.79Z" fill="black"/>
</g>
<g clip-path="url(#clip2_375_1309)">
<path d="M437.092 412.647L441.087 412.683L441.087 436.936L465.341 436.936L465.376 440.931L437.092 440.931L437.092 412.647Z" fill="black"/>
</g>
<g clip-path="url(#clip3_375_1309)">
<path d="M175.754 426.594L175.427 430.576L151.238 428.806L149.468 452.995L145.481 452.739L147.545 424.53L175.754 426.594Z" fill="black"/>
</g>
<defs>
<clipPath id="clip0_375_1309">
<rect width="48" height="48" fill="white" transform="translate(121 167.941) rotate(-45)"/>
</clipPath>
<clipPath id="clip1_375_1309">
<rect width="48" height="48" fill="white" transform="translate(442.941 134) rotate(45)"/>
</clipPath>
<clipPath id="clip2_375_1309">
<rect width="48" height="48" fill="white" transform="translate(478.882 432.941) rotate(135)"/>
</clipPath>
<clipPath id="clip3_375_1309">
<rect width="48" height="48" fill="white" transform="translate(152.465 466.792) rotate(-130.816)"/>
</clipPath>
</defs>
</svg>
