<svg viewBox="0 0 200 144" fill="none" xmlns="http://www.w3.org/2000/svg">
<circle cx="72" cy="24" r="24" fill="#3C6352"/>
<circle cx="72" cy="72" r="24" fill="#3C6352"/>
<circle cx="72" cy="120" r="24" fill="#3C6352"/>
<mask id="mask0_67_129" style="mask-type:alpha" maskUnits="userSpaceOnUse" x="0" y="0" width="144" height="144">
<circle cx="72" cy="72" r="72" fill="#D9D9D9"/>
</mask>
<g mask="url(#mask0_67_129)">
<rect width="72" height="144" fill="#216F4D"/>
</g>
<circle cx="124" cy="24" r="24" fill="#668678"/>
<circle cx="176" cy="24" r="24" fill="#A2B9AF"/>
<circle cx="124" cy="72" r="24" fill="#668678"/>
<circle cx="176" cy="72" r="24" fill="#A2B9AF"/>
<circle cx="124" cy="120" r="24" fill="#668678"/>
<circle cx="176" cy="120" r="24" fill="#A2B9AF"/>
<path d="M66.055 10C66.055 10 75.2228 32.477 35.9314 47.5748C14.5814 55.7762 -1.8167 76.7971 17.7626 109.269C19.3841 94.7548 26.3369 62.7521 56.2337 55.4494C56.2337 55.4494 28.4076 65.8769 25.9495 113.078C40.2477 115.09 73.7812 116.442 83.7372 87.2781C96.8841 48.7463 66.055 10 66.055 10Z" fill="#33A271"/>
<path d="M25.8569 113C56.022 100.846 77.9707 72.3724 81 38.3823C74.8332 21.5881 65.7 10 65.7 10C65.7 10 74.8107 32.5029 35.7638 47.6179C14.5467 55.8287 -1.7494 76.8739 17.7081 109.383C19.3195 94.8521 26.229 62.8127 55.9398 55.5016C55.9381 55.5018 28.3674 65.9153 25.8569 113Z" fill="#00CD74"/>
</svg>
