<svg viewBox="0 0 982 763" fill="none" xmlns="http://www.w3.org/2000/svg">
<g clip-path="url(#clip0_119_120)">
<g clip-path="url(#clip1_119_120)">
<path d="M960.773 446.206C1067.75 564.514 757.636 735.014 507.053 735.014C256.471 735.014 83.107 602.907 53.3337 446.206C-18.8565 66.2588 668.411 -175.233 507.053 157.398C271.855 642.246 876.524 353.035 960.773 446.206Z" fill="#E6E6E6"/>
<path d="M912.773 474.206C1019.75 592.514 709.636 763.014 459.053 763.014C208.471 763.014 35.107 630.907 5.33368 474.206C-66.8565 94.2588 620.411 -147.233 459.053 185.398C223.855 670.246 828.523 381.035 912.773 474.206Z" fill="#3F3D56"/>
<path d="M149.594 196.825C74.5263 193.52 16.3224 177.327 17.087 159.961C17.5455 149.549 38.7903 141.177 75.3738 136.991C75.5047 136.976 75.6375 136.986 75.7645 137.021C75.8915 137.057 76.0101 137.117 76.1136 137.199C76.2172 137.281 76.3035 137.382 76.3677 137.497C76.4319 137.613 76.4726 137.739 76.4876 137.87C76.5026 138.002 76.4915 138.134 76.455 138.261C76.4185 138.388 76.3573 138.506 76.2749 138.609C76.1925 138.712 76.0905 138.798 75.9749 138.861C75.8592 138.924 75.7322 138.964 75.6011 138.978C41.1394 142.921 19.4837 150.995 19.0851 160.049C18.3936 175.753 78.1994 191.68 149.682 194.827C221.164 197.975 282.138 187.366 282.83 171.662C283.23 162.57 262.233 152.596 228.032 145.633C227.903 145.607 227.78 145.556 227.671 145.483C227.562 145.41 227.468 145.315 227.395 145.206C227.322 145.096 227.272 144.973 227.247 144.844C227.222 144.715 227.222 144.582 227.249 144.453C227.275 144.324 227.326 144.202 227.4 144.093C227.474 143.984 227.568 143.89 227.678 143.818C227.788 143.745 227.911 143.695 228.04 143.671C228.169 143.646 228.302 143.647 228.431 143.673C264.732 151.064 285.288 161.297 284.828 171.75C284.063 189.116 224.661 200.131 149.594 196.825Z" fill="#0AC05E"/>
<path d="M82.9229 199.734C89.2027 211.663 98.5053 221.735 109.9 228.94C121.294 236.145 134.381 240.232 147.851 240.791C161.321 241.35 174.702 238.362 186.654 232.126C198.607 225.889 208.712 216.624 215.959 205.256C171.546 205.854 127.133 204.011 82.9229 199.734V199.734Z" fill="#0AC05E"/>
<path d="M224.263 184.221C228.042 172.884 229.131 160.824 227.443 148.994C225.756 137.164 221.338 125.89 214.54 116.063C207.741 106.235 198.749 98.1254 188.274 92.3745C177.8 86.6235 166.13 83.3895 154.189 82.9284C142.249 82.4673 130.365 84.7917 119.478 89.7177C108.591 94.6437 98.9995 102.036 91.4635 111.31C83.9274 120.583 78.6533 131.484 76.0585 143.148C73.4636 154.813 73.6193 166.921 76.5132 178.515C125.309 186.798 174.973 188.716 224.263 184.221V184.221Z" fill="#0AC05E"/>
<path d="M168.833 132.601C173.804 132.601 177.833 128.571 177.833 123.601C177.833 118.63 173.804 114.601 168.833 114.601C163.863 114.601 159.833 118.63 159.833 123.601C159.833 128.571 163.863 132.601 168.833 132.601Z" fill="white"/>
<path d="M122.514 167.591C130.798 167.591 137.514 160.876 137.514 152.591C137.514 144.307 130.798 137.591 122.514 137.591C114.229 137.591 107.514 144.307 107.514 152.591C107.514 160.876 114.229 167.591 122.514 167.591Z" fill="white"/>
<path d="M348.905 152.898C354.428 152.898 358.905 148.421 358.905 142.898C358.905 137.375 354.428 132.898 348.905 132.898C343.382 132.898 338.905 137.375 338.905 142.898C338.905 148.421 343.382 152.898 348.905 152.898Z" fill="#0AC05E"/>
<path d="M122.905 458.898C126.219 458.898 128.905 456.212 128.905 452.898C128.905 449.584 126.219 446.898 122.905 446.898C119.591 446.898 116.905 449.584 116.905 452.898C116.905 456.212 119.591 458.898 122.905 458.898Z" fill="#E6E6E6"/>
<path d="M542.905 664.898C546.219 664.898 548.905 662.212 548.905 658.898C548.905 655.584 546.219 652.898 542.905 652.898C539.591 652.898 536.905 655.584 536.905 658.898C536.905 662.212 539.591 664.898 542.905 664.898Z" fill="#E6E6E6"/>
<path d="M151.905 342.898C153.562 342.898 154.905 341.555 154.905 339.898C154.905 338.241 153.562 336.898 151.905 336.898C150.248 336.898 148.905 338.241 148.905 339.898C148.905 341.555 150.248 342.898 151.905 342.898Z" fill="#E6E6E6"/>
<path d="M399.905 566.898C401.562 566.898 402.905 565.555 402.905 563.898C402.905 562.241 401.562 560.898 399.905 560.898C398.248 560.898 396.905 562.241 396.905 563.898C396.905 565.555 398.248 566.898 399.905 566.898Z" fill="#E6E6E6"/>
<path d="M850.905 537.898C852.562 537.898 853.905 536.555 853.905 534.898C853.905 533.241 852.562 531.898 850.905 531.898C849.248 531.898 847.905 533.241 847.905 534.898C847.905 536.555 849.248 537.898 850.905 537.898Z" fill="#E6E6E6"/>
<path d="M709.905 626.898C711.562 626.898 712.905 625.555 712.905 623.898C712.905 622.241 711.562 620.898 709.905 620.898C708.248 620.898 706.905 622.241 706.905 623.898C706.905 625.555 708.248 626.898 709.905 626.898Z" fill="#E6E6E6"/>
<path d="M562.905 518.898C564.562 518.898 565.905 517.555 565.905 515.898C565.905 514.241 564.562 512.898 562.905 512.898C561.248 512.898 559.905 514.241 559.905 515.898C559.905 517.555 561.248 518.898 562.905 518.898Z" fill="#E6E6E6"/>
<path d="M372.905 222.898C374.562 222.898 375.905 221.555 375.905 219.898C375.905 218.241 374.562 216.898 372.905 216.898C371.248 216.898 369.905 218.241 369.905 219.898C369.905 221.555 371.248 222.898 372.905 222.898Z" fill="#E6E6E6"/>
<path d="M396.905 74.8982C398.562 74.8982 399.905 73.555 399.905 71.8981C399.905 70.2412 398.562 68.8981 396.905 68.8981C395.248 68.8981 393.905 70.2412 393.905 71.8981C393.905 73.555 395.248 74.8982 396.905 74.8982Z" fill="#E6E6E6"/>
<path d="M382.905 697.898C384.562 697.898 385.905 696.555 385.905 694.898C385.905 693.241 384.562 691.898 382.905 691.898C381.248 691.898 379.905 693.241 379.905 694.898C379.905 696.555 381.248 697.898 382.905 697.898Z" fill="#E6E6E6"/>
<path d="M234.905 634.898C236.562 634.898 237.905 633.555 237.905 631.898C237.905 630.241 236.562 628.898 234.905 628.898C233.248 628.898 231.905 630.241 231.905 631.898C231.905 633.555 233.248 634.898 234.905 634.898Z" fill="#E6E6E6"/>
<path d="M703.905 526.898C705.562 526.898 706.905 525.555 706.905 523.898C706.905 522.241 705.562 520.898 703.905 520.898C702.248 520.898 700.905 522.241 700.905 523.898C700.905 525.555 702.248 526.898 703.905 526.898Z" fill="#E6E6E6"/>
<path d="M148.374 233.799C153.344 233.799 157.374 229.769 157.374 224.799C157.374 219.828 153.344 215.799 148.374 215.799C143.403 215.799 139.374 219.828 139.374 224.799C139.374 229.769 143.403 233.799 148.374 233.799Z" fill="white"/>
<path d="M926.633 309.415H728.325C711.656 309.415 698.095 295.854 698.095 279.185V80.8773C698.095 64.2083 711.656 50.6474 728.325 50.6474H926.633C943.302 50.6474 956.863 64.2083 956.863 80.8773V279.185C956.863 295.854 943.302 309.415 926.633 309.415V309.415ZM728.325 55.4842C714.301 55.4842 702.932 66.853 702.932 80.8772V279.185C702.932 293.209 714.301 304.578 728.325 304.578H867.235C914.064 304.578 952.026 266.616 952.026 219.787V80.8773C952.026 66.853 940.657 55.4842 926.633 55.4842H728.325V55.4842Z" fill="#F2F2F2"/>
<path d="M749.704 76.1061C740.319 76.1061 732.683 83.7415 732.683 93.1272V119.769C732.683 129.155 740.319 136.79 749.704 136.79H776.346C785.732 136.79 793.367 129.155 793.367 119.769V93.1272C793.367 83.7415 785.732 76.1061 776.346 76.1061H749.704Z" fill="#F2F2F2"/>
<path d="M749.704 151.106C740.319 151.106 732.683 158.741 732.683 168.127V194.769C732.683 204.155 740.319 211.79 749.704 211.79H776.346C785.732 211.79 793.367 204.155 793.367 194.769V168.127C793.367 158.741 785.732 151.106 776.346 151.106H749.704V151.106Z" fill="#F2F2F2"/>
<path d="M749.704 226.106C740.319 226.106 732.683 233.741 732.683 243.127V269.769C732.683 279.155 740.319 286.79 749.704 286.79H776.346C785.732 286.79 793.367 279.155 793.367 269.769V243.127C793.367 233.741 785.732 226.106 776.346 226.106H749.704Z" fill="#F2F2F2"/>
<path d="M767.372 11.1061C755.545 11.1061 745.925 20.7269 745.925 32.5532V66.1226C745.925 77.9489 755.545 87.5697 767.372 87.5697H800.941C812.767 87.5697 822.388 77.9489 822.388 66.1226V32.5532C822.388 20.7269 812.767 11.1061 800.941 11.1061H767.372V11.1061Z" fill="#0AC05E"/>
<path d="M877.89 104.919C866.064 104.919 856.443 114.539 856.443 126.366V159.935C856.443 171.761 866.064 181.382 877.89 181.382H911.46C923.286 181.382 932.907 171.761 932.907 159.935V126.366C932.907 114.539 923.286 104.919 911.46 104.919H877.89Z" fill="#0AC05E"/>
<path d="M829.842 442.808L823.023 442.75L820.004 415.833L830.069 415.917L829.842 442.808Z" fill="#A0616A"/>
<path d="M807.998 453.652C807.983 455.331 809.336 456.713 811.021 456.728L824.58 456.841L826.954 452.03L827.826 456.866L832.942 456.912L831.65 439.664L829.87 439.545L822.61 439.045L820.267 438.888L820.226 443.768L809.334 451.156C808.506 451.719 808.006 452.651 807.998 453.652H807.998Z" fill="#2F2E41"/>
<path d="M864.54 442.808L857.721 442.75L854.702 415.833L864.767 415.917L864.54 442.808Z" fill="#A0616A"/>
<path d="M842.696 453.652C842.681 455.331 844.034 456.713 845.719 456.728L859.278 456.841L861.652 452.03L862.523 456.866L867.64 456.912L866.348 439.664L864.568 439.545L857.307 439.045L854.965 438.888L854.924 443.768L844.032 451.156C843.203 451.719 842.704 452.651 842.696 453.652V453.652Z" fill="#2F2E41"/>
<path d="M803.081 225.178L830.724 226.051L856.913 231.871C856.913 231.871 854.294 235.072 863.024 243.801C863.024 243.801 874.663 264.17 866.516 283.957L863.024 363.105C863.024 363.105 873.205 418.898 865.426 436.656L855.145 437.298L837.749 363.748L829.27 284.539L825.196 362.523C825.196 362.523 840.781 416.049 830.939 437.298L819.805 436.656L800.753 362.523C800.753 362.523 792.606 276.973 793.77 260.678C794.934 244.383 803.081 225.178 803.081 225.178H803.081Z" fill="#2F2E41"/>
<path d="M895.914 100.113C892.135 101.091 889.865 104.948 890.844 108.727C891.292 110.458 892.348 111.867 893.721 112.798L893.721 112.807L893.185 125.792L903.121 130.391L903.914 110.409L903.845 110.411C904.707 108.876 905.004 107.022 904.528 105.183C903.55 101.404 899.693 99.1342 895.914 100.113V100.113Z" fill="#A0616A"/>
<path d="M840.378 146.455C838.291 144.386 837.08 141.58 837.034 138.53C836.973 134.438 839.024 130.723 842.52 128.595C846.546 126.143 851.58 126.391 855.345 129.226L886.548 152.719L892.108 118.875L904.044 122.718L901.196 166.788C900.997 169.87 899.255 172.586 896.536 174.052C893.816 175.518 890.591 175.481 887.905 173.954L842.813 148.299C841.907 147.783 841.091 147.162 840.378 146.455V146.455Z" fill="#3F3D56"/>
<path d="M792.799 81.1819C794.794 84.5373 793.691 88.8745 790.335 90.8692C788.798 91.7832 787.056 92.0397 785.426 91.7342L785.419 91.7414L776.658 101.34L766.364 97.6095L779.869 82.8613L779.916 82.9115C780.385 81.2149 781.479 79.6884 783.112 78.7179C786.467 76.7232 790.805 77.8264 792.799 81.1819V81.1819Z" fill="#A0616A"/>
<path d="M796.584 152.787L746.498 139.258C743.516 138.453 741.2 136.207 740.301 133.252C739.402 130.296 740.077 127.141 742.105 124.812L771.111 91.5105L782.293 97.1859L762.413 125.135L801.112 130.419C805.782 131.057 809.532 134.425 810.664 139.001C811.648 142.974 810.489 147.055 807.565 149.918C805.385 152.053 802.55 153.192 799.611 153.192C798.607 153.192 797.59 153.059 796.584 152.787H796.584Z" fill="#3F3D56"/>
<path d="M867.989 236.822L797.951 240.035C796.027 237.114 796.548 232.722 799.242 227.221C809.413 206.454 801.689 167.167 796.492 146.71C795.034 140.97 798.948 135.264 804.841 134.674L811.445 134.014L817.549 115.38H838.928L847.797 125.513L862.849 134.657C860.109 162.877 848.435 202.727 865.066 222.712C868.703 227.083 869.735 231.809 867.989 236.822V236.822Z" fill="#3F3D56"/>
<path d="M825.519 115.81C837.019 115.81 846.342 106.487 846.342 94.9868C846.342 83.4863 837.019 74.1632 825.519 74.1632C814.018 74.1632 804.695 83.4863 804.695 94.9868C804.695 106.487 814.018 115.81 825.519 115.81Z" fill="#A0616A"/>
<path d="M849.082 81.6576C851.98 71.0948 820.403 62.0369 814.267 70.5432C813.414 69.3338 810.26 68.5993 808.814 68.9703C807.367 69.3412 806.15 70.2687 804.963 71.1664C803.331 72.4203 801.639 73.7188 800.637 75.5217C799.628 77.3172 799.473 79.7657 800.83 81.3237C801.906 82.5628 803.797 89.1471 805.414 89.4735C806.542 89.7035 807.491 89.889 808.308 90.0226C809.035 88.9616 810.889 87.6288 810.755 86.3452C811.853 87.0723 811.452 88.3516 811.231 89.659C810.494 94.0126 793.885 127.714 803.397 117.783C804.34 118.34 805.505 118.859 806.848 119.334C809.125 115.899 810.995 111.848 812.227 107.611L812.235 107.689C812.659 111.371 815.35 114.392 818.91 115.423C833.189 119.56 844.739 113.49 848.713 102.543C847.258 99.5902 846.625 99.9109 846.755 99.8231C848.571 98.5993 851.066 99.3997 851.847 101.446C852.077 102.049 852.286 102.564 852.467 102.951C854.537 95.5465 856.999 96.6153 849.083 81.6576H849.082Z" fill="#2F2E41"/>
<path d="M839.232 73.994L837.773 66.537C837.65 65.9101 837.534 65.23 837.817 64.6572C838.18 63.9213 839.113 63.6163 839.926 63.7336C840.738 63.8509 841.345 64.5928 842.153 64.7357C844.963 65.2324 848.677 62.4571 849.684 69.4781C850.104 72.4054 854.775 72.7146 856.335 75.2269C857.895 77.7392 858.086 81.3655 855.957 83.418C854.257 85.0573 851.526 85.2465 849.318 84.4091C847.11 83.5717 845.337 81.8804 843.789 80.0967C842.241 78.3131 840.839 76.383 839.053 74.8372" fill="#2F2E41"/>
<path d="M850.195 85.3359C844.497 84.54 840.613 82.4677 838.651 79.1771C836.083 74.8697 837.803 70.1268 837.878 69.9269L839.082 70.3746C839.066 70.4183 837.506 74.7599 839.762 78.5302C841.516 81.4631 845.087 83.3248 850.372 84.0634L850.195 85.3359V85.3359Z" fill="#0AC05E"/>
</g>
</g>
<defs>
<clipPath id="clip0_119_120">
<rect width="982" height="763" fill="white"/>
</clipPath>
<clipPath id="clip1_119_120">
<rect width="982.487" height="763.014" fill="white"/>
</clipPath>
</defs>
</svg>
