<svg viewBox="0 0 39 96" fill="none" xmlns="http://www.w3.org/2000/svg">
<path d="M6.16667 0C5.0616 0 4.00179 0.438987 3.22039 1.22039C2.43899 2.00179 2 3.0616 2 4.16667V16.6667C2 17.7717 2.43899 18.8315 3.22039 19.6129C4.00179 20.3943 5.0616 20.8333 6.16667 20.8333H12.4167V16.6667H6.16667V4.16667H12.4167V0H6.16667ZM18.6667 0C17.5616 0 16.5018 0.438987 15.7204 1.22039C14.939 2.00179 14.5 3.0616 14.5 4.16667V16.6667C14.5 17.7717 14.939 18.8315 15.7204 19.6129C16.5018 20.3943 17.5616 20.8333 18.6667 20.8333H22.8333C23.9384 20.8333 24.9982 20.3943 25.7796 19.6129C26.561 18.8315 27 17.7717 27 16.6667V4.16667C27 3.0616 26.561 2.00179 25.7796 1.22039C24.9982 0.438987 23.9384 0 22.8333 0H18.6667ZM18.6667 4.16667H22.8333V16.6667H18.6667V4.16667ZM29.0833 7.29167V10.4167H35.3333V13.5417H32.2083C31.3795 13.5417 30.5847 13.8709 29.9986 14.457C29.4126 15.043 29.0833 15.8379 29.0833 16.6667V22.9167H38.4583V19.7917H32.2083V16.6667H35.3333C36.1621 16.6667 36.957 16.3374 37.543 15.7514C38.1291 15.1653 38.4583 14.3705 38.4583 13.5417V10.4167C38.4583 9.58786 38.1291 8.79301 37.543 8.20696C36.957 7.62091 36.1621 7.29167 35.3333 7.29167H29.0833Z" fill="#0AC05E"/>
<path d="M5.16667 25C4.0616 25 3.00179 25.439 2.22039 26.2204C1.43899 27.0018 1 28.0616 1 29.1667V41.6667C1 42.7717 1.43899 43.8315 2.22039 44.6129C3.00179 45.3943 4.0616 45.8333 5.16667 45.8333H11.4167V41.6667H5.16667V29.1667H11.4167V25H5.16667ZM17.6667 25C16.5616 25 15.5018 25.439 14.7204 26.2204C13.939 27.0018 13.5 28.0616 13.5 29.1667V41.6667C13.5 42.7717 13.939 43.8315 14.7204 44.6129C15.5018 45.3943 16.5616 45.8333 17.6667 45.8333H21.8333C22.9384 45.8333 23.9982 45.3943 24.7796 44.6129C25.561 43.8315 26 42.7717 26 41.6667V29.1667C26 28.0616 25.561 27.0018 24.7796 26.2204C23.9982 25.439 22.9384 25 21.8333 25H17.6667ZM17.6667 29.1667H21.8333V41.6667H17.6667V29.1667ZM28.0833 32.2917V35.4167H34.3333V38.5417H31.2083C30.3795 38.5417 29.5847 38.8709 28.9986 39.457C28.4126 40.043 28.0833 40.8379 28.0833 41.6667V47.9167H37.4583V44.7917H31.2083V41.6667H34.3333C35.1621 41.6667 35.957 41.3374 36.543 40.7514C37.1291 40.1653 37.4583 39.3705 37.4583 38.5417V35.4167C37.4583 34.5879 37.1291 33.793 36.543 33.207C35.957 32.6209 35.1621 32.2917 34.3333 32.2917H28.0833Z" fill="black"/>
<path d="M5.16667 48C4.0616 48 3.00179 48.439 2.22039 49.2204C1.43899 50.0018 1 51.0616 1 52.1667V64.6667C1 65.7717 1.43899 66.8315 2.22039 67.6129C3.00179 68.3943 4.0616 68.8333 5.16667 68.8333H11.4167V64.6667H5.16667V52.1667H11.4167V48H5.16667ZM17.6667 48C16.5616 48 15.5018 48.439 14.7204 49.2204C13.939 50.0018 13.5 51.0616 13.5 52.1667V64.6667C13.5 65.7717 13.939 66.8315 14.7204 67.6129C15.5018 68.3943 16.5616 68.8333 17.6667 68.8333H21.8333C22.9384 68.8333 23.9982 68.3943 24.7796 67.6129C25.561 66.8315 26 65.7717 26 64.6667V52.1667C26 51.0616 25.561 50.0018 24.7796 49.2204C23.9982 48.439 22.9384 48 21.8333 48H17.6667ZM17.6667 52.1667H21.8333V64.6667H17.6667V52.1667ZM28.0833 55.2917V58.4167H34.3333V61.5417H31.2083C30.3795 61.5417 29.5847 61.8709 28.9986 62.457C28.4126 63.043 28.0833 63.8379 28.0833 64.6667V70.9167H37.4583V67.7917H31.2083V64.6667H34.3333C35.1621 64.6667 35.957 64.3374 36.543 63.7514C37.1291 63.1653 37.4583 62.3705 37.4583 61.5417V58.4167C37.4583 57.5879 37.1291 56.793 36.543 56.207C35.957 55.6209 35.1621 55.2917 34.3333 55.2917H28.0833Z" fill="black"/>
<path d="M4.16667 73C3.0616 73 2.00179 73.439 1.22039 74.2204C0.438987 75.0018 0 76.0616 0 77.1667V89.6667C0 90.7717 0.438987 91.8315 1.22039 92.6129C2.00179 93.3943 3.0616 93.8333 4.16667 93.8333H10.4167V89.6667H4.16667V77.1667H10.4167V73H4.16667ZM16.6667 73C15.5616 73 14.5018 73.439 13.7204 74.2204C12.939 75.0018 12.5 76.0616 12.5 77.1667V89.6667C12.5 90.7717 12.939 91.8315 13.7204 92.6129C14.5018 93.3943 15.5616 93.8333 16.6667 93.8333H20.8333C21.9384 93.8333 22.9982 93.3943 23.7796 92.6129C24.561 91.8315 25 90.7717 25 89.6667V77.1667C25 76.0616 24.561 75.0018 23.7796 74.2204C22.9982 73.439 21.9384 73 20.8333 73H16.6667ZM16.6667 77.1667H20.8333V89.6667H16.6667V77.1667ZM27.0833 80.2917V83.4167H33.3333V86.5417H30.2083C29.3795 86.5417 28.5847 86.8709 27.9986 87.457C27.4126 88.043 27.0833 88.8379 27.0833 89.6667V95.9167H36.4583V92.7917H30.2083V89.6667H33.3333C34.1621 89.6667 34.957 89.3374 35.543 88.7514C36.1291 88.1653 36.4583 87.3705 36.4583 86.5417V83.4167C36.4583 82.5879 36.1291 81.793 35.543 81.207C34.957 80.6209 34.1621 80.2917 33.3333 80.2917H27.0833Z" fill="black"/>
</svg>
