<svg viewBox="0 0 45 102" fill="none" xmlns="http://www.w3.org/2000/svg">
<path d="M14.8325 60H6.8325C6.56728 60 6.31293 59.8946 6.12539 59.7071C5.93786 59.5196 5.8325 59.2652 5.8325 59V51.07L4.5325 52.07C4.1425 52.46 3.5125 52.46 3.1225 52.07L0.2925 49.29C-0.0975 48.9 -0.0975 48.27 0.2925 47.88L6.1725 42H7.8325C7.8325 43.1 9.1725 44 10.8325 44C12.4925 44 13.8325 43.1 13.8325 42H15.4925L21.3725 47.88C21.7625 48.27 21.7625 48.9 21.3725 49.29L18.5425 52.12C18.1525 52.5 17.5225 52.5 17.1325 52.12L15.8325 51.12V59C15.8325 59.2652 15.7271 59.5196 15.5396 59.7071C15.3521 59.8946 15.0977 60 14.8325 60Z" fill="black"/>
<path d="M14.8325 39H6.8325C6.56728 39 6.31293 38.8946 6.12539 38.7071C5.93786 38.5196 5.8325 38.2652 5.8325 38V30.07L4.5325 31.07C4.1425 31.46 3.5125 31.46 3.1225 31.07L0.2925 28.29C-0.0975 27.9 -0.0975 27.27 0.2925 26.88L6.1725 21H7.8325C7.8325 22.1 9.1725 23 10.8325 23C12.4925 23 13.8325 22.1 13.8325 21H15.4925L21.3725 26.88C21.7625 27.27 21.7625 27.9 21.3725 28.29L18.5425 31.12C18.1525 31.5 17.5225 31.5 17.1325 31.12L15.8325 30.12V38C15.8325 38.2652 15.7271 38.5196 15.5396 38.7071C15.3521 38.8946 15.0977 39 14.8325 39Z" fill="black"/>
<path d="M14.8325 18H6.8325C6.56728 18 6.31293 17.8946 6.12539 17.7071C5.93786 17.5196 5.8325 17.2652 5.8325 17V9.07L4.5325 10.07C4.1425 10.46 3.5125 10.46 3.1225 10.07L0.2925 7.29C-0.0975 6.9 -0.0975 6.27 0.2925 5.88L6.1725 0H7.8325C7.8325 1.1 9.1725 2 10.8325 2C12.4925 2 13.8325 1.1 13.8325 0H15.4925L21.3725 5.88C21.7625 6.27 21.7625 6.9 21.3725 7.29L18.5425 10.12C18.1525 10.5 17.5225 10.5 17.1325 10.12L15.8325 9.12V17C15.8325 17.2652 15.7271 17.5196 15.5396 17.7071C15.3521 17.8946 15.0977 18 14.8325 18Z" fill="black"/>
<path d="M37.665 60H29.665C29.3998 60 29.1454 59.8946 28.9579 59.7071C28.7704 59.5196 28.665 59.2652 28.665 59V51.07L27.365 52.07C26.975 52.46 26.345 52.46 25.955 52.07L23.125 49.29C22.735 48.9 22.735 48.27 23.125 47.88L29.005 42H30.665C30.665 43.1 32.005 44 33.665 44C35.325 44 36.665 43.1 36.665 42H38.325L44.205 47.88C44.595 48.27 44.595 48.9 44.205 49.29L41.375 52.12C40.985 52.5 40.355 52.5 39.965 52.12L38.665 51.12V59C38.665 59.2652 38.5596 59.5196 38.3721 59.7071C38.1846 59.8946 37.9302 60 37.665 60Z" fill="black"/>
<path d="M37.665 39H29.665C29.3998 39 29.1454 38.8946 28.9579 38.7071C28.7704 38.5196 28.665 38.2652 28.665 38V30.07L27.365 31.07C26.975 31.46 26.345 31.46 25.955 31.07L23.125 28.29C22.735 27.9 22.735 27.27 23.125 26.88L29.005 21H30.665C30.665 22.1 32.005 23 33.665 23C35.325 23 36.665 22.1 36.665 21H38.325L44.205 26.88C44.595 27.27 44.595 27.9 44.205 28.29L41.375 31.12C40.985 31.5 40.355 31.5 39.965 31.12L38.665 30.12V38C38.665 38.2652 38.5596 38.5196 38.3721 38.7071C38.1846 38.8946 37.9302 39 37.665 39Z" fill="black"/>
<path d="M14.8325 102H6.8325C6.56728 102 6.31293 101.895 6.12539 101.707C5.93786 101.52 5.8325 101.265 5.8325 101V93.07L4.5325 94.07C4.1425 94.46 3.5125 94.46 3.1225 94.07L0.2925 91.29C-0.0975 90.9 -0.0975 90.27 0.2925 89.88L6.1725 84H7.8325C7.8325 85.1 9.1725 86 10.8325 86C12.4925 86 13.8325 85.1 13.8325 84H15.4925L21.3725 89.88C21.7625 90.27 21.7625 90.9 21.3725 91.29L18.5425 94.12C18.1525 94.5 17.5225 94.5 17.1325 94.12L15.8325 93.12V101C15.8325 101.265 15.7271 101.52 15.5396 101.707C15.3521 101.895 15.0977 102 14.8325 102Z" fill="black"/>
<path d="M14.8325 81H6.8325C6.56728 81 6.31293 80.8946 6.12539 80.7071C5.93786 80.5196 5.8325 80.2652 5.8325 80V72.07L4.5325 73.07C4.1425 73.46 3.5125 73.46 3.1225 73.07L0.2925 70.29C-0.0975 69.9 -0.0975 69.27 0.2925 68.88L6.1725 63H7.8325C7.8325 64.1 9.1725 65 10.8325 65C12.4925 65 13.8325 64.1 13.8325 63H15.4925L21.3725 68.88C21.7625 69.27 21.7625 69.9 21.3725 70.29L18.5425 73.12C18.1525 73.5 17.5225 73.5 17.1325 73.12L15.8325 72.12V80C15.8325 80.2652 15.7271 80.5196 15.5396 80.7071C15.3521 80.8946 15.0977 81 14.8325 81Z" fill="black"/>
<path d="M37.665 102H29.665C29.3998 102 29.1454 101.895 28.9579 101.707C28.7704 101.52 28.665 101.265 28.665 101V93.07L27.365 94.07C26.975 94.46 26.345 94.46 25.955 94.07L23.125 91.29C22.735 90.9 22.735 90.27 23.125 89.88L29.005 84H30.665C30.665 85.1 32.005 86 33.665 86C35.325 86 36.665 85.1 36.665 84H38.325L44.205 89.88C44.595 90.27 44.595 90.9 44.205 91.29L41.375 94.12C40.985 94.5 40.355 94.5 39.965 94.12L38.665 93.12V101C38.665 101.265 38.5596 101.52 38.3721 101.707C38.1846 101.895 37.9302 102 37.665 102Z" fill="#33EA23"/>
<path d="M37.665 81H29.665C29.3998 81 29.1454 80.8946 28.9579 80.7071C28.7704 80.5196 28.665 80.2652 28.665 80V72.07L27.365 73.07C26.975 73.46 26.345 73.46 25.955 73.07L23.125 70.29C22.735 69.9 22.735 69.27 23.125 68.88L29.005 63H30.665C30.665 64.1 32.005 65 33.665 65C35.325 65 36.665 64.1 36.665 63H38.325L44.205 68.88C44.595 69.27 44.595 69.9 44.205 70.29L41.375 73.12C40.985 73.5 40.355 73.5 39.965 73.12L38.665 72.12V80C38.665 80.2652 38.5596 80.5196 38.3721 80.7071C38.1846 80.8946 37.9302 81 37.665 81Z" fill="black"/>
<path d="M36.8325 18H28.8325C28.5673 18 28.3129 17.8946 28.1254 17.7071C27.9379 17.5196 27.8325 17.2652 27.8325 17V9.07L26.5325 10.07C26.1425 10.46 25.5125 10.46 25.1225 10.07L22.2925 7.29C21.9025 6.9 21.9025 6.27 22.2925 5.88L28.1725 0H29.8325C29.8325 1.1 31.1725 2 32.8325 2C34.4925 2 35.8325 1.1 35.8325 0H37.4925L43.3725 5.88C43.7625 6.27 43.7625 6.9 43.3725 7.29L40.5425 10.12C40.1525 10.5 39.5225 10.5 39.1325 10.12L37.8325 9.12V17C37.8325 17.2652 37.7271 17.5196 37.5396 17.7071C37.3521 17.8946 37.0977 18 36.8325 18Z" fill="black"/>
</svg>
