<svg viewBox="0 0 60 44" fill="none" xmlns="http://www.w3.org/2000/svg">
<path d="M51.8182 11H38.1818V27.5H2.72727V35.75H5.45455C5.45455 40.425 9 44 13.6364 44C18.2727 44 21.8182 40.425 21.8182 35.75H38.1818C38.1818 40.425 41.7273 44 46.3636 44C51 44 54.5455 40.425 54.5455 35.75H60V22L51.8182 11ZM13.6364 39.875C11.4545 39.875 9.54545 37.95 9.54545 35.75C9.54545 33.55 11.4545 31.625 13.6364 31.625C15.8182 31.625 17.7273 33.55 17.7273 35.75C17.7273 37.95 15.8182 39.875 13.6364 39.875ZM46.3636 39.875C44.1818 39.875 42.2727 37.95 42.2727 35.75C42.2727 33.55 44.1818 31.625 46.3636 31.625C48.5455 31.625 50.4545 33.55 50.4545 35.75C50.4545 37.95 48.5455 39.875 46.3636 39.875ZM43.6364 22V15.125H50.4545L55.9091 22H43.6364ZM35.4545 15.125C35.4545 20.35 31.0909 24.75 25.9091 24.75H9.54545C4.36364 24.75 0 20.35 0 15.125C0 9.9 4.36364 5.5 9.54545 5.5H10.9091V2.75H8.18182V0H19.0909V2.75H16.3636V5.5H25.9091C31.0909 5.5 35.4545 9.9 35.4545 15.125Z" fill="black"/>
</svg>
