<svg viewBox="0 0 89 58" fill="none" xmlns="http://www.w3.org/2000/svg">
<path d="M10.7261 0.555664C8.06873 0.555664 5.52215 1.64194 3.64316 3.57579C1.76416 5.50938 0.709961 8.13201 0.709961 10.8668V41.8001C0.709961 44.5349 1.76416 47.1575 3.64316 49.0911C5.52215 51.0249 8.06873 52.1112 10.7261 52.1112H25.7478V41.8001H10.7261V10.8668H25.7478V0.555664H10.7261ZM40.772 0.555664C38.1146 0.555664 35.5681 1.64194 33.6891 3.57579C31.8126 5.50938 30.7559 8.13201 30.7559 10.8668V41.8001C30.7559 44.5349 31.8126 47.1575 33.6891 49.0911C35.5681 51.0249 38.1146 52.1112 40.772 52.1112H50.7882C53.443 52.1112 55.9896 51.0249 57.8686 49.0911C59.7476 47.1575 60.8018 44.5349 60.8018 41.8001V10.8668C60.8018 8.13201 59.7476 5.50938 57.8686 3.57579C55.9896 1.64194 53.443 0.555664 50.7882 0.555664H40.772ZM40.772 10.8668H50.7882V41.8001H40.772V10.8668ZM65.8099 18.6001V26.3334H80.8341V34.0668H73.3207C71.3309 34.0668 69.4184 34.8816 68.011 36.3319C66.6012 37.7821 65.8099 39.7492 65.8099 41.8001V57.2668H88.345V49.5334H73.3207V41.8001H80.8341C82.8265 41.8001 84.7365 40.9853 86.1438 39.535C87.5537 38.0848 88.345 36.1177 88.345 34.0668V26.3334C88.345 24.2826 87.5537 22.3155 86.1438 20.8652C84.7365 19.4149 82.8265 18.6001 80.8341 18.6001H65.8099Z" fill="#FF0000"/>
</svg>
