<svg viewBox="0 0 78 65" fill="none" xmlns="http://www.w3.org/2000/svg">
<path d="M48.0569 22.3767C49.2222 22.3767 50.3395 22.8481 51.1635 23.6875C51.9876 24.5265 52.4502 25.6649 52.4502 26.8519C52.4502 28.0388 51.9876 29.1771 51.1635 30.0164C50.3395 30.8557 49.2222 31.3272 48.0569 31.3272C46.8916 31.3272 45.7742 30.8557 44.9502 30.0164C44.1262 29.1771 43.6633 28.0388 43.6633 26.8519C43.6633 25.6649 44.1262 24.5265 44.9502 23.6875C45.7742 22.8481 46.8916 22.3767 48.0569 22.3767ZM30.483 22.3767C31.6482 22.3767 32.7656 22.8481 33.5896 23.6875C34.4137 24.5265 34.8766 25.6649 34.8766 26.8519C34.8766 28.0388 34.4137 29.1771 33.5896 30.0164C32.7656 30.8557 31.6482 31.3272 30.483 31.3272C29.3177 31.3272 28.2003 30.8557 27.3763 30.0164C26.5523 29.1771 26.0896 28.0388 26.0896 26.8519C26.0896 25.6649 26.5523 24.5265 27.3763 23.6875C28.2003 22.8481 29.3177 22.3767 30.483 22.3767ZM23.4534 39.3828H55.0865C52.4152 45.7197 46.2995 50.1233 39.2699 50.1233C32.2403 50.1233 26.1247 45.7197 23.4534 39.3828ZM0.607422 32.2222C0.607422 25.7419 4.82525 20.2642 10.6597 18.51C15.6858 7.55444 26.6167 0 39.2699 0C51.9231 0 62.854 7.55444 67.9152 18.51C73.7146 20.2642 77.9324 25.7419 77.9324 32.2222C77.9324 38.7025 73.7146 44.1803 67.9152 45.9344C62.854 56.89 51.9231 64.4444 39.2699 64.4444C26.6167 64.4444 15.6858 56.89 10.6597 45.9344C4.82525 44.1803 0.607422 38.7025 0.607422 32.2222ZM39.2699 7.16055C28.0928 7.16055 18.6734 14.7506 15.6507 25.0617H14.6664C12.8021 25.0617 11.0141 25.8162 9.69594 27.1589C8.37755 28.5017 7.63703 30.3232 7.63703 32.2222C7.63703 34.1213 8.37755 35.9425 9.69594 37.2855C11.0141 38.6283 12.8021 39.3828 14.6664 39.3828H15.6507C18.6734 49.6939 28.0928 57.2839 39.2699 57.2839C50.447 57.2839 59.8665 49.6939 62.8891 39.3828H63.8734C65.7378 39.3828 67.5258 38.6283 68.8439 37.2855C70.1623 35.9425 70.9028 34.1213 70.9028 32.2222C70.9028 30.3232 70.1623 28.5017 68.8439 27.1589C67.5258 25.8162 65.7378 25.0617 63.8734 25.0617H62.8891C59.8665 14.7506 50.447 7.16055 39.2699 7.16055Z" fill="#D28D4D"/>
</svg>
