<svg viewBox="0 0 73 73" fill="none" xmlns="http://www.w3.org/2000/svg">
<path d="M65.0829 23.5466C65.0829 25.9396 64.1318 28.2343 62.4409 29.9264C60.7475 31.6184 58.4535 32.5689 56.0616 32.5689C52.1644 32.5689 48.8446 30.0787 47.6177 26.6503C46.03 28.0578 43.9371 28.96 41.6276 28.96C39.6069 28.96 37.7304 28.2743 36.2149 27.1555C34.6993 28.2743 32.859 28.96 30.8021 28.96C28.4927 28.96 26.3998 28.0578 24.812 26.6503C23.5851 30.0787 20.2653 32.5689 16.3681 32.5689C13.9754 32.5689 11.681 31.6184 9.98909 29.9264C8.29722 28.2343 7.34689 25.9396 7.34689 23.5466C7.34689 19.0716 10.6306 15.3545 14.9247 14.6688C14.7082 14.0553 14.5639 13.4057 14.5639 12.72C14.5639 11.2842 15.134 9.90737 16.1493 8.89224C17.1643 7.87685 18.541 7.30664 19.9766 7.30664C20.6983 7.30664 21.3839 7.451 21.9974 7.70362C22.6108 5.39393 24.7038 3.69776 27.1936 3.69776C28.0958 3.69776 28.9979 3.95038 29.6474 4.31127C30.8021 1.89331 33.292 0.0888672 36.2149 0.0888672C39.1378 0.0888672 41.6276 1.89331 42.7823 4.31127C43.4319 3.95038 44.334 3.69776 45.2361 3.69776C47.726 3.69776 49.8189 5.39393 50.4324 7.70362C51.0458 7.451 51.7314 7.30664 52.4531 7.30664C53.8888 7.30664 55.2652 7.87685 56.2807 8.89224C57.2963 9.90737 57.8659 11.2842 57.8659 12.72C57.8659 13.4057 57.7215 14.0553 57.505 14.6688C61.7991 15.3545 65.0829 19.0716 65.0829 23.5466ZM28.9979 36.1778C28.0416 36.1778 27.124 36.558 26.4462 37.2349C25.7683 37.9116 25.3894 38.8295 25.3894 39.7867C25.3894 40.7438 25.7683 41.6617 26.4462 42.3384C27.124 43.0153 28.0416 43.3955 28.9979 43.3955C29.9541 43.3955 30.8717 43.0153 31.5496 42.3384C32.2275 41.6617 32.6064 40.7438 32.6064 39.7867C32.6064 38.8295 32.2275 37.9116 31.5496 37.2349C30.8717 36.558 29.9541 36.1778 28.9979 36.1778ZM43.4319 36.1778C42.4756 36.1778 41.558 36.558 40.8801 37.2349C40.2023 37.9116 39.8234 38.8295 39.8234 39.7867C39.8234 40.7438 40.2023 41.6617 40.8801 42.3384C41.558 43.0153 42.4756 43.3955 43.4319 43.3955C44.3881 43.3955 45.3057 43.0153 45.9836 42.3384C46.6589 41.6617 47.0404 40.7438 47.0404 39.7867C47.0404 38.8295 46.6589 37.9116 45.9836 37.2349C45.3057 36.558 44.3881 36.1778 43.4319 36.1778ZM65.9128 31.3418C63.6034 34.265 60.0671 36.1778 56.0616 36.1778C54.4378 36.1778 52.8861 35.8169 51.4067 35.2034C51.3706 44.406 50.0354 55.5214 45.0557 61.2595C43.1793 63.3888 40.9059 64.5436 38.0191 64.9045V57.8311H34.4106V64.9045C31.5238 64.5436 29.2505 63.4249 27.3741 61.2595C22.3582 55.4853 21.0231 44.4421 20.987 35.2394C19.5436 35.8169 17.992 36.1778 16.3681 36.1778C12.3627 36.1778 8.82636 34.265 6.51692 31.3418C3.30535 34.5538 0.129883 36.1778 0.129883 36.1778C0.129883 36.1778 3.73837 43.3955 10.9554 43.3955C12.2544 43.3955 13.2648 43.2512 14.1309 43.0707C15.3577 56.8567 20.2653 72.2666 36.2149 72.2666C52.1645 72.2666 57.072 56.8567 58.2989 43.0707C59.1649 43.2512 60.1753 43.3955 61.4744 43.3955C68.6914 43.3955 72.2999 36.1778 72.2999 36.1778C72.2999 36.1778 69.1244 34.5538 65.9128 31.3418Z" fill="black"/>
</svg>
