<svg viewBox="0 0 86 86" fill="none" xmlns="http://www.w3.org/2000/svg">
<path d="M73.0293 53.2555C73.0293 53.2555 81.5351 62.4853 81.5351 68.1422C81.5351 70.3983 80.6381 72.5621 79.0426 74.1574C77.4497 75.7526 75.2846 76.6489 73.0293 76.6489C70.774 76.6489 68.609 75.7526 67.0161 74.1574C65.4206 72.5621 64.5236 70.3983 64.5236 68.1422C64.5236 62.4853 73.0293 53.2555 73.0293 53.2555ZM13.4891 68.1422V29.8622C11.2338 29.8622 9.06869 28.9659 7.4758 27.3708C5.88033 25.7754 4.98333 23.6116 4.98333 21.3555C4.98333 19.0995 5.88033 16.9357 7.4758 15.3403C9.06869 13.7452 11.2338 12.8489 13.4891 12.8489V8.59553C13.4891 6.33946 14.386 4.17567 15.9815 2.58029C17.5744 0.985159 19.7395 0.0888672 21.9948 0.0888672H30.5006C32.7559 0.0888672 34.921 0.985159 36.5139 2.58029C38.1094 4.17567 39.0064 6.33946 39.0064 8.59553V12.8489H73.0293C75.2846 12.8489 77.4497 13.7452 79.0426 15.3403C80.6381 16.9357 81.5351 19.0995 81.5351 21.3555V29.8622V38.3689C82.6641 38.3689 83.744 38.8169 84.543 39.6147C85.3395 40.4123 85.788 41.4942 85.788 42.6222C85.788 43.7502 85.3395 44.8321 84.543 45.6297C83.744 46.4275 82.6641 46.8755 81.5351 46.8755H64.5236C63.3946 46.8755 62.3147 46.4275 61.5157 45.6297C60.7192 44.8321 60.2707 43.7502 60.2707 42.6222C60.2707 41.4942 60.7192 40.4123 61.5157 39.6147C62.3147 38.8169 63.3946 38.3689 64.5236 38.3689V29.8622H39.0064V68.1422H43.2592C45.5145 68.1422 47.6797 69.0385 49.2725 70.6336C50.868 72.229 51.7649 74.3928 51.7649 76.6489V85.1555H0.730469V76.6489C0.730469 74.3928 1.62747 72.229 3.22294 70.6336C4.81583 69.0385 6.98088 68.1422 9.23619 68.1422H13.4891Z" fill="#392BD3"/>
</svg>
