<svg viewBox="0 0 79 93" fill="none" xmlns="http://www.w3.org/2000/svg">
<path d="M30.695 74.9684C30.695 78.5221 31.293 81.8727 32.3859 85.1218C31.8395 85.1218 31.293 85.1218 30.695 85.1218C14.2248 85.1218 0.839844 71.4657 0.839844 54.6622C0.839844 34.3558 30.695 0.0888672 30.695 0.0888672C30.695 0.0888672 52.1398 24.7103 58.6583 44.5089C43.1341 45.6258 30.695 58.8251 30.695 74.9684ZM78.1648 64.2062L71.1489 57.0482L60.5502 67.8104L50.0005 57.0482L42.9846 64.2062L53.5343 74.9684L42.9846 85.7309L50.0005 92.8889L60.5502 82.1264L71.0999 92.8889L78.1158 85.7309L67.5662 74.9684L78.1648 64.2062Z" fill="#936315"/>
</svg>
