<svg viewBox="0 0 364 299" fill="none" xmlns="http://www.w3.org/2000/svg">
<path d="M345.547 298.5H2.75741C-4.34245 257.339 1.29307 183.78 80.634 218.833C79.9684 191.614 90.485 143.283 137.876 167.714C152.52 100.661 190.193 6.78728 223.74 167.714C233.281 140.495 257.287 102.387 276.989 167.714C318.257 163.731 389.744 184.311 345.547 298.5Z" fill="black" stroke="black"/>
<path d="M302.926 261.62L307.843 263.259" stroke="black" stroke-width="0.4"/>
<path d="M323.894 261.706L304.672 269.023C304.034 269.265 303.327 269.245 302.705 268.966C302.083 268.687 301.597 268.172 301.354 267.534L294.102 248.48L291.892 252.072C291.312 253.366 289.798 253.942 288.505 253.361L279.162 249.27C277.868 248.689 277.292 247.176 277.872 245.882L286.623 226.376L290.612 224.857C292.955 228.917 297.058 231.675 301.707 232.326C304.747 228.748 305.978 223.96 305.029 219.37L309.018 217.852L328.524 226.603C329.818 227.183 330.394 228.697 329.813 229.991L325.602 239.379C325.012 240.649 323.498 241.225 322.214 240.668L318.175 239.455L325.382 258.389C325.625 259.026 325.604 259.734 325.325 260.356C325.046 260.978 324.531 261.464 323.894 261.706Z" fill="white"/>
<path d="M301.285 260.8L307.022 264.078M303.743 260.8L302.104 263.259M305.382 261.62L303.743 264.078M307.022 262.439L305.382 264.898M316.037 225.559V232.935M320.954 226.379V234.574M313.578 227.198L324.232 229.657M313.578 230.477L323.413 232.935M284.074 238.672L289.811 228.837M287.352 229.657L289.811 233.755M284.894 233.755L287.352 237.033M284.074 236.213L285.713 239.492" stroke="black" stroke-width="0.4"/>
<path d="M312.937 251.064L306.904 248.497L304.336 254.53L298.303 251.962L300.871 245.929L294.838 243.362L297.405 237.329L303.438 239.896L306.006 233.864L312.039 236.431L309.471 242.464L315.504 245.031" fill="black"/>
<path d="M225.398 269.029L223.387 268.173L222.531 270.184L220.52 269.328L221.376 267.317L219.365 266.461L220.221 264.45L222.232 265.306L223.088 263.295L225.099 264.151L224.243 266.162L226.254 267.018" fill="white"/>
<path d="M125.082 208.103L115.357 189.98C115.034 189.38 114.964 188.675 115.161 188.022C115.357 187.37 115.806 186.822 116.406 186.499L134.371 176.858L130.524 175.129C129.167 174.72 128.401 173.293 128.811 171.935L131.668 162.144C132.077 160.786 133.504 160.02 134.862 160.43L155.33 166.601L157.349 170.362C153.624 173.207 151.417 177.631 151.369 182.325C155.307 184.88 160.213 185.486 164.644 183.954L166.662 187.715L160.49 208.184C160.081 209.541 158.654 210.307 157.296 209.898L147.444 206.928C146.109 206.506 145.344 205.079 145.73 203.733L146.414 199.573L128.564 209.153C127.963 209.475 127.259 209.546 126.606 209.349C125.953 209.152 125.404 208.704 125.082 208.103Z" fill="white"/>
<path d="M158.682 190.318L160.321 194.416M161.141 190.318L162.78 194.416M157.863 191.957H163.6" stroke="black" stroke-width="0.4"/>
<path d="M158.682 193.596H163.6" stroke="black" stroke-width="0.4"/>
<path d="M137.195 194.636L138.61 200.636L136.774 201.164L134.552 191.767L127.99 184.683L129.405 183.366L133.597 187.886L132.136 181.798L134.018 181.358L136.241 190.755L142.803 197.839L141.387 199.156L137.195 194.636ZM147.336 191.708C145.774 192.54 144.098 192.533 142.583 191.99L140.326 193.192L139.392 191.439L140.52 190.838L141.127 190.514L140.66 189.637L138.924 190.562L137.99 188.809L139.726 187.884L139.258 187.007L138.651 187.331L137.523 187.932L136.588 186.179L138.845 184.976C139.239 183.416 140.167 182.02 141.729 181.188C143.11 180.452 144.73 180.3 146.232 180.766C147.734 181.232 148.996 182.277 149.74 183.672C150.483 185.067 150.648 186.698 150.197 188.204C149.746 189.711 148.717 190.972 147.336 191.708ZM144.499 185.34C145.193 184.97 145.474 184.032 145.1 183.331C144.726 182.63 143.792 182.34 143.097 182.71C142.403 183.08 142.122 184.017 142.496 184.719C142.87 185.42 143.805 185.71 144.499 185.34ZM142.396 188.712L143.664 186.91L141.461 186.959L142.396 188.712ZM146.835 189.723C147.53 189.353 147.81 188.416 147.436 187.714C147.062 187.013 146.128 186.723 145.433 187.093C144.739 187.463 144.459 188.401 144.833 189.102C145.206 189.803 146.141 190.093 146.835 189.723Z" fill="black"/>
<path d="M101.976 237.211C101.915 237.473 101.863 237.72 101.809 237.957C101.998 237.695 102.138 237.286 102.172 237.036C102.2 236.82 101.989 237.157 101.976 237.211Z" fill="#8E7A7A"/>
<path d="M100.249 242.039C100.492 241.188 100.932 240.296 101.314 239.49C101.672 238.736 101.779 238.054 101.975 237.211C101.988 237.157 102.199 236.82 102.171 237.036C102.128 237.359 101.906 237.948 101.631 238.142C101.27 238.397 100.856 238.566 100.856 238.034C100.856 237.594 100.21 237.829 99.8848 237.717C98.9038 237.377 98.1928 236.54 97.2148 236.214" stroke="white" stroke-width="3" stroke-linecap="round"/>
<path d="M278.052 274.983C277.849 275.158 277.661 275.327 277.477 275.487C277.785 275.387 278.139 275.138 278.313 274.956C278.464 274.799 278.094 274.946 278.052 274.983Z" fill="#8E7A7A"/>
<path d="M273.812 277.867C274.51 277.323 275.39 276.862 276.174 276.435C276.907 276.036 277.397 275.548 278.051 274.983C278.093 274.946 278.463 274.799 278.312 274.956C278.087 275.192 277.562 275.537 277.225 275.532C276.783 275.525 276.348 275.418 276.661 274.988C276.92 274.633 276.261 274.443 276.064 274.16C275.471 273.308 275.391 272.212 274.792 271.373" stroke="white" stroke-width="3" stroke-linecap="round"/>
<path d="M175.235 272.545C174.847 272.046 174.525 271.421 174.324 270.822C174.215 270.495 173.849 271.017 173.668 271.182" stroke="white" stroke-width="3" stroke-linecap="round"/>
<path d="M61.6597 282.109C61.6112 282.74 61.4294 283.418 61.1743 283.997C61.0353 284.312 61.6578 284.172 61.9024 284.172" stroke="white" stroke-width="3" stroke-linecap="round"/>
<path d="M107.512 195.689C106.925 195.925 106.236 196.063 105.605 196.091C105.261 196.106 105.662 196.602 105.77 196.821" stroke="white" stroke-width="3" stroke-linecap="round"/>
<path d="M214.987 175.566C214.987 176.31 215.05 177.703 214.043 177.75C213.555 177.774 212.921 177.844 212.438 177.737C212.118 177.666 212.163 177.37 211.953 177.265" stroke="white" stroke-width="3" stroke-linecap="round"/>
<path d="M187.301 138.161C186.644 138.509 185.442 139.216 184.928 138.348C184.679 137.928 184.322 137.4 184.191 136.924C184.104 136.607 184.386 136.509 184.381 136.274" stroke="white" stroke-width="3" stroke-linecap="round"/>
<path d="M231.38 223.101C231.38 223.844 231.443 225.237 230.436 225.285C229.948 225.308 229.314 225.379 228.831 225.271C228.511 225.2 228.557 224.905 228.346 224.8" stroke="white" stroke-width="3" stroke-linecap="round"/>
<path d="M117.126 287.026C117.126 287.905 116.762 288.723 116.762 289.629C116.762 289.69 116.729 290.134 116.634 289.912C116.45 289.483 116.034 289.391 115.737 289.062C115.149 288.41 114.425 288.361 113.607 288.361" stroke="white" stroke-width="3" stroke-linecap="round"/>
<path d="M184.331 211.627C184.331 212.505 183.967 213.323 183.967 214.229C183.967 214.29 183.934 214.734 183.839 214.512C183.655 214.084 183.238 213.991 182.942 213.663C182.353 213.011 181.63 212.962 180.811 212.962" stroke="white" stroke-width="3" stroke-linecap="round"/>
<path d="M31.2247 242.013C31.2247 242.016 31.2247 242.018 31.2246 242.021C31.3472 242.184 31.4908 242.341 31.5888 242.451C31.9998 242.914 32.3976 242.98 32.5529 243.678C32.6532 244.13 33.1913 243.603 33.4091 243.469C33.7517 243.26 33.7473 243.052 34.1979 243.004C35.1071 242.909 35.3896 241.056 35.0541 240.395C34.7906 239.876 31.9276 239.846 31.5484 240.294C31.2697 240.623 31.2312 241.605 31.2247 242.013Z" fill="#8E7A7A"/>
<path d="M30.4971 244.831C30.963 244.773 30.9258 243.737 31.05 243.436C31.2474 242.956 31.2171 242.526 31.2252 242.013C31.2317 241.605 31.2702 240.623 31.5489 240.294C31.9281 239.846 34.7911 239.876 35.0546 240.395C35.3901 241.056 35.1076 242.909 34.1984 243.004C33.7478 243.052 33.7522 243.26 33.4096 243.469C33.1918 243.603 32.6537 244.13 32.5534 243.678C32.3981 242.98 32.0003 242.914 31.5893 242.451C31.405 242.244 31.0596 241.872 30.996 241.602C30.8977 241.184 31.1105 240.717 30.8342 240.341C30.6248 240.056 30.1412 239.751 30.0117 239.492" stroke="white" stroke-width="3" stroke-linecap="round"/>
<path d="M277.427 198.635C277.425 198.637 277.424 198.639 277.422 198.641C277.429 198.845 277.457 199.056 277.474 199.203C277.546 199.817 277.835 200.099 277.562 200.761C277.386 201.188 278.129 201.064 278.384 201.08C278.784 201.104 278.9 200.931 279.297 201.15C280.097 201.592 281.389 200.235 281.493 199.501C281.574 198.925 279.244 197.26 278.676 197.411C278.259 197.521 277.666 198.304 277.427 198.635Z" fill="#8E7A7A"/>
<path d="M275.215 200.528C275.63 200.747 276.193 199.877 276.467 199.701C276.904 199.421 277.126 199.05 277.426 198.635C277.665 198.304 278.258 197.521 278.675 197.411C279.243 197.26 281.573 198.925 281.492 199.501C281.388 200.235 280.096 201.592 279.296 201.15C278.899 200.931 278.783 201.104 278.383 201.08C278.128 201.064 277.385 201.188 277.561 200.761C277.834 200.099 277.545 199.817 277.473 199.203C277.441 198.927 277.371 198.425 277.473 198.166C277.632 197.768 278.074 197.507 278.063 197.04C278.054 196.687 277.832 196.159 277.875 195.873" stroke="white" stroke-width="3" stroke-linecap="round"/>
<path d="M48.8616 191.138C57.3304 173.927 66.0723 138.03 33.29 132.129C-7.68797 124.753 27.5531 62.467 33.29 59.189" stroke="black" stroke-width="2"/>
<path d="M93.1173 150.979C101.586 131.583 110 92.627 75.9063 91.971C41.8126 91.315 82.4628 51.266 107.049 31.324M255.389 115.738C266.044 96.615 280.96 58.369 255.389 58.369C229.819 58.369 250.745 20.123 264.405 1M334.887 150.979C353.736 120.109 381.602 58.369 342.263 58.369C302.924 58.369 331.882 24.494 351.278 7.5565" stroke="black" stroke-width="2"/>
<path d="M234.527 255.337L231.795 257.149L232.619 258.392C229.939 259.659 226.108 258.954 223.153 258.947L216.638 263.27C216.208 266.151 213.367 268.036 210.546 267.311L208.128 268.915C206.612 269.92 206.212 271.956 207.209 273.459L210.833 278.922C211.839 280.438 213.861 280.848 215.377 279.842L217.795 278.238C218.224 275.357 221.065 273.472 223.887 274.197L230.402 269.875C231.545 267.15 232.385 263.346 234.595 261.369L235.419 262.612L238.151 260.8M230.192 262.146C229.727 262.927 228.856 266.062 228.622 266.925L228.59 267.143L223.126 270.767C221.349 270.668 219.597 271.141 218.122 272.12C216.647 273.098 215.53 274.528 214.931 276.204L213.565 277.11L209.94 271.646L211.306 270.74C213.084 270.84 214.835 270.367 216.31 269.388C217.785 268.409 218.902 266.98 219.502 265.304L224.965 261.679L225.179 261.734C226.065 261.855 229.292 262.271 230.192 262.146Z" fill="white"/>
<path d="M80.0815 262.877L87.3431 259.077L88.8629 261.982L71.4349 271.101L69.9151 268.196L77.1768 264.397L72.5947 255.639C68.3084 257.382 63.3345 255.619 61.146 251.436C60.9104 250.986 60.726 250.527 60.5707 250.054L57.6895 241.294L67.1877 236.324L67.2617 240.744L67.3058 242.737L70.2104 241.218L70.3013 246.553L70.3453 248.547L73.555 246.867L74.5723 252.347L75.6688 245.003L75.9879 242.82L72.7201 244.529L72.6293 239.194L72.5853 237.2L69.6806 238.72L69.6131 235.055L72.2128 233.695L77.7809 241.049C78.1105 241.431 78.3385 241.867 78.574 242.317C80.7625 246.5 79.3752 251.592 75.4993 254.119L80.0815 262.877Z" fill="white"/>
<path d="M129.073 276.806L149.104 290.874C149.497 291.151 150.04 291.062 150.31 290.678L172.88 258.542C173.15 258.158 173.049 257.617 172.656 257.341L163.356 250.809C162.962 250.533 162.42 250.621 162.15 251.005L149.181 269.47C148.877 269.903 148.684 269.767 148.52 269.652C148.355 269.536 148.162 269.4 148.466 268.967L161.434 250.503C161.704 250.119 161.603 249.578 161.21 249.302L152.625 243.272C152.232 242.996 151.689 243.084 151.419 243.469L128.848 275.605C128.578 275.989 128.68 276.53 129.073 276.806ZM138.639 281.438L140.602 278.644L143.463 280.653L141.5 283.448L138.639 281.438ZM149.37 288.975L142.931 284.453L144.894 281.658L151.332 286.18L149.37 288.975ZM152.314 284.783L148.1 281.824C149.813 280.221 152.997 279.703 155.204 280.668L152.314 284.783ZM159.513 250.196L147.035 267.962C146.265 269.059 146.465 270.295 147.538 271.049C148.611 271.802 149.842 271.571 150.612 270.475L163.09 252.709L170.959 258.236L156.2 279.25C153.221 277.742 148.903 278.444 146.648 280.804L139.38 275.699C140.834 272.777 140.029 268.477 137.6 266.187L152.359 245.172L159.513 250.196ZM136.604 267.605C138.258 269.34 138.852 272.511 137.927 274.679L133.714 271.72L136.604 267.605ZM132.732 273.117L139.171 277.639L137.208 280.433L130.77 275.911L132.732 273.117Z" fill="white"/>
<path d="M163.6 268.996C161.961 268.176 158.355 266.701 157.043 267.357C158.409 266.81 160.977 265.554 160.321 264.898C159.502 264.079 160.321 267.357 161.141 266.537L162.78 265.718" stroke="white" stroke-width="0.4"/>
<path d="M162.781 265.718V267.357H166.059M143.112 261.62V265.718M141.473 263.259H146.39M146.39 264.898H141.473M144.751 261.62V267.357M151.307 250.146L152.127 255.883M149.668 251.785H152.947M150.488 254.244H152.947M150.488 252.605L152.947 253.424" stroke="white" stroke-width="0.4"/>
<path d="M116.885 186.22C117.158 187.04 117.541 188.679 116.885 188.679C117.978 188.133 119.999 187.204 119.344 187.86C119.344 188.952 119.18 191.138 118.524 191.138C119.344 191.138 120.983 190.974 120.983 190.318L125.08 187.04C124.261 187.313 122.622 187.696 122.622 187.04C121.529 187.04 119.507 186.876 120.163 186.22L120.983 185.401H119.344V184.581" stroke="black" stroke-width="0.4"/>
<path d="M148.848 198.514C149.667 196.875 146.389 195.236 147.209 196.055C147.864 196.711 146.935 198.514 146.389 199.333L144.75 204.251L148.028 201.792C148.028 201.246 148.192 199.825 148.848 198.514Z" stroke="black" stroke-width="0.4"/>
</svg>
