<svg width="46" height="81" viewBox="0 0 46 81" fill="none" xmlns="http://www.w3.org/2000/svg">
<path d="M15.8325 60H7.8325C7.56728 60 7.31293 59.8946 7.12539 59.7071C6.93786 59.5196 6.8325 59.2652 6.8325 59V51.07L5.5325 52.07C5.1425 52.46 4.5125 52.46 4.1225 52.07L1.2925 49.29C0.9025 48.9 0.9025 48.27 1.2925 47.88L7.1725 42H8.8325C8.8325 43.1 10.1725 44 11.8325 44C13.4925 44 14.8325 43.1 14.8325 42H16.4925L22.3725 47.88C22.7625 48.27 22.7625 48.9 22.3725 49.29L19.5425 52.12C19.1525 52.5 18.5225 52.5 18.1325 52.12L16.8325 51.12V59C16.8325 59.2652 16.7271 59.5196 16.5396 59.7071C16.3521 59.8946 16.0977 60 15.8325 60Z" fill="#0AC05E"/>
<path d="M15.8325 39H7.8325C7.56728 39 7.31293 38.8946 7.12539 38.7071C6.93786 38.5196 6.8325 38.2652 6.8325 38V30.07L5.5325 31.07C5.1425 31.46 4.5125 31.46 4.1225 31.07L1.2925 28.29C0.9025 27.9 0.9025 27.27 1.2925 26.88L7.1725 21H8.8325C8.8325 22.1 10.1725 23 11.8325 23C13.4925 23 14.8325 22.1 14.8325 21H16.4925L22.3725 26.88C22.7625 27.27 22.7625 27.9 22.3725 28.29L19.5425 31.12C19.1525 31.5 18.5225 31.5 18.1325 31.12L16.8325 30.12V38C16.8325 38.2652 16.7271 38.5196 16.5396 38.7071C16.3521 38.8946 16.0977 39 15.8325 39Z" fill="#0AC05E"/>
<path d="M38.6645 60H30.6645C30.3993 60 30.145 59.8946 29.9574 59.7071C29.7699 59.5196 29.6645 59.2652 29.6645 59V51.07L28.3645 52.07C27.9745 52.46 27.3445 52.46 26.9545 52.07L24.1245 49.29C23.7345 48.9 23.7345 48.27 24.1245 47.88L30.0045 42H31.6645C31.6645 43.1 33.0045 44 34.6645 44C36.3245 44 37.6645 43.1 37.6645 42H39.3245L45.2045 47.88C45.5945 48.27 45.5945 48.9 45.2045 49.29L42.3745 52.12C41.9845 52.5 41.3545 52.5 40.9645 52.12L39.6645 51.12V59C39.6645 59.2652 39.5592 59.5196 39.3716 59.7071C39.1841 59.8946 38.9297 60 38.6645 60Z" fill="#0AC05E"/>
<path d="M38.6645 39H30.6645C30.3993 39 30.145 38.8946 29.9574 38.7071C29.7699 38.5196 29.6645 38.2652 29.6645 38V30.07L28.3645 31.07C27.9745 31.46 27.3445 31.46 26.9545 31.07L24.1245 28.29C23.7345 27.9 23.7345 27.27 24.1245 26.88L30.0045 21H31.6645C31.6645 22.1 33.0045 23 34.6645 23C36.3245 23 37.6645 22.1 37.6645 21H39.3245L45.2045 26.88C45.5945 27.27 45.5945 27.9 45.2045 28.29L42.3745 31.12C41.9845 31.5 41.3545 31.5 40.9645 31.12L39.6645 30.12V38C39.6645 38.2652 39.5592 38.5196 39.3716 38.7071C39.1841 38.8946 38.9297 39 38.6645 39Z" fill="#0AC05E"/>
<path d="M15.8325 81H7.8325C7.56728 81 7.31293 80.8946 7.12539 80.7071C6.93786 80.5196 6.8325 80.2652 6.8325 80V72.07L5.5325 73.07C5.1425 73.46 4.5125 73.46 4.1225 73.07L1.2925 70.29C0.9025 69.9 0.9025 69.27 1.2925 68.88L7.1725 63H8.8325C8.8325 64.1 10.1725 65 11.8325 65C13.4925 65 14.8325 64.1 14.8325 63H16.4925L22.3725 68.88C22.7625 69.27 22.7625 69.9 22.3725 70.29L19.5425 73.12C19.1525 73.5 18.5225 73.5 18.1325 73.12L16.8325 72.12V80C16.8325 80.2652 16.7271 80.5196 16.5396 80.7071C16.3521 80.8946 16.0977 81 15.8325 81Z" fill="#0AC05E"/>
<path d="M38.6645 81H30.6645C30.3993 81 30.145 80.8946 29.9574 80.7071C29.7699 80.5196 29.6645 80.2652 29.6645 80V72.07L28.3645 73.07C27.9745 73.46 27.3445 73.46 26.9545 73.07L24.1245 70.29C23.7345 69.9 23.7345 69.27 24.1245 68.88L30.0045 63H31.6645C31.6645 64.1 33.0045 65 34.6645 65C36.3245 65 37.6645 64.1 37.6645 63H39.3245L45.2045 68.88C45.5945 69.27 45.5945 69.9 45.2045 70.29L42.3745 73.12C41.9845 73.5 41.3545 73.5 40.9645 73.12L39.6645 72.12V80C39.6645 80.2652 39.5592 80.5196 39.3716 80.7071C39.1841 80.8946 38.9297 81 38.6645 81Z" fill="black"/>
<path d="M37.8325 18H29.8325C29.5673 18 29.3129 17.8946 29.1254 17.7071C28.9379 17.5196 28.8325 17.2652 28.8325 17V9.07L27.5325 10.07C27.1425 10.46 26.5125 10.46 26.1225 10.07L23.2925 7.29C22.9025 6.9 22.9025 6.27 23.2925 5.88L29.1725 0H30.8325C30.8325 1.1 32.1725 2 33.8325 2C35.4925 2 36.8325 1.1 36.8325 0H38.4925L44.3725 5.88C44.7625 6.27 44.7625 6.9 44.3725 7.29L41.5425 10.12C41.1525 10.5 40.5225 10.5 40.1325 10.12L38.8325 9.12V17C38.8325 17.2652 38.7271 17.5196 38.5396 17.7071C38.3521 17.8946 38.0977 18 37.8325 18Z" fill="#0AC05E"/>
<path d="M14.8325 18H6.8325C6.56728 18 6.31293 17.8946 6.12539 17.7071C5.93786 17.5196 5.8325 17.2652 5.8325 17V9.07L4.5325 10.07C4.1425 10.46 3.5125 10.46 3.1225 10.07L0.2925 7.29C-0.0975 6.9 -0.0975 6.27 0.2925 5.88L6.1725 0H7.8325C7.8325 1.1 9.1725 2 10.8325 2C12.4925 2 13.8325 1.1 13.8325 0H15.4925L21.3725 5.88C21.7625 6.27 21.7625 6.9 21.3725 7.29L18.5425 10.12C18.1525 10.5 17.5225 10.5 17.1325 10.12L15.8325 9.12V17C15.8325 17.2652 15.7271 17.5196 15.5396 17.7071C15.3521 17.8946 15.0977 18 14.8325 18Z" fill="#0AC05E"/>
</svg>
