<svg width="50" height="90" viewBox="0 0 50 90" fill="none" xmlns="http://www.w3.org/2000/svg">
<path d="M43.34 8.73C44.66 8.73 46.56 8.46 46.56 6.89C46.57 6.77 46.56 6.65 46.53 6.53L45.75 3.13C45.57 2.38 45.41 2.04 44.09 1.38C43.07 0.86 40.85 0 40.19 0C39.58 0 39.4 0.79 38.67 0.79C37.97 0.79 37.45 0.2 36.79 0.2C36.16 0.2 35.75 0.63 35.43 1.51C35.43 1.51 34.55 4.01 34.43 4.37C34.42 4.44 34.41 4.5 34.41 4.57C34.41 5.54 38.23 8.72 43.34 8.72M46.77 7.53C46.95 8.39 46.95 8.48 46.95 8.57C46.95 10.07 45.29 10.88 43.12 10.88C38.2 10.88 33.89 8 33.89 6.1C33.89 5.83 33.95 5.57 34.05 5.33C32.28 5.41 30 5.73 30 7.75C30 11.07 37.84 15.14 44.05 15.14C48.81 15.14 50 12.99 50 11.29C50 9.95 48.85 8.43 46.77 7.53Z" fill="#0AC05E"/>
<path d="M13.34 8.73C14.66 8.73 16.56 8.46 16.56 6.89C16.57 6.77 16.56 6.65 16.53 6.53L15.75 3.13C15.57 2.38 15.41 2.04 14.09 1.38C13.07 0.86 10.85 0 10.19 0C9.58 0 9.4 0.79 8.67 0.79C7.97 0.79 7.45 0.2 6.79 0.2C6.16 0.2 5.75 0.63 5.43 1.51C5.43 1.51 4.55 4.01 4.43 4.37C4.42 4.44 4.41 4.5 4.41 4.57C4.41 5.54 8.23 8.72 13.34 8.72M16.77 7.53C16.95 8.39 16.95 8.48 16.95 8.57C16.95 10.07 15.29 10.88 13.12 10.88C8.2 10.88 3.89 8 3.89 6.1C3.89 5.83 3.95 5.57 4.05 5.33C2.28 5.41 0 5.73 0 7.75C0 11.07 7.84 15.14 14.05 15.14C18.81 15.14 20 12.99 20 11.29C20 9.95 18.85 8.43 16.77 7.53Z" fill="#0AC05E"/>
<path d="M43.34 26.73C44.66 26.73 46.56 26.46 46.56 24.89C46.57 24.77 46.56 24.65 46.53 24.53L45.75 21.13C45.57 20.38 45.41 20.04 44.09 19.38C43.07 18.86 40.85 18 40.19 18C39.58 18 39.4 18.79 38.67 18.79C37.97 18.79 37.45 18.2 36.79 18.2C36.16 18.2 35.75 18.63 35.43 19.51C35.43 19.51 34.55 22.01 34.43 22.37C34.42 22.44 34.41 22.5 34.41 22.57C34.41 23.54 38.23 26.72 43.34 26.72M46.77 25.53C46.95 26.39 46.95 26.48 46.95 26.57C46.95 28.07 45.29 28.88 43.12 28.88C38.2 28.88 33.89 26 33.89 24.1C33.89 23.83 33.95 23.57 34.05 23.33C32.28 23.41 30 23.73 30 25.75C30 29.07 37.84 33.14 44.05 33.14C48.81 33.14 50 30.99 50 29.29C50 27.95 48.85 26.43 46.77 25.53Z" fill="black"/>
<path d="M13.34 26.73C14.66 26.73 16.56 26.46 16.56 24.89C16.57 24.77 16.56 24.65 16.53 24.53L15.75 21.13C15.57 20.38 15.41 20.04 14.09 19.38C13.07 18.86 10.85 18 10.19 18C9.58 18 9.4 18.79 8.67 18.79C7.97 18.79 7.45 18.2 6.79 18.2C6.16 18.2 5.75 18.63 5.43 19.51C5.43 19.51 4.55 22.01 4.43 22.37C4.42 22.44 4.41 22.5 4.41 22.57C4.41 23.54 8.23 26.72 13.34 26.72M16.77 25.53C16.95 26.39 16.95 26.48 16.95 26.57C16.95 28.07 15.29 28.88 13.12 28.88C8.2 28.88 3.89 26 3.89 24.1C3.89 23.83 3.95 23.57 4.05 23.33C2.28 23.41 0 23.73 0 25.75C0 29.07 7.84 33.14 14.05 33.14C18.81 33.14 20 30.99 20 29.29C20 27.95 18.85 26.43 16.77 25.53Z" fill="#0AC05E"/>
<path d="M43.34 46.73C44.66 46.73 46.56 46.46 46.56 44.89C46.57 44.77 46.56 44.65 46.53 44.53L45.75 41.13C45.57 40.38 45.41 40.04 44.09 39.38C43.07 38.86 40.85 38 40.19 38C39.58 38 39.4 38.79 38.67 38.79C37.97 38.79 37.45 38.2 36.79 38.2C36.16 38.2 35.75 38.63 35.43 39.51C35.43 39.51 34.55 42.01 34.43 42.37C34.42 42.44 34.41 42.5 34.41 42.57C34.41 43.54 38.23 46.72 43.34 46.72M46.77 45.53C46.95 46.39 46.95 46.48 46.95 46.57C46.95 48.07 45.29 48.88 43.12 48.88C38.2 48.88 33.89 46 33.89 44.1C33.89 43.83 33.95 43.57 34.05 43.33C32.28 43.41 30 43.73 30 45.75C30 49.07 37.84 53.14 44.05 53.14C48.81 53.14 50 50.99 50 49.29C50 47.95 48.85 46.43 46.77 45.53Z" fill="black"/>
<path d="M13.34 46.73C14.66 46.73 16.56 46.46 16.56 44.89C16.57 44.77 16.56 44.65 16.53 44.53L15.75 41.13C15.57 40.38 15.41 40.04 14.09 39.38C13.07 38.86 10.85 38 10.19 38C9.58 38 9.4 38.79 8.67 38.79C7.97 38.79 7.45 38.2 6.79 38.2C6.16 38.2 5.75 38.63 5.43 39.51C5.43 39.51 4.55 42.01 4.43 42.37C4.42 42.44 4.41 42.5 4.41 42.57C4.41 43.54 8.23 46.72 13.34 46.72M16.77 45.53C16.95 46.39 16.95 46.48 16.95 46.57C16.95 48.07 15.29 48.88 13.12 48.88C8.2 48.88 3.89 46 3.89 44.1C3.89 43.83 3.95 43.57 4.05 43.33C2.28 43.41 0 43.73 0 45.75C0 49.07 7.84 53.14 14.05 53.14C18.81 53.14 20 50.99 20 49.29C20 47.95 18.85 46.43 16.77 45.53Z" fill="black"/>
<path d="M43.34 64.73C44.66 64.73 46.56 64.46 46.56 62.89C46.57 62.77 46.56 62.65 46.53 62.53L45.75 59.13C45.57 58.38 45.41 58.04 44.09 57.38C43.07 56.86 40.85 56 40.19 56C39.58 56 39.4 56.79 38.67 56.79C37.97 56.79 37.45 56.2 36.79 56.2C36.16 56.2 35.75 56.63 35.43 57.51C35.43 57.51 34.55 60.01 34.43 60.37C34.42 60.44 34.41 60.5 34.41 60.57C34.41 61.54 38.23 64.72 43.34 64.72M46.77 63.53C46.95 64.39 46.95 64.48 46.95 64.57C46.95 66.07 45.29 66.88 43.12 66.88C38.2 66.88 33.89 64 33.89 62.1C33.89 61.83 33.95 61.57 34.05 61.33C32.28 61.41 30 61.73 30 63.75C30 67.07 37.84 71.14 44.05 71.14C48.81 71.14 50 68.99 50 67.29C50 65.95 48.85 64.43 46.77 63.53Z" fill="black"/>
<path d="M13.34 64.73C14.66 64.73 16.56 64.46 16.56 62.89C16.57 62.77 16.56 62.65 16.53 62.53L15.75 59.13C15.57 58.38 15.41 58.04 14.09 57.38C13.07 56.86 10.85 56 10.19 56C9.58 56 9.4 56.79 8.67 56.79C7.97 56.79 7.45 56.2 6.79 56.2C6.16 56.2 5.75 56.63 5.43 57.51C5.43 57.51 4.55 60.01 4.43 60.37C4.42 60.44 4.41 60.5 4.41 60.57C4.41 61.54 8.23 64.72 13.34 64.72M16.77 63.53C16.95 64.39 16.95 64.48 16.95 64.57C16.95 66.07 15.29 66.88 13.12 66.88C8.2 66.88 3.89 64 3.89 62.1C3.89 61.83 3.95 61.57 4.05 61.33C2.28 61.41 0 61.73 0 63.75C0 67.07 7.84 71.14 14.05 71.14C18.81 71.14 20 68.99 20 67.29C20 65.95 18.85 64.43 16.77 63.53Z" fill="black"/>
<path d="M43.34 82.73C44.66 82.73 46.56 82.46 46.56 80.89C46.57 80.77 46.56 80.65 46.53 80.53L45.75 77.13C45.57 76.38 45.41 76.04 44.09 75.38C43.07 74.86 40.85 74 40.19 74C39.58 74 39.4 74.79 38.67 74.79C37.97 74.79 37.45 74.2 36.79 74.2C36.16 74.2 35.75 74.63 35.43 75.51C35.43 75.51 34.55 78.01 34.43 78.37C34.42 78.44 34.41 78.5 34.41 78.57C34.41 79.54 38.23 82.72 43.34 82.72M46.77 81.53C46.95 82.39 46.95 82.48 46.95 82.57C46.95 84.07 45.29 84.88 43.12 84.88C38.2 84.88 33.89 82 33.89 80.1C33.89 79.83 33.95 79.57 34.05 79.33C32.28 79.41 30 79.73 30 81.75C30 85.07 37.84 89.14 44.05 89.14C48.81 89.14 50 86.99 50 85.29C50 83.95 48.85 82.43 46.77 81.53Z" fill="black"/>
<path d="M13.34 82.73C14.66 82.73 16.56 82.46 16.56 80.89C16.57 80.77 16.56 80.65 16.53 80.53L15.75 77.13C15.57 76.38 15.41 76.04 14.09 75.38C13.07 74.86 10.85 74 10.19 74C9.58 74 9.4 74.79 8.67 74.79C7.97 74.79 7.45 74.2 6.79 74.2C6.16 74.2 5.75 74.63 5.43 75.51C5.43 75.51 4.55 78.01 4.43 78.37C4.42 78.44 4.41 78.5 4.41 78.57C4.41 79.54 8.23 82.72 13.34 82.72M16.77 81.53C16.95 82.39 16.95 82.48 16.95 82.57C16.95 84.07 15.29 84.88 13.12 84.88C8.2 84.88 3.89 82 3.89 80.1C3.89 79.83 3.95 79.57 4.05 79.33C2.28 79.41 0 79.73 0 81.75C0 85.07 7.84 89.14 14.05 89.14C18.81 89.14 20 86.99 20 85.29C20 83.95 18.85 82.43 16.77 81.53Z" fill="black"/>
</svg>
