<svg width="180" height="124" viewBox="0 0 180 124" fill="none" xmlns="http://www.w3.org/2000/svg">
<path d="M155.455 31H114.545V77.5H8.18182V100.75H16.3636C16.3636 113.925 27 124 40.9091 124C54.8182 124 65.4545 113.925 65.4545 100.75H114.545C114.545 113.925 125.182 124 139.091 124C153 124 163.636 113.925 163.636 100.75H180V62L155.455 31ZM40.9091 112.375C34.3636 112.375 28.6364 106.95 28.6364 100.75C28.6364 94.55 34.3636 89.125 40.9091 89.125C47.4545 89.125 53.1818 94.55 53.1818 100.75C53.1818 106.95 47.4545 112.375 40.9091 112.375ZM139.091 112.375C132.545 112.375 126.818 106.95 126.818 100.75C126.818 94.55 132.545 89.125 139.091 89.125C145.636 89.125 151.364 94.55 151.364 100.75C151.364 106.95 145.636 112.375 139.091 112.375ZM130.909 62V42.625H151.364L167.727 62H130.909ZM106.364 42.625C106.364 57.35 93.2727 69.75 77.7273 69.75H28.6364C13.0909 69.75 0 57.35 0 42.625C0 27.9 13.0909 15.5 28.6364 15.5H32.7273V7.75H24.5455V0H57.2727V7.75H49.0909V15.5H77.7273C93.2727 15.5 106.364 27.9 106.364 42.625Z" fill="black"/>
</svg>
