<svg width="40" height="133" viewBox="0 0 40 133" fill="none" xmlns="http://www.w3.org/2000/svg">
<path d="M36 19.1259H40V24.3444H36C33.24 24.3444 30.52 23.4312 28 21.7352C23 25.1272 17 25.1272 12 21.7352C9.48 23.4312 6.74 24.3444 4 24.3444H0V19.1259H4C6.78 19.1259 9.56 17.8995 12 15.6556C16.88 20.1174 23.12 20.1174 28 15.6556C30.44 17.8995 33.22 19.1259 36 19.1259ZM36 3.47032H40V8.68885H36C33.24 8.68885 30.52 7.7756 28 6.07958C23 9.47162 17 9.47162 12 6.07958C9.48 7.7756 6.74 8.68885 4 8.68885H0V3.47032H4C6.78 3.47032 9.56 2.24397 12 0C16.88 4.46184 23.12 4.46184 28 0C30.44 2.24397 33.22 3.47032 36 3.47032ZM36 34.7815H40V40H36C33.24 40 30.52 39.0868 28 37.3907C23 40.7828 17 40.7828 12 37.3907C9.48 39.0868 6.74 40 4 40H0V34.7815H4C6.78 34.7815 9.56 33.5551 12 31.3112C16.88 35.773 23.12 35.773 28 31.3112C30.44 33.5551 33.22 34.7815 36 34.7815Z" fill="#FF0000"/>
<path d="M36 66.1259H40V71.3444H36C33.24 71.3444 30.52 70.4312 28 68.7352C23 72.1272 17 72.1272 12 68.7352C9.48 70.4312 6.74 71.3444 4 71.3444H0V66.1259H4C6.78 66.1259 9.56 64.8995 12 62.6556C16.88 67.1174 23.12 67.1174 28 62.6556C30.44 64.8995 33.22 66.1259 36 66.1259ZM36 50.4703H40V55.6888H36C33.24 55.6888 30.52 54.7756 28 53.0796C23 56.4716 17 56.4716 12 53.0796C9.48 54.7756 6.74 55.6888 4 55.6888H0V50.4703H4C6.78 50.4703 9.56 49.244 12 47C16.88 51.4618 23.12 51.4618 28 47C30.44 49.244 33.22 50.4703 36 50.4703ZM36 81.7815H40V87H36C33.24 87 30.52 86.0868 28 84.3907C23 87.7828 17 87.7828 12 84.3907C9.48 86.0868 6.74 87 4 87H0V81.7815H4C6.78 81.7815 9.56 80.5551 12 78.3112C16.88 82.773 23.12 82.773 28 78.3112C30.44 80.5551 33.22 81.7815 36 81.7815Z" fill="black"/>
<path d="M36 112.126H40V117.344H36C33.24 117.344 30.52 116.431 28 114.735C23 118.127 17 118.127 12 114.735C9.48 116.431 6.74 117.344 4 117.344H0V112.126H4C6.78 112.126 9.56 110.9 12 108.656C16.88 113.117 23.12 113.117 28 108.656C30.44 110.9 33.22 112.126 36 112.126ZM36 96.4703H40V101.689H36C33.24 101.689 30.52 100.776 28 99.0796C23 102.472 17 102.472 12 99.0796C9.48 100.776 6.74 101.689 4 101.689H0V96.4703H4C6.78 96.4703 9.56 95.244 12 93C16.88 97.4618 23.12 97.4618 28 93C30.44 95.244 33.22 96.4703 36 96.4703ZM36 127.781H40V133H36C33.24 133 30.52 132.087 28 130.391C23 133.783 17 133.783 12 130.391C9.48 132.087 6.74 133 4 133H0V127.781H4C6.78 127.781 9.56 126.555 12 124.311C16.88 128.773 23.12 128.773 28 124.311C30.44 126.555 33.22 127.781 36 127.781Z" fill="black"/>
</svg>
