<svg width="47" height="114" viewBox="0 0 47 114" fill="none" xmlns="http://www.w3.org/2000/svg">
<path d="M18 12H4C1.8 12 0 13.8 0 16C0 18.2 1.8 20 4 20H18C19.1 20 20 19.1 20 18V14C20 12.9 19.1 12 18 12ZM4 18C2.9 18 2 17.1 2 16C2 14.9 2.9 14 4 14C5.1 14 6 14.9 6 16C6 17.1 5.1 18 4 18ZM4.3 10L11 3.3C11.8 2.5 13 2.5 13.8 3.3L16.6 6.1C17.4 6.9 17.4 8.1 16.6 8.9L15.7 10H4.3ZM0 11.5V2C0 0.9 0.9 0 2 0H6C7.1 0 8 0.9 8 2V3.5L0 11.5Z" fill="#0AC05E"/>
<path d="M45 12H31C28.8 12 27 13.8 27 16C27 18.2 28.8 20 31 20H45C46.1 20 47 19.1 47 18V14C47 12.9 46.1 12 45 12ZM31 18C29.9 18 29 17.1 29 16C29 14.9 29.9 14 31 14C32.1 14 33 14.9 33 16C33 17.1 32.1 18 31 18ZM31.3 10L38 3.3C38.8 2.5 40 2.5 40.8 3.3L43.6 6.1C44.4 6.9 44.4 8.1 43.6 8.9L42.7 10H31.3ZM27 11.5V2C27 0.9 27.9 0 29 0H33C34.1 0 35 0.9 35 2V3.5L27 11.5Z" fill="black"/>
<path d="M45 35H31C28.8 35 27 36.8 27 39C27 41.2 28.8 43 31 43H45C46.1 43 47 42.1 47 41V37C47 35.9 46.1 35 45 35ZM31 41C29.9 41 29 40.1 29 39C29 37.9 29.9 37 31 37C32.1 37 33 37.9 33 39C33 40.1 32.1 41 31 41ZM31.3 33L38 26.3C38.8 25.5 40 25.5 40.8 26.3L43.6 29.1C44.4 29.9 44.4 31.1 43.6 31.9L42.7 33H31.3ZM27 34.5V25C27 23.9 27.9 23 29 23H33C34.1 23 35 23.9 35 25V26.5L27 34.5Z" fill="black"/>
<path d="M18 35H4C1.8 35 0 36.8 0 39C0 41.2 1.8 43 4 43H18C19.1 43 20 42.1 20 41V37C20 35.9 19.1 35 18 35ZM4 41C2.9 41 2 40.1 2 39C2 37.9 2.9 37 4 37C5.1 37 6 37.9 6 39C6 40.1 5.1 41 4 41ZM4.3 33L11 26.3C11.8 25.5 13 25.5 13.8 26.3L16.6 29.1C17.4 29.9 17.4 31.1 16.6 31.9L15.7 33H4.3ZM0 34.5V25C0 23.9 0.9 23 2 23H6C7.1 23 8 23.9 8 25V26.5L0 34.5Z" fill="black"/>
<path d="M18 60H4C1.8 60 0 61.8 0 64C0 66.2 1.8 68 4 68H18C19.1 68 20 67.1 20 66V62C20 60.9 19.1 60 18 60ZM4 66C2.9 66 2 65.1 2 64C2 62.9 2.9 62 4 62C5.1 62 6 62.9 6 64C6 65.1 5.1 66 4 66ZM4.3 58L11 51.3C11.8 50.5 13 50.5 13.8 51.3L16.6 54.1C17.4 54.9 17.4 56.1 16.6 56.9L15.7 58H4.3ZM0 59.5V50C0 48.9 0.9 48 2 48H6C7.1 48 8 48.9 8 50V51.5L0 59.5Z" fill="black"/>
<path d="M45 60H31C28.8 60 27 61.8 27 64C27 66.2 28.8 68 31 68H45C46.1 68 47 67.1 47 66V62C47 60.9 46.1 60 45 60ZM31 66C29.9 66 29 65.1 29 64C29 62.9 29.9 62 31 62C32.1 62 33 62.9 33 64C33 65.1 32.1 66 31 66ZM31.3 58L38 51.3C38.8 50.5 40 50.5 40.8 51.3L43.6 54.1C44.4 54.9 44.4 56.1 43.6 56.9L42.7 58H31.3ZM27 59.5V50C27 48.9 27.9 48 29 48H33C34.1 48 35 48.9 35 50V51.5L27 59.5Z" fill="black"/>
<path d="M45 83H31C28.8 83 27 84.8 27 87C27 89.2 28.8 91 31 91H45C46.1 91 47 90.1 47 89V85C47 83.9 46.1 83 45 83ZM31 89C29.9 89 29 88.1 29 87C29 85.9 29.9 85 31 85C32.1 85 33 85.9 33 87C33 88.1 32.1 89 31 89ZM31.3 81L38 74.3C38.8 73.5 40 73.5 40.8 74.3L43.6 77.1C44.4 77.9 44.4 79.1 43.6 79.9L42.7 81H31.3ZM27 82.5V73C27 71.9 27.9 71 29 71H33C34.1 71 35 71.9 35 73V74.5L27 82.5Z" fill="black"/>
<path d="M18 83H4C1.8 83 0 84.8 0 87C0 89.2 1.8 91 4 91H18C19.1 91 20 90.1 20 89V85C20 83.9 19.1 83 18 83ZM4 89C2.9 89 2 88.1 2 87C2 85.9 2.9 85 4 85C5.1 85 6 85.9 6 87C6 88.1 5.1 89 4 89ZM4.3 81L11 74.3C11.8 73.5 13 73.5 13.8 74.3L16.6 77.1C17.4 77.9 17.4 79.1 16.6 79.9L15.7 81H4.3ZM0 82.5V73C0 71.9 0.9 71 2 71H6C7.1 71 8 71.9 8 73V74.5L0 82.5Z" fill="black"/>
<path d="M18 83H4C1.8 83 0 84.8 0 87C0 89.2 1.8 91 4 91H18C19.1 91 20 90.1 20 89V85C20 83.9 19.1 83 18 83ZM4 89C2.9 89 2 88.1 2 87C2 85.9 2.9 85 4 85C5.1 85 6 85.9 6 87C6 88.1 5.1 89 4 89ZM4.3 81L11 74.3C11.8 73.5 13 73.5 13.8 74.3L16.6 77.1C17.4 77.9 17.4 79.1 16.6 79.9L15.7 81H4.3ZM0 82.5V73C0 71.9 0.9 71 2 71H6C7.1 71 8 71.9 8 73V74.5L0 82.5Z" fill="black"/>
<path d="M45 83H31C28.8 83 27 84.8 27 87C27 89.2 28.8 91 31 91H45C46.1 91 47 90.1 47 89V85C47 83.9 46.1 83 45 83ZM31 89C29.9 89 29 88.1 29 87C29 85.9 29.9 85 31 85C32.1 85 33 85.9 33 87C33 88.1 32.1 89 31 89ZM31.3 81L38 74.3C38.8 73.5 40 73.5 40.8 74.3L43.6 77.1C44.4 77.9 44.4 79.1 43.6 79.9L42.7 81H31.3ZM27 82.5V73C27 71.9 27.9 71 29 71H33C34.1 71 35 71.9 35 73V74.5L27 82.5Z" fill="black"/>
<path d="M45 106H31C28.8 106 27 107.8 27 110C27 112.2 28.8 114 31 114H45C46.1 114 47 113.1 47 112V108C47 106.9 46.1 106 45 106ZM31 112C29.9 112 29 111.1 29 110C29 108.9 29.9 108 31 108C32.1 108 33 108.9 33 110C33 111.1 32.1 112 31 112ZM31.3 104L38 97.3C38.8 96.5 40 96.5 40.8 97.3L43.6 100.1C44.4 100.9 44.4 102.1 43.6 102.9L42.7 104H31.3ZM27 105.5V96C27 94.9 27.9 94 29 94H33C34.1 94 35 94.9 35 96V97.5L27 105.5Z" fill="black"/>
<path d="M18 106H4C1.8 106 0 107.8 0 110C0 112.2 1.8 114 4 114H18C19.1 114 20 113.1 20 112V108C20 106.9 19.1 106 18 106ZM4 112C2.9 112 2 111.1 2 110C2 108.9 2.9 108 4 108C5.1 108 6 108.9 6 110C6 111.1 5.1 112 4 112ZM4.3 104L11 97.3C11.8 96.5 13 96.5 13.8 97.3L16.6 100.1C17.4 100.9 17.4 102.1 16.6 102.9L15.7 104H4.3ZM0 105.5V96C0 94.9 0.9 94 2 94H6C7.1 94 8 94.9 8 96V97.5L0 105.5Z" fill="black"/>
<path d="M18 60H4C1.8 60 0 61.8 0 64C0 66.2 1.8 68 4 68H18C19.1 68 20 67.1 20 66V62C20 60.9 19.1 60 18 60ZM4 66C2.9 66 2 65.1 2 64C2 62.9 2.9 62 4 62C5.1 62 6 62.9 6 64C6 65.1 5.1 66 4 66ZM4.3 58L11 51.3C11.8 50.5 13 50.5 13.8 51.3L16.6 54.1C17.4 54.9 17.4 56.1 16.6 56.9L15.7 58H4.3ZM0 59.5V50C0 48.9 0.9 48 2 48H6C7.1 48 8 48.9 8 50V51.5L0 59.5Z" fill="black"/>
<path d="M45 60H31C28.8 60 27 61.8 27 64C27 66.2 28.8 68 31 68H45C46.1 68 47 67.1 47 66V62C47 60.9 46.1 60 45 60ZM31 66C29.9 66 29 65.1 29 64C29 62.9 29.9 62 31 62C32.1 62 33 62.9 33 64C33 65.1 32.1 66 31 66ZM31.3 58L38 51.3C38.8 50.5 40 50.5 40.8 51.3L43.6 54.1C44.4 54.9 44.4 56.1 43.6 56.9L42.7 58H31.3ZM27 59.5V50C27 48.9 27.9 48 29 48H33C34.1 48 35 48.9 35 50V51.5L27 59.5Z" fill="black"/>
<path d="M45 83H31C28.8 83 27 84.8 27 87C27 89.2 28.8 91 31 91H45C46.1 91 47 90.1 47 89V85C47 83.9 46.1 83 45 83ZM31 89C29.9 89 29 88.1 29 87C29 85.9 29.9 85 31 85C32.1 85 33 85.9 33 87C33 88.1 32.1 89 31 89ZM31.3 81L38 74.3C38.8 73.5 40 73.5 40.8 74.3L43.6 77.1C44.4 77.9 44.4 79.1 43.6 79.9L42.7 81H31.3ZM27 82.5V73C27 71.9 27.9 71 29 71H33C34.1 71 35 71.9 35 73V74.5L27 82.5Z" fill="black"/>
<path d="M18 83H4C1.8 83 0 84.8 0 87C0 89.2 1.8 91 4 91H18C19.1 91 20 90.1 20 89V85C20 83.9 19.1 83 18 83ZM4 89C2.9 89 2 88.1 2 87C2 85.9 2.9 85 4 85C5.1 85 6 85.9 6 87C6 88.1 5.1 89 4 89ZM4.3 81L11 74.3C11.8 73.5 13 73.5 13.8 74.3L16.6 77.1C17.4 77.9 17.4 79.1 16.6 79.9L15.7 81H4.3ZM0 82.5V73C0 71.9 0.9 71 2 71H6C7.1 71 8 71.9 8 73V74.5L0 82.5Z" fill="black"/>
</svg>
