<svg width="20" height="135" viewBox="0 0 20 135" fill="none" xmlns="http://www.w3.org/2000/svg">
<path d="M10 25C7.34783 25 4.8043 24.0565 2.92893 22.3771C1.05357 20.6976 0 18.4198 0 16.0448C0 10.0746 10 0 10 0C10 0 20 10.0746 20 16.0448C20 18.4198 18.9464 20.6976 17.0711 22.3771C15.1957 24.0565 12.6522 25 10 25V25Z" fill="black"/>
<path d="M10 53C7.34783 53 4.8043 52.0565 2.92893 50.3771C1.05357 48.6976 0 46.4198 0 44.0448C0 38.0746 10 28 10 28C10 28 20 38.0746 20 44.0448C20 46.4198 18.9464 48.6976 17.0711 50.3771C15.1957 52.0565 12.6522 53 10 53V53Z" fill="black"/>
<path d="M10 25C7.34783 25 4.8043 24.0565 2.92893 22.3771C1.05357 20.6976 0 18.4198 0 16.0448C0 10.0746 10 0 10 0C10 0 20 10.0746 20 16.0448C20 18.4198 18.9464 20.6976 17.0711 22.3771C15.1957 24.0565 12.6522 25 10 25V25Z" fill="#FF0000"/>
<path d="M10 53C7.34783 53 4.8043 52.0565 2.92893 50.3771C1.05357 48.6976 0 46.4198 0 44.0448C0 38.0746 10 28 10 28C10 28 20 38.0746 20 44.0448C20 46.4198 18.9464 48.6976 17.0711 50.3771C15.1957 52.0565 12.6522 53 10 53V53Z" fill="black"/>
<path d="M10 81C7.34783 81 4.8043 80.0565 2.92893 78.3771C1.05357 76.6976 0 74.4198 0 72.0448C0 66.0746 10 56 10 56C10 56 20 66.0746 20 72.0448C20 74.4198 18.9464 76.6976 17.0711 78.3771C15.1957 80.0565 12.6522 81 10 81V81Z" fill="black"/>
<path d="M10 53C7.34783 53 4.8043 52.0565 2.92893 50.3771C1.05357 48.6976 0 46.4198 0 44.0448C0 38.0746 10 28 10 28C10 28 20 38.0746 20 44.0448C20 46.4198 18.9464 48.6976 17.0711 50.3771C15.1957 52.0565 12.6522 53 10 53V53Z" fill="black"/>
<path d="M10 135C7.34783 135 4.8043 134.057 2.92893 132.377C1.05357 130.698 0 128.42 0 126.045C0 120.075 10 110 10 110C10 110 20 120.075 20 126.045C20 128.42 18.9464 130.698 17.0711 132.377C15.1957 134.057 12.6522 135 10 135V135Z" fill="black"/>
<path d="M10 107C7.34783 107 4.8043 106.057 2.92893 104.377C1.05357 102.698 0 100.42 0 98.0448C0 92.0746 10 82 10 82C10 82 20 92.0746 20 98.0448C20 100.42 18.9464 102.698 17.0711 104.377C15.1957 106.057 12.6522 107 10 107V107Z" fill="black"/>
</svg>
