<svg viewBox="0 0 70 73" fill="none" xmlns="http://www.w3.org/2000/svg">
<path d="M42.9004 7.14076H21.4891V0.266602H42.9004V7.14076ZM35.7632 62.1333C35.7632 65.6733 36.6911 69.0074 38.2969 71.86C36.3354 72.2382 34.2993 72.4444 32.196 72.4444C14.4577 72.4444 0.0751953 58.5932 0.0751953 41.511C0.0751953 24.4289 14.4577 10.5777 32.196 10.5777C39.761 10.5777 46.7202 13.1212 52.2515 17.4519L57.3189 12.5025C59.1386 14.0147 60.7444 15.5959 62.3528 17.3488L57.2828 22.2293C61.6723 27.5222 64.3142 34.2244 64.3142 41.511C64.3142 41.9235 64.3142 42.3017 64.3142 42.7141C62.0306 41.9578 59.6747 41.511 57.1771 41.511C45.3645 41.511 35.7632 50.7568 35.7632 62.1333ZM35.7632 20.8888H28.6262V44.948H35.7632V20.8888ZM65.5282 51.2723L52.7155 63.6111L47.0424 58.1462L42.9004 62.1333L52.7155 72.4444L69.6677 56.1185L65.5282 51.2723Z" fill="#FF0000"/>
</svg>
