<svg viewBox="0 0 73 73" fill="none" xmlns="http://www.w3.org/2000/svg">
<path d="M0.657227 32.8081H10.4981V39.3696H0.657227V32.8081ZM60.0325 8.20198L53.1455 15.0916L57.7359 19.6849L64.6256 12.7951L60.0325 8.20198ZM33.461 0H40.0234V9.84247H33.461V0ZM13.4519 8.20198L8.85885 12.7951L15.7485 19.6849L20.339 15.0916L13.4519 8.20198ZM30.1825 68.897C30.1825 70.8654 31.4944 72.1778 33.461 72.1778H40.0234C41.99 72.1778 43.302 70.8654 43.302 68.897V65.616H30.1825V68.897ZM36.7422 16.404C25.9167 16.404 17.0605 25.2622 17.0605 36.0889C17.0605 43.3067 20.9963 49.8684 26.9013 53.1491V59.0546C26.9013 61.023 28.2132 62.3353 30.1825 62.3353H43.302C45.2712 62.3353 46.5831 61.023 46.5831 59.0546V53.1491C52.4882 49.8684 56.424 43.3067 56.424 36.0889C56.424 25.2622 47.5677 16.404 36.7422 16.404ZM40.0234 48.8839V52.4928H33.461V48.8839C27.8859 47.5716 23.6202 42.3225 23.6202 36.0889C23.6202 28.8711 29.5252 22.9657 36.7422 22.9657C43.9592 22.9657 49.8643 28.8711 49.8643 36.0889C49.8643 42.3225 45.5985 47.2437 40.0234 48.8839ZM62.9863 32.8081H72.8272V39.3696H62.9863V32.8081Z" fill="#D0D500"/>
</svg>
