<svg viewBox="0 0 40 78" fill="none" xmlns="http://www.w3.org/2000/svg">
<path d="M0.847656 0.422119V8.15545H4.71391V62.2888C4.71391 66.3908 6.34314 70.3248 9.24361 73.2253C12.1438 76.126 16.0773 77.7555 20.1789 77.7555C24.2805 77.7555 28.214 76.126 31.1142 73.2253C34.0147 70.3248 35.6439 66.3908 35.6439 62.2888V8.15545H39.5102V0.422119H0.847656ZM16.3127 54.5555C13.9929 54.5555 12.4464 53.0088 12.4464 50.6888C12.4464 48.3688 13.9929 46.8221 16.3127 46.8221C18.6324 46.8221 20.1789 48.3688 20.1789 50.6888C20.1789 53.0088 18.6324 54.5555 16.3127 54.5555ZM24.0452 39.0888C21.7254 39.0888 20.1789 37.5421 20.1789 35.2221C20.1789 32.9021 21.7254 31.3555 24.0452 31.3555C26.3649 31.3555 27.9114 32.9021 27.9114 35.2221C27.9114 37.5421 26.3649 39.0888 24.0452 39.0888ZM27.9114 19.7555H12.4464V8.15545H27.9114V19.7555Z" fill="#0AC05E"/>
</svg>
